<ttFont>
    <TTGlyph name=".notdef" xMin="80" yMin="-240" xMax="560" yMax="900">
      <contour>
        <pt x="80" y="900" on="1"/>
        <pt x="560" y="900" on="1"/>
        <pt x="560" y="-240" on="1"/>
        <pt x="80" y="-240" on="1"/>
      </contour>
      <contour>
        <pt x="177" y="-170" on="1"/>
        <pt x="463" y="-170" on="1"/>
        <pt x="463" y="830" on="1"/>
        <pt x="177" y="830" on="1"/>
      </contour>
    </TTGlyph>
    <TTGlyph name="A" xMin="-7" yMin="0" xMax="725" yMax="730">
      <contour>
        <pt x="473" y="242" on="1"/>
        <pt x="205" y="242" on="1"/>
        <pt x="144" y="64" on="1"/>
        <pt x="227" y="43" on="1"/>
        <pt x="227" y="0" on="1"/>
        <pt x="-7" y="0" on="1"/>
        <pt x="-7" y="43" on="1"/>
        <pt x="75" y="64" on="1"/>
        <pt x="315" y="730" on="1"/>
        <pt x="408" y="730" on="1"/>
        <pt x="645" y="64" on="1"/>
        <pt x="725" y="43" on="1"/>
        <pt x="725" y="0" on="1"/>
        <pt x="450" y="0" on="1"/>
        <pt x="450" y="43" on="1"/>
        <pt x="532" y="64" on="1"/>
      </contour>
      <contour>
        <pt x="225" y="300" on="1"/>
        <pt x="454" y="300" on="1"/>
        <pt x="346" y="641" on="1"/>
        <pt x="342" y="641" on="1"/>
      </contour>
    </TTGlyph>
    <TTGlyph name="AE" xMin="-9" yMin="0" xMax="1000" yMax="720">
      <contour>
        <pt x="793" y="238" on="1"/>
        <pt x="775" y="340" on="1"/>
        <pt x="609" y="340" on="1"/>
        <pt x="609" y="60" on="1"/>
        <pt x="911" y="60" on="1"/>
        <pt x="942" y="223" on="1"/>
        <pt x="1000" y="223" on="1"/>
        <pt x="1000" y="0" on="1"/>
        <pt x="415" y="0" on="1"/>
        <pt x="415" y="43" on="1"/>
        <pt x="509" y="64" on="1"/>
        <pt x="509" y="242" on="1"/>
        <pt x="257" y="242" on="1"/>
        <pt x="159" y="64" on="1"/>
        <pt x="238" y="43" on="1"/>
        <pt x="238" y="0" on="1"/>
        <pt x="-9" y="0" on="1"/>
        <pt x="-9" y="43" on="1"/>
        <pt x="85" y="64" on="1"/>
        <pt x="422" y="666" on="1"/>
        <pt x="338" y="677" on="1"/>
        <pt x="338" y="720" on="1"/>
        <pt x="978" y="720" on="1"/>
        <pt x="978" y="508" on="1"/>
        <pt x="926" y="508" on="1"/>
        <pt x="894" y="662" on="1"/>
        <pt x="609" y="662" on="1"/>
        <pt x="609" y="400" on="1"/>
        <pt x="775" y="400" on="1"/>
        <pt x="793" y="502" on="1"/>
        <pt x="844" y="502" on="1"/>
        <pt x="844" y="238" on="1"/>
      </contour>
      <contour>
        <pt x="486" y="659" on="1"/>
        <pt x="289" y="300" on="1"/>
        <pt x="509" y="300" on="1"/>
        <pt x="509" y="656" on="1"/>
      </contour>
    </TTGlyph>
    <TTGlyph name="AEacute" xMin="-9" yMin="0" xMax="1000" yMax="895">
      <contour>
        <pt x="793" y="238" on="1"/>
        <pt x="775" y="340" on="1"/>
        <pt x="609" y="340" on="1"/>
        <pt x="609" y="60" on="1"/>
        <pt x="911" y="60" on="1"/>
        <pt x="942" y="223" on="1"/>
        <pt x="1000" y="223" on="1"/>
        <pt x="1000" y="0" on="1"/>
        <pt x="415" y="0" on="1"/>
        <pt x="415" y="43" on="1"/>
        <pt x="509" y="64" on="1"/>
        <pt x="509" y="242" on="1"/>
        <pt x="257" y="242" on="1"/>
        <pt x="159" y="64" on="1"/>
        <pt x="238" y="43" on="1"/>
        <pt x="238" y="0" on="1"/>
        <pt x="-9" y="0" on="1"/>
        <pt x="-9" y="43" on="1"/>
        <pt x="85" y="64" on="1"/>
        <pt x="422" y="666" on="1"/>
        <pt x="338" y="677" on="1"/>
        <pt x="338" y="720" on="1"/>
        <pt x="978" y="720" on="1"/>
        <pt x="978" y="508" on="1"/>
        <pt x="926" y="508" on="1"/>
        <pt x="894" y="662" on="1"/>
        <pt x="609" y="662" on="1"/>
        <pt x="609" y="400" on="1"/>
        <pt x="775" y="400" on="1"/>
        <pt x="793" y="502" on="1"/>
        <pt x="844" y="502" on="1"/>
        <pt x="844" y="238" on="1"/>
      </contour>
      <contour>
        <pt x="486" y="659" on="1"/>
        <pt x="289" y="300" on="1"/>
        <pt x="509" y="300" on="1"/>
        <pt x="509" y="656" on="1"/>
      </contour>
      <contour>
        <pt x="665" y="847" on="1"/>
        <pt x="686" y="874" on="0"/>
        <pt x="721" y="895" on="0"/>
        <pt x="740" y="895" on="1"/>
        <pt x="777" y="895" on="0"/>
        <pt x="777" y="865" on="1"/>
        <pt x="777" y="849" on="0"/>
        <pt x="742" y="822" on="0"/>
        <pt x="704" y="799" on="1"/>
        <pt x="657" y="770" on="1"/>
        <pt x="604" y="770" on="1"/>
      </contour>
    </TTGlyph>
    <TTGlyph name="Aacute" xMin="-7" yMin="0" xMax="725" yMax="895">
      <contour>
        <pt x="473" y="242" on="1"/>
        <pt x="205" y="242" on="1"/>
        <pt x="144" y="64" on="1"/>
        <pt x="227" y="43" on="1"/>
        <pt x="227" y="0" on="1"/>
        <pt x="-7" y="0" on="1"/>
        <pt x="-7" y="43" on="1"/>
        <pt x="75" y="64" on="1"/>
        <pt x="315" y="730" on="1"/>
        <pt x="408" y="730" on="1"/>
        <pt x="645" y="64" on="1"/>
        <pt x="725" y="43" on="1"/>
        <pt x="725" y="0" on="1"/>
        <pt x="450" y="0" on="1"/>
        <pt x="450" y="43" on="1"/>
        <pt x="532" y="64" on="1"/>
      </contour>
      <contour>
        <pt x="225" y="300" on="1"/>
        <pt x="454" y="300" on="1"/>
        <pt x="346" y="641" on="1"/>
        <pt x="342" y="641" on="1"/>
      </contour>
      <contour>
        <pt x="396" y="847" on="1"/>
        <pt x="417" y="874" on="0"/>
        <pt x="452" y="895" on="0"/>
        <pt x="471" y="895" on="1"/>
        <pt x="508" y="895" on="0"/>
        <pt x="508" y="865" on="1"/>
        <pt x="508" y="849" on="0"/>
        <pt x="473" y="822" on="0"/>
        <pt x="435" y="799" on="1"/>
        <pt x="388" y="770" on="1"/>
        <pt x="335" y="770" on="1"/>
      </contour>
    </TTGlyph>
    <TTGlyph name="Abreve" xMin="-7" yMin="0" xMax="725" yMax="890">
      <contour>
        <pt x="473" y="242" on="1"/>
        <pt x="205" y="242" on="1"/>
        <pt x="144" y="64" on="1"/>
        <pt x="227" y="43" on="1"/>
        <pt x="227" y="0" on="1"/>
        <pt x="-7" y="0" on="1"/>
        <pt x="-7" y="43" on="1"/>
        <pt x="75" y="64" on="1"/>
        <pt x="315" y="730" on="1"/>
        <pt x="408" y="730" on="1"/>
        <pt x="645" y="64" on="1"/>
        <pt x="725" y="43" on="1"/>
        <pt x="725" y="0" on="1"/>
        <pt x="450" y="0" on="1"/>
        <pt x="450" y="43" on="1"/>
        <pt x="532" y="64" on="1"/>
      </contour>
      <contour>
        <pt x="225" y="300" on="1"/>
        <pt x="454" y="300" on="1"/>
        <pt x="346" y="641" on="1"/>
        <pt x="342" y="641" on="1"/>
      </contour>
      <contour>
        <pt x="515" y="890" on="1"/>
        <pt x="513" y="823" on="0"/>
        <pt x="427" y="749" on="0"/>
        <pt x="362" y="749" on="1"/>
        <pt x="294" y="749" on="0"/>
        <pt x="221" y="827" on="0"/>
        <pt x="221" y="890" on="1"/>
        <pt x="269" y="890" on="1"/>
        <pt x="271" y="852" on="0"/>
        <pt x="323" y="818" on="0"/>
        <pt x="362" y="818" on="1"/>
        <pt x="412" y="818" on="0"/>
        <pt x="467" y="852" on="0"/>
        <pt x="467" y="890" on="1"/>
      </contour>
    </TTGlyph>
    <TTGlyph name="Acircumflex" xMin="-7" yMin="0" xMax="725" yMax="890">
      <contour>
        <pt x="473" y="242" on="1"/>
        <pt x="205" y="242" on="1"/>
        <pt x="144" y="64" on="1"/>
        <pt x="227" y="43" on="1"/>
        <pt x="227" y="0" on="1"/>
        <pt x="-7" y="0" on="1"/>
        <pt x="-7" y="43" on="1"/>
        <pt x="75" y="64" on="1"/>
        <pt x="315" y="730" on="1"/>
        <pt x="408" y="730" on="1"/>
        <pt x="645" y="64" on="1"/>
        <pt x="725" y="43" on="1"/>
        <pt x="725" y="0" on="1"/>
        <pt x="450" y="0" on="1"/>
        <pt x="450" y="43" on="1"/>
        <pt x="532" y="64" on="1"/>
      </contour>
      <contour>
        <pt x="225" y="300" on="1"/>
        <pt x="454" y="300" on="1"/>
        <pt x="346" y="641" on="1"/>
        <pt x="342" y="641" on="1"/>
      </contour>
      <contour>
        <pt x="528" y="769" on="1"/>
        <pt x="475" y="769" on="1"/>
        <pt x="362" y="830" on="1"/>
        <pt x="249" y="769" on="1"/>
        <pt x="196" y="769" on="1"/>
        <pt x="314" y="890" on="1"/>
        <pt x="409" y="890" on="1"/>
      </contour>
    </TTGlyph>
    <TTGlyph name="Adieresis" xMin="-7" yMin="0" xMax="725" yMax="890">
      <contour>
        <pt x="473" y="242" on="1"/>
        <pt x="205" y="242" on="1"/>
        <pt x="144" y="64" on="1"/>
        <pt x="227" y="43" on="1"/>
        <pt x="227" y="0" on="1"/>
        <pt x="-7" y="0" on="1"/>
        <pt x="-7" y="43" on="1"/>
        <pt x="75" y="64" on="1"/>
        <pt x="315" y="730" on="1"/>
        <pt x="408" y="730" on="1"/>
        <pt x="645" y="64" on="1"/>
        <pt x="725" y="43" on="1"/>
        <pt x="725" y="0" on="1"/>
        <pt x="450" y="0" on="1"/>
        <pt x="450" y="43" on="1"/>
        <pt x="532" y="64" on="1"/>
      </contour>
      <contour>
        <pt x="225" y="300" on="1"/>
        <pt x="454" y="300" on="1"/>
        <pt x="346" y="641" on="1"/>
        <pt x="342" y="641" on="1"/>
      </contour>
      <contour>
        <pt x="189" y="831" on="1"/>
        <pt x="189" y="859" on="0"/>
        <pt x="220" y="890" on="0"/>
        <pt x="247" y="890" on="1"/>
        <pt x="274" y="890" on="0"/>
        <pt x="306" y="858" on="0"/>
        <pt x="306" y="831" on="1"/>
        <pt x="306" y="804" on="0"/>
        <pt x="275" y="773" on="0"/>
        <pt x="247" y="773" on="1"/>
        <pt x="220" y="773" on="0"/>
        <pt x="189" y="804" on="0"/>
      </contour>
      <contour>
        <pt x="419" y="831" on="1"/>
        <pt x="419" y="859" on="0"/>
        <pt x="450" y="890" on="0"/>
        <pt x="477" y="890" on="1"/>
        <pt x="504" y="890" on="0"/>
        <pt x="536" y="858" on="0"/>
        <pt x="536" y="831" on="1"/>
        <pt x="536" y="804" on="0"/>
        <pt x="505" y="773" on="0"/>
        <pt x="477" y="773" on="1"/>
        <pt x="450" y="773" on="0"/>
        <pt x="419" y="804" on="0"/>
      </contour>
    </TTGlyph>
    <TTGlyph name="Agrave" xMin="-7" yMin="0" xMax="725" yMax="895">
      <contour>
        <pt x="473" y="242" on="1"/>
        <pt x="205" y="242" on="1"/>
        <pt x="144" y="64" on="1"/>
        <pt x="227" y="43" on="1"/>
        <pt x="227" y="0" on="1"/>
        <pt x="-7" y="0" on="1"/>
        <pt x="-7" y="43" on="1"/>
        <pt x="75" y="64" on="1"/>
        <pt x="315" y="730" on="1"/>
        <pt x="408" y="730" on="1"/>
        <pt x="645" y="64" on="1"/>
        <pt x="725" y="43" on="1"/>
        <pt x="725" y="0" on="1"/>
        <pt x="450" y="0" on="1"/>
        <pt x="450" y="43" on="1"/>
        <pt x="532" y="64" on="1"/>
      </contour>
      <contour>
        <pt x="225" y="300" on="1"/>
        <pt x="454" y="300" on="1"/>
        <pt x="346" y="641" on="1"/>
        <pt x="342" y="641" on="1"/>
      </contour>
      <contour>
        <pt x="408" y="770" on="1"/>
        <pt x="355" y="770" on="1"/>
        <pt x="308" y="799" on="1"/>
        <pt x="270" y="822" on="0"/>
        <pt x="235" y="849" on="0"/>
        <pt x="235" y="865" on="1"/>
        <pt x="235" y="895" on="0"/>
        <pt x="272" y="895" on="1"/>
        <pt x="291" y="895" on="0"/>
        <pt x="326" y="874" on="0"/>
        <pt x="347" y="847" on="1"/>
      </contour>
    </TTGlyph>
    <TTGlyph name="Amacron" xMin="-7" yMin="0" xMax="725" yMax="861">
      <contour>
        <pt x="473" y="242" on="1"/>
        <pt x="205" y="242" on="1"/>
        <pt x="144" y="64" on="1"/>
        <pt x="227" y="43" on="1"/>
        <pt x="227" y="0" on="1"/>
        <pt x="-7" y="0" on="1"/>
        <pt x="-7" y="43" on="1"/>
        <pt x="75" y="64" on="1"/>
        <pt x="315" y="730" on="1"/>
        <pt x="408" y="730" on="1"/>
        <pt x="645" y="64" on="1"/>
        <pt x="725" y="43" on="1"/>
        <pt x="725" y="0" on="1"/>
        <pt x="450" y="0" on="1"/>
        <pt x="450" y="43" on="1"/>
        <pt x="532" y="64" on="1"/>
      </contour>
      <contour>
        <pt x="225" y="300" on="1"/>
        <pt x="454" y="300" on="1"/>
        <pt x="346" y="641" on="1"/>
        <pt x="342" y="641" on="1"/>
      </contour>
      <contour>
        <pt x="222" y="861" on="1"/>
        <pt x="501" y="861" on="1"/>
        <pt x="501" y="796" on="1"/>
        <pt x="222" y="796" on="1"/>
      </contour>
    </TTGlyph>
    <TTGlyph name="Aogonek" xMin="-7" yMin="-210" xMax="725" yMax="730">
      <contour>
        <pt x="578" y="-210" on="1"/>
        <pt x="533" y="-210" on="0"/>
        <pt x="478" y="-163" on="0"/>
        <pt x="478" y="-125" on="1"/>
        <pt x="478" y="-57" on="0"/>
        <pt x="568" y="0" on="1"/>
        <pt x="450" y="0" on="1"/>
        <pt x="450" y="43" on="1"/>
        <pt x="532" y="64" on="1"/>
        <pt x="473" y="242" on="1"/>
        <pt x="205" y="242" on="1"/>
        <pt x="144" y="64" on="1"/>
        <pt x="227" y="43" on="1"/>
        <pt x="227" y="0" on="1"/>
        <pt x="-7" y="0" on="1"/>
        <pt x="-7" y="43" on="1"/>
        <pt x="75" y="64" on="1"/>
        <pt x="315" y="730" on="1"/>
        <pt x="408" y="730" on="1"/>
        <pt x="645" y="64" on="1"/>
        <pt x="725" y="43" on="1"/>
        <pt x="725" y="0" on="1"/>
        <pt x="614" y="0" on="1"/>
        <pt x="550" y="-50" on="0"/>
        <pt x="550" y="-105" on="1"/>
        <pt x="550" y="-152" on="0"/>
        <pt x="600" y="-152" on="1"/>
        <pt x="618" y="-152" on="0"/>
        <pt x="656" y="-142" on="0"/>
        <pt x="668" y="-132" on="1"/>
        <pt x="683" y="-154" on="1"/>
        <pt x="647" y="-210" on="0"/>
      </contour>
      <contour>
        <pt x="225" y="300" on="1"/>
        <pt x="454" y="300" on="1"/>
        <pt x="346" y="641" on="1"/>
        <pt x="342" y="641" on="1"/>
      </contour>
    </TTGlyph>
    <TTGlyph name="Aring" xMin="-7" yMin="0" xMax="725" yMax="900">
      <contour>
        <pt x="473" y="242" on="1"/>
        <pt x="205" y="242" on="1"/>
        <pt x="144" y="64" on="1"/>
        <pt x="227" y="43" on="1"/>
        <pt x="227" y="0" on="1"/>
        <pt x="-7" y="0" on="1"/>
        <pt x="-7" y="43" on="1"/>
        <pt x="75" y="64" on="1"/>
        <pt x="315" y="730" on="1"/>
        <pt x="408" y="730" on="1"/>
        <pt x="645" y="64" on="1"/>
        <pt x="725" y="43" on="1"/>
        <pt x="725" y="0" on="1"/>
        <pt x="450" y="0" on="1"/>
        <pt x="450" y="43" on="1"/>
        <pt x="532" y="64" on="1"/>
      </contour>
      <contour>
        <pt x="225" y="300" on="1"/>
        <pt x="454" y="300" on="1"/>
        <pt x="346" y="641" on="1"/>
        <pt x="342" y="641" on="1"/>
      </contour>
      <contour>
        <pt x="287" y="824" on="1"/>
        <pt x="287" y="856" on="0"/>
        <pt x="331" y="900" on="0"/>
        <pt x="362" y="900" on="1"/>
        <pt x="394" y="900" on="0"/>
        <pt x="438" y="856" on="0"/>
        <pt x="438" y="824" on="1"/>
        <pt x="438" y="793" on="0"/>
        <pt x="394" y="750" on="0"/>
        <pt x="362" y="750" on="1"/>
        <pt x="331" y="750" on="0"/>
        <pt x="287" y="793" on="0"/>
      </contour>
      <contour>
        <pt x="341" y="824" on="1"/>
        <pt x="341" y="815" on="0"/>
        <pt x="353" y="803" on="0"/>
        <pt x="362" y="803" on="1"/>
        <pt x="372" y="803" on="0"/>
        <pt x="385" y="815" on="0"/>
        <pt x="385" y="824" on="1"/>
        <pt x="385" y="834" on="0"/>
        <pt x="372" y="847" on="0"/>
        <pt x="362" y="847" on="1"/>
        <pt x="353" y="847" on="0"/>
        <pt x="341" y="834" on="0"/>
      </contour>
    </TTGlyph>
    <TTGlyph name="Aringacute" xMin="-7" yMin="0" xMax="725" yMax="900">
      <contour>
        <pt x="473" y="242" on="1"/>
        <pt x="205" y="242" on="1"/>
        <pt x="144" y="64" on="1"/>
        <pt x="227" y="43" on="1"/>
        <pt x="227" y="0" on="1"/>
        <pt x="-7" y="0" on="1"/>
        <pt x="-7" y="43" on="1"/>
        <pt x="75" y="64" on="1"/>
        <pt x="315" y="705" on="1"/>
        <pt x="408" y="705" on="1"/>
        <pt x="645" y="64" on="1"/>
        <pt x="725" y="43" on="1"/>
        <pt x="725" y="0" on="1"/>
        <pt x="450" y="0" on="1"/>
        <pt x="450" y="43" on="1"/>
        <pt x="532" y="64" on="1"/>
      </contour>
      <contour>
        <pt x="225" y="300" on="1"/>
        <pt x="454" y="300" on="1"/>
        <pt x="346" y="626" on="1"/>
        <pt x="342" y="626" on="1"/>
      </contour>
      <contour>
        <pt x="281" y="824" on="1"/>
        <pt x="281" y="856" on="0"/>
        <pt x="325" y="900" on="0"/>
        <pt x="356" y="900" on="1"/>
        <pt x="384" y="900" on="0"/>
        <pt x="405" y="882" on="1"/>
        <pt x="413" y="884" on="0"/>
        <pt x="427" y="886" on="0"/>
        <pt x="434" y="886" on="1"/>
        <pt x="467" y="886" on="0"/>
        <pt x="467" y="865" on="1"/>
        <pt x="467" y="846" on="0"/>
        <pt x="432" y="829" on="1"/>
        <pt x="432" y="824" on="1"/>
        <pt x="432" y="793" on="0"/>
        <pt x="388" y="750" on="0"/>
        <pt x="356" y="750" on="1"/>
        <pt x="339" y="750" on="0"/>
        <pt x="309" y="764" on="0"/>
        <pt x="298" y="776" on="1"/>
        <pt x="285" y="770" on="1"/>
        <pt x="249" y="770" on="1"/>
        <pt x="285" y="801" on="1"/>
        <pt x="281" y="810" on="0"/>
      </contour>
      <contour>
        <pt x="335" y="824" on="1"/>
        <pt x="335" y="815" on="0"/>
        <pt x="347" y="803" on="0"/>
        <pt x="356" y="803" on="1"/>
        <pt x="366" y="803" on="0"/>
        <pt x="379" y="815" on="0"/>
        <pt x="379" y="824" on="1"/>
        <pt x="379" y="834" on="0"/>
        <pt x="366" y="847" on="0"/>
        <pt x="356" y="847" on="1"/>
        <pt x="347" y="847" on="0"/>
        <pt x="335" y="834" on="0"/>
      </contour>
    </TTGlyph>
    <TTGlyph name="Atilde" xMin="-7" yMin="0" xMax="725" yMax="885">
      <contour>
        <pt x="473" y="242" on="1"/>
        <pt x="205" y="242" on="1"/>
        <pt x="144" y="64" on="1"/>
        <pt x="227" y="43" on="1"/>
        <pt x="227" y="0" on="1"/>
        <pt x="-7" y="0" on="1"/>
        <pt x="-7" y="43" on="1"/>
        <pt x="75" y="64" on="1"/>
        <pt x="315" y="730" on="1"/>
        <pt x="408" y="730" on="1"/>
        <pt x="645" y="64" on="1"/>
        <pt x="725" y="43" on="1"/>
        <pt x="725" y="0" on="1"/>
        <pt x="450" y="0" on="1"/>
        <pt x="450" y="43" on="1"/>
        <pt x="532" y="64" on="1"/>
      </contour>
      <contour>
        <pt x="225" y="300" on="1"/>
        <pt x="454" y="300" on="1"/>
        <pt x="346" y="641" on="1"/>
        <pt x="342" y="641" on="1"/>
      </contour>
      <contour>
        <pt x="178" y="770" on="1"/>
        <pt x="194" y="885" on="0"/>
        <pt x="290" y="885" on="1"/>
        <pt x="315" y="885" on="0"/>
        <pt x="353" y="868" on="0"/>
        <pt x="385" y="847" on="0"/>
        <pt x="416" y="830" on="0"/>
        <pt x="436" y="830" on="1"/>
        <pt x="466" y="830" on="0"/>
        <pt x="496" y="856" on="0"/>
        <pt x="501" y="880" on="1"/>
        <pt x="546" y="880" on="1"/>
        <pt x="528" y="759" on="0"/>
        <pt x="434" y="759" on="1"/>
        <pt x="409" y="759" on="0"/>
        <pt x="372" y="776" on="0"/>
        <pt x="339" y="797" on="0"/>
        <pt x="307" y="815" on="0"/>
        <pt x="288" y="815" on="1"/>
        <pt x="258" y="815" on="0"/>
        <pt x="228" y="791" on="0"/>
        <pt x="223" y="770" on="1"/>
      </contour>
    </TTGlyph>
    <TTGlyph name="B" xMin="48" yMin="0" xMax="635" yMax="720">
      <contour>
        <pt x="601" y="547" on="1"/>
        <pt x="601" y="518" on="0"/>
        <pt x="581" y="466" on="0"/>
        <pt x="545" y="425" on="0"/>
        <pt x="496" y="398" on="0"/>
        <pt x="467" y="394" on="1"/>
        <pt x="467" y="390" on="1"/>
        <pt x="545" y="373" on="0"/>
        <pt x="635" y="274" on="0"/>
        <pt x="635" y="201" on="1"/>
        <pt x="635" y="144" on="0"/>
        <pt x="576" y="50" on="0"/>
        <pt x="531" y="27" on="1"/>
        <pt x="517" y="20" on="0"/>
        <pt x="484" y="10" on="0"/>
        <pt x="440" y="3" on="0"/>
        <pt x="384" y="0" on="0"/>
        <pt x="347" y="0" on="1"/>
        <pt x="48" y="0" on="1"/>
        <pt x="48" y="43" on="1"/>
        <pt x="132" y="64" on="1"/>
        <pt x="132" y="656" on="1"/>
        <pt x="48" y="677" on="1"/>
        <pt x="48" y="720" on="1"/>
        <pt x="384" y="720" on="1"/>
        <pt x="489" y="720" on="0"/>
        <pt x="546" y="669" on="1"/>
        <pt x="572" y="645" on="0"/>
        <pt x="601" y="581" on="0"/>
      </contour>
      <contour>
        <pt x="232" y="347" on="1"/>
        <pt x="232" y="60" on="1"/>
        <pt x="342" y="60" on="1"/>
        <pt x="388" y="60" on="0"/>
        <pt x="444" y="70" on="0"/>
        <pt x="463" y="81" on="1"/>
        <pt x="490" y="97" on="0"/>
        <pt x="524" y="161" on="0"/>
        <pt x="524" y="206" on="1"/>
        <pt x="524" y="244" on="0"/>
        <pt x="498" y="301" on="0"/>
        <pt x="478" y="318" on="1"/>
        <pt x="460" y="333" on="0"/>
        <pt x="404" y="347" on="0"/>
        <pt x="360" y="347" on="1"/>
      </contour>
      <contour>
        <pt x="232" y="405" on="1"/>
        <pt x="357" y="405" on="1"/>
        <pt x="427" y="405" on="0"/>
        <pt x="460" y="440" on="1"/>
        <pt x="475" y="456" on="0"/>
        <pt x="497" y="505" on="0"/>
        <pt x="497" y="537" on="1"/>
        <pt x="497" y="568" on="0"/>
        <pt x="475" y="617" on="0"/>
        <pt x="460" y="632" on="1"/>
        <pt x="430" y="662" on="0"/>
        <pt x="361" y="662" on="1"/>
        <pt x="232" y="662" on="1"/>
      </contour>
    </TTGlyph>
    <TTGlyph name="C" xMin="53" yMin="-10" xMax="648" yMax="730">
      <contour>
        <pt x="371" y="676" on="1"/>
        <pt x="276" y="676" on="0"/>
        <pt x="229" y="614" on="1"/>
        <pt x="199" y="575" on="0"/>
        <pt x="165" y="448" on="0"/>
        <pt x="165" y="372" on="1"/>
        <pt x="165" y="300" on="0"/>
        <pt x="195" y="177" on="0"/>
        <pt x="222" y="135" on="1"/>
        <pt x="249" y="93" on="0"/>
        <pt x="326" y="54" on="0"/>
        <pt x="384" y="54" on="1"/>
        <pt x="473" y="54" on="0"/>
        <pt x="579" y="139" on="0"/>
        <pt x="593" y="223" on="1"/>
        <pt x="648" y="223" on="1"/>
        <pt x="625" y="105" on="0"/>
        <pt x="491" y="-10" on="0"/>
        <pt x="374" y="-10" on="1"/>
        <pt x="236" y="-10" on="0"/>
        <pt x="154" y="70" on="1"/>
        <pt x="105" y="118" on="0"/>
        <pt x="53" y="263" on="0"/>
        <pt x="53" y="353" on="1"/>
        <pt x="53" y="454" on="0"/>
        <pt x="119" y="617" on="0"/>
        <pt x="179" y="667" on="1"/>
        <pt x="255" y="730" on="0"/>
        <pt x="380" y="730" on="1"/>
        <pt x="411" y="730" on="0"/>
        <pt x="460" y="723" on="0"/>
        <pt x="502" y="706" on="0"/>
        <pt x="539" y="678" on="0"/>
        <pt x="558" y="657" on="1"/>
        <pt x="578" y="720" on="1"/>
        <pt x="633" y="720" on="1"/>
        <pt x="633" y="499" on="1"/>
        <pt x="572" y="499" on="1"/>
        <pt x="543" y="676" on="0"/>
      </contour>
    </TTGlyph>
    <TTGlyph name="Cacute" xMin="53" yMin="-10" xMax="648" yMax="895">
      <contour>
        <pt x="371" y="676" on="1"/>
        <pt x="276" y="676" on="0"/>
        <pt x="229" y="614" on="1"/>
        <pt x="199" y="575" on="0"/>
        <pt x="165" y="448" on="0"/>
        <pt x="165" y="372" on="1"/>
        <pt x="165" y="300" on="0"/>
        <pt x="195" y="177" on="0"/>
        <pt x="222" y="135" on="1"/>
        <pt x="249" y="93" on="0"/>
        <pt x="326" y="54" on="0"/>
        <pt x="384" y="54" on="1"/>
        <pt x="473" y="54" on="0"/>
        <pt x="579" y="139" on="0"/>
        <pt x="593" y="223" on="1"/>
        <pt x="648" y="223" on="1"/>
        <pt x="625" y="105" on="0"/>
        <pt x="491" y="-10" on="0"/>
        <pt x="374" y="-10" on="1"/>
        <pt x="236" y="-10" on="0"/>
        <pt x="154" y="70" on="1"/>
        <pt x="105" y="118" on="0"/>
        <pt x="53" y="263" on="0"/>
        <pt x="53" y="353" on="1"/>
        <pt x="53" y="454" on="0"/>
        <pt x="119" y="617" on="0"/>
        <pt x="179" y="667" on="1"/>
        <pt x="255" y="730" on="0"/>
        <pt x="380" y="730" on="1"/>
        <pt x="411" y="730" on="0"/>
        <pt x="460" y="723" on="0"/>
        <pt x="502" y="706" on="0"/>
        <pt x="539" y="678" on="0"/>
        <pt x="558" y="657" on="1"/>
        <pt x="578" y="720" on="1"/>
        <pt x="633" y="720" on="1"/>
        <pt x="633" y="499" on="1"/>
        <pt x="572" y="499" on="1"/>
        <pt x="543" y="676" on="0"/>
      </contour>
      <contour>
        <pt x="416" y="847" on="1"/>
        <pt x="437" y="874" on="0"/>
        <pt x="472" y="895" on="0"/>
        <pt x="491" y="895" on="1"/>
        <pt x="528" y="895" on="0"/>
        <pt x="528" y="865" on="1"/>
        <pt x="528" y="849" on="0"/>
        <pt x="493" y="822" on="0"/>
        <pt x="455" y="799" on="1"/>
        <pt x="408" y="770" on="1"/>
        <pt x="355" y="770" on="1"/>
      </contour>
    </TTGlyph>
    <TTGlyph name="Ccaron" xMin="53" yMin="-10" xMax="648" yMax="890">
      <contour>
        <pt x="371" y="676" on="1"/>
        <pt x="276" y="676" on="0"/>
        <pt x="229" y="614" on="1"/>
        <pt x="199" y="575" on="0"/>
        <pt x="165" y="448" on="0"/>
        <pt x="165" y="372" on="1"/>
        <pt x="165" y="300" on="0"/>
        <pt x="195" y="177" on="0"/>
        <pt x="222" y="135" on="1"/>
        <pt x="249" y="93" on="0"/>
        <pt x="326" y="54" on="0"/>
        <pt x="384" y="54" on="1"/>
        <pt x="473" y="54" on="0"/>
        <pt x="579" y="139" on="0"/>
        <pt x="593" y="223" on="1"/>
        <pt x="648" y="223" on="1"/>
        <pt x="625" y="105" on="0"/>
        <pt x="491" y="-10" on="0"/>
        <pt x="374" y="-10" on="1"/>
        <pt x="236" y="-10" on="0"/>
        <pt x="154" y="70" on="1"/>
        <pt x="105" y="118" on="0"/>
        <pt x="53" y="263" on="0"/>
        <pt x="53" y="353" on="1"/>
        <pt x="53" y="454" on="0"/>
        <pt x="119" y="617" on="0"/>
        <pt x="179" y="667" on="1"/>
        <pt x="255" y="730" on="0"/>
        <pt x="380" y="730" on="1"/>
        <pt x="411" y="730" on="0"/>
        <pt x="460" y="723" on="0"/>
        <pt x="502" y="706" on="0"/>
        <pt x="539" y="678" on="0"/>
        <pt x="558" y="657" on="1"/>
        <pt x="578" y="720" on="1"/>
        <pt x="633" y="720" on="1"/>
        <pt x="633" y="499" on="1"/>
        <pt x="572" y="499" on="1"/>
        <pt x="543" y="676" on="0"/>
      </contour>
      <contour>
        <pt x="429" y="769" on="1"/>
        <pt x="334" y="769" on="1"/>
        <pt x="216" y="890" on="1"/>
        <pt x="269" y="890" on="1"/>
        <pt x="382" y="829" on="1"/>
        <pt x="495" y="890" on="1"/>
        <pt x="548" y="890" on="1"/>
      </contour>
    </TTGlyph>
    <TTGlyph name="Ccedilla" xMin="53" yMin="-210" xMax="648" yMax="730">
      <contour>
        <pt x="354" y="-210" on="1"/>
        <pt x="301" y="-210" on="0"/>
        <pt x="263" y="-182" on="1"/>
        <pt x="290" y="-145" on="1"/>
        <pt x="319" y="-165" on="0"/>
        <pt x="349" y="-165" on="1"/>
        <pt x="370" y="-165" on="0"/>
        <pt x="396" y="-145" on="0"/>
        <pt x="396" y="-129" on="1"/>
        <pt x="396" y="-99" on="0"/>
        <pt x="342" y="-99" on="1"/>
        <pt x="321" y="-99" on="0"/>
        <pt x="300" y="-105" on="1"/>
        <pt x="287" y="-83" on="1"/>
        <pt x="344" y="-9" on="1"/>
        <pt x="225" y="0" on="0"/>
        <pt x="154" y="70" on="1"/>
        <pt x="105" y="118" on="0"/>
        <pt x="53" y="263" on="0"/>
        <pt x="53" y="353" on="1"/>
        <pt x="53" y="454" on="0"/>
        <pt x="119" y="617" on="0"/>
        <pt x="179" y="667" on="1"/>
        <pt x="255" y="730" on="0"/>
        <pt x="380" y="730" on="1"/>
        <pt x="411" y="730" on="0"/>
        <pt x="460" y="723" on="0"/>
        <pt x="502" y="706" on="0"/>
        <pt x="539" y="678" on="0"/>
        <pt x="558" y="657" on="1"/>
        <pt x="578" y="720" on="1"/>
        <pt x="633" y="720" on="1"/>
        <pt x="633" y="499" on="1"/>
        <pt x="572" y="499" on="1"/>
        <pt x="543" y="676" on="0"/>
        <pt x="371" y="676" on="1"/>
        <pt x="276" y="676" on="0"/>
        <pt x="229" y="614" on="1"/>
        <pt x="199" y="575" on="0"/>
        <pt x="165" y="448" on="0"/>
        <pt x="165" y="372" on="1"/>
        <pt x="165" y="300" on="0"/>
        <pt x="195" y="177" on="0"/>
        <pt x="222" y="135" on="1"/>
        <pt x="249" y="93" on="0"/>
        <pt x="326" y="54" on="0"/>
        <pt x="384" y="54" on="1"/>
        <pt x="473" y="54" on="0"/>
        <pt x="579" y="139" on="0"/>
        <pt x="593" y="223" on="1"/>
        <pt x="648" y="223" on="1"/>
        <pt x="626" y="109" on="0"/>
        <pt x="501" y="-5" on="0"/>
        <pt x="392" y="-9" on="1"/>
        <pt x="362" y="-59" on="1"/>
        <pt x="363" y="-62" on="1"/>
        <pt x="419" y="-62" on="0"/>
        <pt x="467" y="-94" on="0"/>
        <pt x="467" y="-126" on="1"/>
        <pt x="467" y="-167" on="0"/>
        <pt x="401" y="-210" on="0"/>
      </contour>
    </TTGlyph>
    <TTGlyph name="Ccircumflex" xMin="53" yMin="-10" xMax="648" yMax="890">
      <contour>
        <pt x="371" y="676" on="1"/>
        <pt x="276" y="676" on="0"/>
        <pt x="229" y="614" on="1"/>
        <pt x="199" y="575" on="0"/>
        <pt x="165" y="448" on="0"/>
        <pt x="165" y="372" on="1"/>
        <pt x="165" y="300" on="0"/>
        <pt x="195" y="177" on="0"/>
        <pt x="222" y="135" on="1"/>
        <pt x="249" y="93" on="0"/>
        <pt x="326" y="54" on="0"/>
        <pt x="384" y="54" on="1"/>
        <pt x="473" y="54" on="0"/>
        <pt x="579" y="139" on="0"/>
        <pt x="593" y="223" on="1"/>
        <pt x="648" y="223" on="1"/>
        <pt x="625" y="105" on="0"/>
        <pt x="491" y="-10" on="0"/>
        <pt x="374" y="-10" on="1"/>
        <pt x="236" y="-10" on="0"/>
        <pt x="154" y="70" on="1"/>
        <pt x="105" y="118" on="0"/>
        <pt x="53" y="263" on="0"/>
        <pt x="53" y="353" on="1"/>
        <pt x="53" y="454" on="0"/>
        <pt x="119" y="617" on="0"/>
        <pt x="179" y="667" on="1"/>
        <pt x="255" y="730" on="0"/>
        <pt x="380" y="730" on="1"/>
        <pt x="411" y="730" on="0"/>
        <pt x="460" y="723" on="0"/>
        <pt x="502" y="706" on="0"/>
        <pt x="539" y="678" on="0"/>
        <pt x="558" y="657" on="1"/>
        <pt x="578" y="720" on="1"/>
        <pt x="633" y="720" on="1"/>
        <pt x="633" y="499" on="1"/>
        <pt x="572" y="499" on="1"/>
        <pt x="543" y="676" on="0"/>
      </contour>
      <contour>
        <pt x="548" y="769" on="1"/>
        <pt x="495" y="769" on="1"/>
        <pt x="382" y="830" on="1"/>
        <pt x="269" y="769" on="1"/>
        <pt x="216" y="769" on="1"/>
        <pt x="334" y="890" on="1"/>
        <pt x="429" y="890" on="1"/>
      </contour>
    </TTGlyph>
    <TTGlyph name="Cdotaccent" xMin="53" yMin="-10" xMax="648" yMax="895">
      <contour>
        <pt x="371" y="676" on="1"/>
        <pt x="276" y="676" on="0"/>
        <pt x="229" y="614" on="1"/>
        <pt x="199" y="575" on="0"/>
        <pt x="165" y="448" on="0"/>
        <pt x="165" y="372" on="1"/>
        <pt x="165" y="300" on="0"/>
        <pt x="195" y="177" on="0"/>
        <pt x="222" y="135" on="1"/>
        <pt x="249" y="93" on="0"/>
        <pt x="326" y="54" on="0"/>
        <pt x="384" y="54" on="1"/>
        <pt x="473" y="54" on="0"/>
        <pt x="579" y="139" on="0"/>
        <pt x="593" y="223" on="1"/>
        <pt x="648" y="223" on="1"/>
        <pt x="625" y="105" on="0"/>
        <pt x="491" y="-10" on="0"/>
        <pt x="374" y="-10" on="1"/>
        <pt x="236" y="-10" on="0"/>
        <pt x="154" y="70" on="1"/>
        <pt x="105" y="118" on="0"/>
        <pt x="53" y="263" on="0"/>
        <pt x="53" y="353" on="1"/>
        <pt x="53" y="454" on="0"/>
        <pt x="119" y="617" on="0"/>
        <pt x="179" y="667" on="1"/>
        <pt x="255" y="730" on="0"/>
        <pt x="380" y="730" on="1"/>
        <pt x="411" y="730" on="0"/>
        <pt x="460" y="723" on="0"/>
        <pt x="502" y="706" on="0"/>
        <pt x="539" y="678" on="0"/>
        <pt x="558" y="657" on="1"/>
        <pt x="578" y="720" on="1"/>
        <pt x="633" y="720" on="1"/>
        <pt x="633" y="499" on="1"/>
        <pt x="572" y="499" on="1"/>
        <pt x="543" y="676" on="0"/>
      </contour>
      <contour>
        <pt x="320" y="832" on="1"/>
        <pt x="320" y="861" on="0"/>
        <pt x="353" y="895" on="0"/>
        <pt x="382" y="895" on="1"/>
        <pt x="411" y="895" on="0"/>
        <pt x="445" y="861" on="0"/>
        <pt x="445" y="832" on="1"/>
        <pt x="445" y="803" on="0"/>
        <pt x="411" y="770" on="0"/>
        <pt x="382" y="770" on="1"/>
        <pt x="353" y="770" on="0"/>
        <pt x="320" y="803" on="0"/>
      </contour>
    </TTGlyph>
    <TTGlyph name="D" xMin="48" yMin="0" xMax="713" yMax="720">
      <contour>
        <pt x="387" y="60" on="1"/>
        <pt x="493" y="60" on="0"/>
        <pt x="543" y="126" on="1"/>
        <pt x="598" y="196" on="0"/>
        <pt x="598" y="354" on="1"/>
        <pt x="598" y="510" on="0"/>
        <pt x="543" y="586" on="1"/>
        <pt x="491" y="660" on="0"/>
        <pt x="377" y="660" on="1"/>
        <pt x="232" y="660" on="1"/>
        <pt x="232" y="60" on="1"/>
      </contour>
      <contour>
        <pt x="384" y="720" on="1"/>
        <pt x="533" y="720" on="0"/>
        <pt x="616" y="636" on="1"/>
        <pt x="663" y="588" on="0"/>
        <pt x="713" y="448" on="0"/>
        <pt x="713" y="368" on="1"/>
        <pt x="713" y="283" on="0"/>
        <pt x="661" y="137" on="0"/>
        <pt x="613" y="87" on="1"/>
        <pt x="571" y="42" on="0"/>
        <pt x="455" y="0" on="0"/>
        <pt x="375" y="0" on="1"/>
        <pt x="48" y="0" on="1"/>
        <pt x="48" y="43" on="1"/>
        <pt x="132" y="64" on="1"/>
        <pt x="132" y="656" on="1"/>
        <pt x="48" y="677" on="1"/>
        <pt x="48" y="720" on="1"/>
      </contour>
    </TTGlyph>
    <TTGlyph name="Dcaron" xMin="48" yMin="0" xMax="713" yMax="890">
      <contour>
        <pt x="387" y="60" on="1"/>
        <pt x="493" y="60" on="0"/>
        <pt x="543" y="126" on="1"/>
        <pt x="598" y="196" on="0"/>
        <pt x="598" y="354" on="1"/>
        <pt x="598" y="510" on="0"/>
        <pt x="543" y="586" on="1"/>
        <pt x="491" y="660" on="0"/>
        <pt x="377" y="660" on="1"/>
        <pt x="232" y="660" on="1"/>
        <pt x="232" y="60" on="1"/>
      </contour>
      <contour>
        <pt x="384" y="720" on="1"/>
        <pt x="533" y="720" on="0"/>
        <pt x="616" y="636" on="1"/>
        <pt x="663" y="588" on="0"/>
        <pt x="713" y="448" on="0"/>
        <pt x="713" y="368" on="1"/>
        <pt x="713" y="283" on="0"/>
        <pt x="661" y="137" on="0"/>
        <pt x="613" y="87" on="1"/>
        <pt x="571" y="42" on="0"/>
        <pt x="455" y="0" on="0"/>
        <pt x="375" y="0" on="1"/>
        <pt x="48" y="0" on="1"/>
        <pt x="48" y="43" on="1"/>
        <pt x="132" y="64" on="1"/>
        <pt x="132" y="656" on="1"/>
        <pt x="48" y="677" on="1"/>
        <pt x="48" y="720" on="1"/>
      </contour>
      <contour>
        <pt x="409" y="769" on="1"/>
        <pt x="314" y="769" on="1"/>
        <pt x="196" y="890" on="1"/>
        <pt x="249" y="890" on="1"/>
        <pt x="362" y="829" on="1"/>
        <pt x="475" y="890" on="1"/>
        <pt x="528" y="890" on="1"/>
      </contour>
    </TTGlyph>
    <TTGlyph name="Dcroat" xMin="53" yMin="0" xMax="718" yMax="720">
      <contour>
        <pt x="53" y="397" on="1"/>
        <pt x="137" y="397" on="1"/>
        <pt x="137" y="656" on="1"/>
        <pt x="53" y="677" on="1"/>
        <pt x="53" y="720" on="1"/>
        <pt x="389" y="720" on="1"/>
        <pt x="538" y="720" on="0"/>
        <pt x="621" y="636" on="1"/>
        <pt x="668" y="588" on="0"/>
        <pt x="718" y="448" on="0"/>
        <pt x="718" y="368" on="1"/>
        <pt x="718" y="283" on="0"/>
        <pt x="666" y="137" on="0"/>
        <pt x="618" y="87" on="1"/>
        <pt x="576" y="42" on="0"/>
        <pt x="460" y="0" on="0"/>
        <pt x="380" y="0" on="1"/>
        <pt x="53" y="0" on="1"/>
        <pt x="53" y="43" on="1"/>
        <pt x="137" y="64" on="1"/>
        <pt x="137" y="332" on="1"/>
        <pt x="53" y="332" on="1"/>
      </contour>
      <contour>
        <pt x="392" y="60" on="1"/>
        <pt x="498" y="60" on="0"/>
        <pt x="548" y="126" on="1"/>
        <pt x="603" y="196" on="0"/>
        <pt x="603" y="354" on="1"/>
        <pt x="603" y="510" on="0"/>
        <pt x="548" y="586" on="1"/>
        <pt x="496" y="660" on="0"/>
        <pt x="382" y="660" on="1"/>
        <pt x="237" y="660" on="1"/>
        <pt x="237" y="397" on="1"/>
        <pt x="382" y="397" on="1"/>
        <pt x="382" y="332" on="1"/>
        <pt x="237" y="332" on="1"/>
        <pt x="237" y="60" on="1"/>
      </contour>
    </TTGlyph>
    <TTGlyph name="Ddotbelow" xMin="48" yMin="-190" xMax="713" yMax="720">
      <contour>
        <pt x="387" y="60" on="1"/>
        <pt x="493" y="60" on="0"/>
        <pt x="543" y="126" on="1"/>
        <pt x="598" y="196" on="0"/>
        <pt x="598" y="354" on="1"/>
        <pt x="598" y="510" on="0"/>
        <pt x="543" y="586" on="1"/>
        <pt x="491" y="660" on="0"/>
        <pt x="377" y="660" on="1"/>
        <pt x="232" y="660" on="1"/>
        <pt x="232" y="60" on="1"/>
      </contour>
      <contour>
        <pt x="384" y="720" on="1"/>
        <pt x="533" y="720" on="0"/>
        <pt x="616" y="636" on="1"/>
        <pt x="663" y="588" on="0"/>
        <pt x="713" y="448" on="0"/>
        <pt x="713" y="368" on="1"/>
        <pt x="713" y="283" on="0"/>
        <pt x="661" y="137" on="0"/>
        <pt x="613" y="87" on="1"/>
        <pt x="571" y="42" on="0"/>
        <pt x="455" y="0" on="0"/>
        <pt x="375" y="0" on="1"/>
        <pt x="48" y="0" on="1"/>
        <pt x="48" y="43" on="1"/>
        <pt x="132" y="64" on="1"/>
        <pt x="132" y="656" on="1"/>
        <pt x="48" y="677" on="1"/>
        <pt x="48" y="720" on="1"/>
      </contour>
      <contour>
        <pt x="265" y="-128" on="1"/>
        <pt x="265" y="-99" on="0"/>
        <pt x="298" y="-65" on="0"/>
        <pt x="327" y="-65" on="1"/>
        <pt x="356" y="-65" on="0"/>
        <pt x="390" y="-99" on="0"/>
        <pt x="390" y="-128" on="1"/>
        <pt x="390" y="-157" on="0"/>
        <pt x="356" y="-190" on="0"/>
        <pt x="327" y="-190" on="1"/>
        <pt x="298" y="-190" on="0"/>
        <pt x="265" y="-157" on="0"/>
      </contour>
    </TTGlyph>
    <TTGlyph name="E" xMin="43" yMin="0" xMax="628" yMax="720">
      <contour>
        <pt x="421" y="238" on="1"/>
        <pt x="403" y="340" on="1"/>
        <pt x="237" y="340" on="1"/>
        <pt x="237" y="60" on="1"/>
        <pt x="539" y="60" on="1"/>
        <pt x="570" y="223" on="1"/>
        <pt x="628" y="223" on="1"/>
        <pt x="628" y="0" on="1"/>
        <pt x="43" y="0" on="1"/>
        <pt x="43" y="43" on="1"/>
        <pt x="137" y="64" on="1"/>
        <pt x="137" y="656" on="1"/>
        <pt x="43" y="677" on="1"/>
        <pt x="43" y="720" on="1"/>
        <pt x="606" y="720" on="1"/>
        <pt x="606" y="508" on="1"/>
        <pt x="554" y="508" on="1"/>
        <pt x="522" y="662" on="1"/>
        <pt x="237" y="662" on="1"/>
        <pt x="237" y="400" on="1"/>
        <pt x="403" y="400" on="1"/>
        <pt x="421" y="502" on="1"/>
        <pt x="472" y="502" on="1"/>
        <pt x="472" y="238" on="1"/>
      </contour>
    </TTGlyph>
    <TTGlyph name="Eacute" xMin="43" yMin="0" xMax="628" yMax="895">
      <contour>
        <pt x="421" y="238" on="1"/>
        <pt x="403" y="340" on="1"/>
        <pt x="237" y="340" on="1"/>
        <pt x="237" y="60" on="1"/>
        <pt x="539" y="60" on="1"/>
        <pt x="570" y="223" on="1"/>
        <pt x="628" y="223" on="1"/>
        <pt x="628" y="0" on="1"/>
        <pt x="43" y="0" on="1"/>
        <pt x="43" y="43" on="1"/>
        <pt x="137" y="64" on="1"/>
        <pt x="137" y="656" on="1"/>
        <pt x="43" y="677" on="1"/>
        <pt x="43" y="720" on="1"/>
        <pt x="606" y="720" on="1"/>
        <pt x="606" y="508" on="1"/>
        <pt x="554" y="508" on="1"/>
        <pt x="522" y="662" on="1"/>
        <pt x="237" y="662" on="1"/>
        <pt x="237" y="400" on="1"/>
        <pt x="403" y="400" on="1"/>
        <pt x="421" y="502" on="1"/>
        <pt x="472" y="502" on="1"/>
        <pt x="472" y="238" on="1"/>
      </contour>
      <contour>
        <pt x="380" y="847" on="1"/>
        <pt x="401" y="874" on="0"/>
        <pt x="436" y="895" on="0"/>
        <pt x="455" y="895" on="1"/>
        <pt x="492" y="895" on="0"/>
        <pt x="492" y="865" on="1"/>
        <pt x="492" y="849" on="0"/>
        <pt x="457" y="822" on="0"/>
        <pt x="419" y="799" on="1"/>
        <pt x="372" y="770" on="1"/>
        <pt x="319" y="770" on="1"/>
      </contour>
    </TTGlyph>
    <TTGlyph name="Ebreve" xMin="43" yMin="0" xMax="628" yMax="890">
      <contour>
        <pt x="421" y="238" on="1"/>
        <pt x="403" y="340" on="1"/>
        <pt x="237" y="340" on="1"/>
        <pt x="237" y="60" on="1"/>
        <pt x="539" y="60" on="1"/>
        <pt x="570" y="223" on="1"/>
        <pt x="628" y="223" on="1"/>
        <pt x="628" y="0" on="1"/>
        <pt x="43" y="0" on="1"/>
        <pt x="43" y="43" on="1"/>
        <pt x="137" y="64" on="1"/>
        <pt x="137" y="656" on="1"/>
        <pt x="43" y="677" on="1"/>
        <pt x="43" y="720" on="1"/>
        <pt x="606" y="720" on="1"/>
        <pt x="606" y="508" on="1"/>
        <pt x="554" y="508" on="1"/>
        <pt x="522" y="662" on="1"/>
        <pt x="237" y="662" on="1"/>
        <pt x="237" y="400" on="1"/>
        <pt x="403" y="400" on="1"/>
        <pt x="421" y="502" on="1"/>
        <pt x="472" y="502" on="1"/>
        <pt x="472" y="238" on="1"/>
      </contour>
      <contour>
        <pt x="499" y="890" on="1"/>
        <pt x="497" y="823" on="0"/>
        <pt x="411" y="749" on="0"/>
        <pt x="346" y="749" on="1"/>
        <pt x="278" y="749" on="0"/>
        <pt x="205" y="827" on="0"/>
        <pt x="205" y="890" on="1"/>
        <pt x="253" y="890" on="1"/>
        <pt x="255" y="852" on="0"/>
        <pt x="307" y="818" on="0"/>
        <pt x="346" y="818" on="1"/>
        <pt x="396" y="818" on="0"/>
        <pt x="451" y="852" on="0"/>
        <pt x="451" y="890" on="1"/>
      </contour>
    </TTGlyph>
    <TTGlyph name="Ecaron" xMin="43" yMin="0" xMax="628" yMax="890">
      <contour>
        <pt x="421" y="238" on="1"/>
        <pt x="403" y="340" on="1"/>
        <pt x="237" y="340" on="1"/>
        <pt x="237" y="60" on="1"/>
        <pt x="539" y="60" on="1"/>
        <pt x="570" y="223" on="1"/>
        <pt x="628" y="223" on="1"/>
        <pt x="628" y="0" on="1"/>
        <pt x="43" y="0" on="1"/>
        <pt x="43" y="43" on="1"/>
        <pt x="137" y="64" on="1"/>
        <pt x="137" y="656" on="1"/>
        <pt x="43" y="677" on="1"/>
        <pt x="43" y="720" on="1"/>
        <pt x="606" y="720" on="1"/>
        <pt x="606" y="508" on="1"/>
        <pt x="554" y="508" on="1"/>
        <pt x="522" y="662" on="1"/>
        <pt x="237" y="662" on="1"/>
        <pt x="237" y="400" on="1"/>
        <pt x="403" y="400" on="1"/>
        <pt x="421" y="502" on="1"/>
        <pt x="472" y="502" on="1"/>
        <pt x="472" y="238" on="1"/>
      </contour>
      <contour>
        <pt x="412" y="769" on="1"/>
        <pt x="317" y="769" on="1"/>
        <pt x="199" y="890" on="1"/>
        <pt x="252" y="890" on="1"/>
        <pt x="365" y="829" on="1"/>
        <pt x="478" y="890" on="1"/>
        <pt x="531" y="890" on="1"/>
      </contour>
    </TTGlyph>
    <TTGlyph name="Ecircumflex" xMin="43" yMin="0" xMax="628" yMax="890">
      <contour>
        <pt x="421" y="238" on="1"/>
        <pt x="403" y="340" on="1"/>
        <pt x="237" y="340" on="1"/>
        <pt x="237" y="60" on="1"/>
        <pt x="539" y="60" on="1"/>
        <pt x="570" y="223" on="1"/>
        <pt x="628" y="223" on="1"/>
        <pt x="628" y="0" on="1"/>
        <pt x="43" y="0" on="1"/>
        <pt x="43" y="43" on="1"/>
        <pt x="137" y="64" on="1"/>
        <pt x="137" y="656" on="1"/>
        <pt x="43" y="677" on="1"/>
        <pt x="43" y="720" on="1"/>
        <pt x="606" y="720" on="1"/>
        <pt x="606" y="508" on="1"/>
        <pt x="554" y="508" on="1"/>
        <pt x="522" y="662" on="1"/>
        <pt x="237" y="662" on="1"/>
        <pt x="237" y="400" on="1"/>
        <pt x="403" y="400" on="1"/>
        <pt x="421" y="502" on="1"/>
        <pt x="472" y="502" on="1"/>
        <pt x="472" y="238" on="1"/>
      </contour>
      <contour>
        <pt x="512" y="769" on="1"/>
        <pt x="459" y="769" on="1"/>
        <pt x="346" y="830" on="1"/>
        <pt x="233" y="769" on="1"/>
        <pt x="180" y="769" on="1"/>
        <pt x="298" y="890" on="1"/>
        <pt x="393" y="890" on="1"/>
      </contour>
    </TTGlyph>
    <TTGlyph name="Edieresis" xMin="43" yMin="0" xMax="628" yMax="890">
      <contour>
        <pt x="421" y="238" on="1"/>
        <pt x="403" y="340" on="1"/>
        <pt x="237" y="340" on="1"/>
        <pt x="237" y="60" on="1"/>
        <pt x="539" y="60" on="1"/>
        <pt x="570" y="223" on="1"/>
        <pt x="628" y="223" on="1"/>
        <pt x="628" y="0" on="1"/>
        <pt x="43" y="0" on="1"/>
        <pt x="43" y="43" on="1"/>
        <pt x="137" y="64" on="1"/>
        <pt x="137" y="656" on="1"/>
        <pt x="43" y="677" on="1"/>
        <pt x="43" y="720" on="1"/>
        <pt x="606" y="720" on="1"/>
        <pt x="606" y="508" on="1"/>
        <pt x="554" y="508" on="1"/>
        <pt x="522" y="662" on="1"/>
        <pt x="237" y="662" on="1"/>
        <pt x="237" y="400" on="1"/>
        <pt x="403" y="400" on="1"/>
        <pt x="421" y="502" on="1"/>
        <pt x="472" y="502" on="1"/>
        <pt x="472" y="238" on="1"/>
      </contour>
      <contour>
        <pt x="173" y="831" on="1"/>
        <pt x="173" y="859" on="0"/>
        <pt x="204" y="890" on="0"/>
        <pt x="231" y="890" on="1"/>
        <pt x="258" y="890" on="0"/>
        <pt x="290" y="858" on="0"/>
        <pt x="290" y="831" on="1"/>
        <pt x="290" y="804" on="0"/>
        <pt x="259" y="773" on="0"/>
        <pt x="231" y="773" on="1"/>
        <pt x="204" y="773" on="0"/>
        <pt x="173" y="804" on="0"/>
      </contour>
      <contour>
        <pt x="403" y="831" on="1"/>
        <pt x="403" y="859" on="0"/>
        <pt x="434" y="890" on="0"/>
        <pt x="461" y="890" on="1"/>
        <pt x="488" y="890" on="0"/>
        <pt x="520" y="858" on="0"/>
        <pt x="520" y="831" on="1"/>
        <pt x="520" y="804" on="0"/>
        <pt x="489" y="773" on="0"/>
        <pt x="461" y="773" on="1"/>
        <pt x="434" y="773" on="0"/>
        <pt x="403" y="804" on="0"/>
      </contour>
    </TTGlyph>
    <TTGlyph name="Edotaccent" xMin="43" yMin="0" xMax="628" yMax="895">
      <contour>
        <pt x="421" y="238" on="1"/>
        <pt x="403" y="340" on="1"/>
        <pt x="237" y="340" on="1"/>
        <pt x="237" y="60" on="1"/>
        <pt x="539" y="60" on="1"/>
        <pt x="570" y="223" on="1"/>
        <pt x="628" y="223" on="1"/>
        <pt x="628" y="0" on="1"/>
        <pt x="43" y="0" on="1"/>
        <pt x="43" y="43" on="1"/>
        <pt x="137" y="64" on="1"/>
        <pt x="137" y="656" on="1"/>
        <pt x="43" y="677" on="1"/>
        <pt x="43" y="720" on="1"/>
        <pt x="606" y="720" on="1"/>
        <pt x="606" y="508" on="1"/>
        <pt x="554" y="508" on="1"/>
        <pt x="522" y="662" on="1"/>
        <pt x="237" y="662" on="1"/>
        <pt x="237" y="400" on="1"/>
        <pt x="403" y="400" on="1"/>
        <pt x="421" y="502" on="1"/>
        <pt x="472" y="502" on="1"/>
        <pt x="472" y="238" on="1"/>
      </contour>
      <contour>
        <pt x="286" y="832" on="1"/>
        <pt x="286" y="861" on="0"/>
        <pt x="319" y="895" on="0"/>
        <pt x="348" y="895" on="1"/>
        <pt x="377" y="895" on="0"/>
        <pt x="411" y="861" on="0"/>
        <pt x="411" y="832" on="1"/>
        <pt x="411" y="803" on="0"/>
        <pt x="377" y="770" on="0"/>
        <pt x="348" y="770" on="1"/>
        <pt x="319" y="770" on="0"/>
        <pt x="286" y="803" on="0"/>
      </contour>
    </TTGlyph>
    <TTGlyph name="Edotbelow" xMin="43" yMin="-190" xMax="628" yMax="720">
      <contour>
        <pt x="421" y="238" on="1"/>
        <pt x="403" y="340" on="1"/>
        <pt x="237" y="340" on="1"/>
        <pt x="237" y="60" on="1"/>
        <pt x="539" y="60" on="1"/>
        <pt x="570" y="223" on="1"/>
        <pt x="628" y="223" on="1"/>
        <pt x="628" y="0" on="1"/>
        <pt x="43" y="0" on="1"/>
        <pt x="43" y="43" on="1"/>
        <pt x="137" y="64" on="1"/>
        <pt x="137" y="656" on="1"/>
        <pt x="43" y="677" on="1"/>
        <pt x="43" y="720" on="1"/>
        <pt x="606" y="720" on="1"/>
        <pt x="606" y="508" on="1"/>
        <pt x="554" y="508" on="1"/>
        <pt x="522" y="662" on="1"/>
        <pt x="237" y="662" on="1"/>
        <pt x="237" y="400" on="1"/>
        <pt x="403" y="400" on="1"/>
        <pt x="421" y="502" on="1"/>
        <pt x="472" y="502" on="1"/>
        <pt x="472" y="238" on="1"/>
      </contour>
      <contour>
        <pt x="291" y="-128" on="1"/>
        <pt x="291" y="-99" on="0"/>
        <pt x="324" y="-65" on="0"/>
        <pt x="353" y="-65" on="1"/>
        <pt x="382" y="-65" on="0"/>
        <pt x="416" y="-99" on="0"/>
        <pt x="416" y="-128" on="1"/>
        <pt x="416" y="-157" on="0"/>
        <pt x="382" y="-190" on="0"/>
        <pt x="353" y="-190" on="1"/>
        <pt x="324" y="-190" on="0"/>
        <pt x="291" y="-157" on="0"/>
      </contour>
    </TTGlyph>
    <TTGlyph name="Egrave" xMin="43" yMin="0" xMax="628" yMax="895">
      <contour>
        <pt x="421" y="238" on="1"/>
        <pt x="403" y="340" on="1"/>
        <pt x="237" y="340" on="1"/>
        <pt x="237" y="60" on="1"/>
        <pt x="539" y="60" on="1"/>
        <pt x="570" y="223" on="1"/>
        <pt x="628" y="223" on="1"/>
        <pt x="628" y="0" on="1"/>
        <pt x="43" y="0" on="1"/>
        <pt x="43" y="43" on="1"/>
        <pt x="137" y="64" on="1"/>
        <pt x="137" y="656" on="1"/>
        <pt x="43" y="677" on="1"/>
        <pt x="43" y="720" on="1"/>
        <pt x="606" y="720" on="1"/>
        <pt x="606" y="508" on="1"/>
        <pt x="554" y="508" on="1"/>
        <pt x="522" y="662" on="1"/>
        <pt x="237" y="662" on="1"/>
        <pt x="237" y="400" on="1"/>
        <pt x="403" y="400" on="1"/>
        <pt x="421" y="502" on="1"/>
        <pt x="472" y="502" on="1"/>
        <pt x="472" y="238" on="1"/>
      </contour>
      <contour>
        <pt x="415" y="770" on="1"/>
        <pt x="362" y="770" on="1"/>
        <pt x="315" y="799" on="1"/>
        <pt x="277" y="822" on="0"/>
        <pt x="242" y="849" on="0"/>
        <pt x="242" y="865" on="1"/>
        <pt x="242" y="895" on="0"/>
        <pt x="279" y="895" on="1"/>
        <pt x="298" y="895" on="0"/>
        <pt x="333" y="874" on="0"/>
        <pt x="354" y="847" on="1"/>
      </contour>
    </TTGlyph>
    <TTGlyph name="Emacron" xMin="43" yMin="0" xMax="628" yMax="861">
      <contour>
        <pt x="421" y="238" on="1"/>
        <pt x="403" y="340" on="1"/>
        <pt x="237" y="340" on="1"/>
        <pt x="237" y="60" on="1"/>
        <pt x="539" y="60" on="1"/>
        <pt x="570" y="223" on="1"/>
        <pt x="628" y="223" on="1"/>
        <pt x="628" y="0" on="1"/>
        <pt x="43" y="0" on="1"/>
        <pt x="43" y="43" on="1"/>
        <pt x="137" y="64" on="1"/>
        <pt x="137" y="656" on="1"/>
        <pt x="43" y="677" on="1"/>
        <pt x="43" y="720" on="1"/>
        <pt x="606" y="720" on="1"/>
        <pt x="606" y="508" on="1"/>
        <pt x="554" y="508" on="1"/>
        <pt x="522" y="662" on="1"/>
        <pt x="237" y="662" on="1"/>
        <pt x="237" y="400" on="1"/>
        <pt x="403" y="400" on="1"/>
        <pt x="421" y="502" on="1"/>
        <pt x="472" y="502" on="1"/>
        <pt x="472" y="238" on="1"/>
      </contour>
      <contour>
        <pt x="206" y="861" on="1"/>
        <pt x="485" y="861" on="1"/>
        <pt x="485" y="796" on="1"/>
        <pt x="206" y="796" on="1"/>
      </contour>
    </TTGlyph>
    <TTGlyph name="Eng" xMin="48" yMin="-190" xMax="762" yMax="720">
      <contour>
        <pt x="132" y="656" on="1"/>
        <pt x="48" y="677" on="1"/>
        <pt x="48" y="720" on="1"/>
        <pt x="239" y="720" on="1"/>
        <pt x="612" y="167" on="1"/>
        <pt x="612" y="656" on="1"/>
        <pt x="529" y="677" on="1"/>
        <pt x="529" y="720" on="1"/>
        <pt x="762" y="720" on="1"/>
        <pt x="762" y="677" on="1"/>
        <pt x="678" y="656" on="1"/>
        <pt x="678" y="85" on="1"/>
        <pt x="678" y="11" on="0"/>
        <pt x="668" y="-74" on="0"/>
        <pt x="656" y="-101" on="1"/>
        <pt x="637" y="-144" on="0"/>
        <pt x="578" y="-190" on="0"/>
        <pt x="530" y="-190" on="1"/>
        <pt x="503" y="-190" on="0"/>
        <pt x="454" y="-176" on="0"/>
        <pt x="417" y="-150" on="0"/>
        <pt x="394" y="-116" on="0"/>
        <pt x="394" y="-95" on="1"/>
        <pt x="394" y="-69" on="0"/>
        <pt x="423" y="-38" on="0"/>
        <pt x="447" y="-38" on="1"/>
        <pt x="496" y="-38" on="0"/>
        <pt x="496" y="-93" on="1"/>
        <pt x="496" y="-122" on="0"/>
        <pt x="480" y="-138" on="1"/>
        <pt x="482" y="-145" on="0"/>
        <pt x="509" y="-153" on="0"/>
        <pt x="530" y="-153" on="1"/>
        <pt x="567" y="-153" on="0"/>
        <pt x="612" y="-90" on="0"/>
        <pt x="612" y="-24" on="1"/>
        <pt x="612" y="-7" on="1"/>
        <pt x="197" y="599" on="1"/>
        <pt x="197" y="64" on="1"/>
        <pt x="281" y="43" on="1"/>
        <pt x="281" y="0" on="1"/>
        <pt x="48" y="0" on="1"/>
        <pt x="48" y="43" on="1"/>
        <pt x="132" y="64" on="1"/>
      </contour>
    </TTGlyph>
    <TTGlyph name="Eogonek" xMin="43" yMin="-210" xMax="628" yMax="720">
      <contour>
        <pt x="335" y="-210" on="1"/>
        <pt x="290" y="-210" on="0"/>
        <pt x="235" y="-163" on="0"/>
        <pt x="235" y="-125" on="1"/>
        <pt x="235" y="-57" on="0"/>
        <pt x="325" y="0" on="1"/>
        <pt x="43" y="0" on="1"/>
        <pt x="43" y="43" on="1"/>
        <pt x="137" y="64" on="1"/>
        <pt x="137" y="656" on="1"/>
        <pt x="43" y="677" on="1"/>
        <pt x="43" y="720" on="1"/>
        <pt x="606" y="720" on="1"/>
        <pt x="606" y="508" on="1"/>
        <pt x="554" y="508" on="1"/>
        <pt x="522" y="662" on="1"/>
        <pt x="237" y="662" on="1"/>
        <pt x="237" y="400" on="1"/>
        <pt x="403" y="400" on="1"/>
        <pt x="421" y="502" on="1"/>
        <pt x="472" y="502" on="1"/>
        <pt x="472" y="238" on="1"/>
        <pt x="421" y="238" on="1"/>
        <pt x="403" y="340" on="1"/>
        <pt x="237" y="340" on="1"/>
        <pt x="237" y="60" on="1"/>
        <pt x="539" y="60" on="1"/>
        <pt x="570" y="223" on="1"/>
        <pt x="628" y="223" on="1"/>
        <pt x="628" y="0" on="1"/>
        <pt x="371" y="0" on="1"/>
        <pt x="307" y="-50" on="0"/>
        <pt x="307" y="-105" on="1"/>
        <pt x="307" y="-152" on="0"/>
        <pt x="357" y="-152" on="1"/>
        <pt x="375" y="-152" on="0"/>
        <pt x="413" y="-142" on="0"/>
        <pt x="425" y="-132" on="1"/>
        <pt x="440" y="-154" on="1"/>
        <pt x="404" y="-210" on="0"/>
      </contour>
    </TTGlyph>
    <TTGlyph name="Eth" xMin="53" yMin="0" xMax="718" yMax="720">
      <contour>
        <pt x="53" y="397" on="1"/>
        <pt x="137" y="397" on="1"/>
        <pt x="137" y="656" on="1"/>
        <pt x="53" y="677" on="1"/>
        <pt x="53" y="720" on="1"/>
        <pt x="389" y="720" on="1"/>
        <pt x="538" y="720" on="0"/>
        <pt x="621" y="636" on="1"/>
        <pt x="668" y="588" on="0"/>
        <pt x="718" y="448" on="0"/>
        <pt x="718" y="368" on="1"/>
        <pt x="718" y="283" on="0"/>
        <pt x="666" y="137" on="0"/>
        <pt x="618" y="87" on="1"/>
        <pt x="576" y="42" on="0"/>
        <pt x="460" y="0" on="0"/>
        <pt x="380" y="0" on="1"/>
        <pt x="53" y="0" on="1"/>
        <pt x="53" y="43" on="1"/>
        <pt x="137" y="64" on="1"/>
        <pt x="137" y="330" on="1"/>
        <pt x="53" y="330" on="1"/>
      </contour>
      <contour>
        <pt x="392" y="60" on="1"/>
        <pt x="498" y="60" on="0"/>
        <pt x="548" y="126" on="1"/>
        <pt x="603" y="196" on="0"/>
        <pt x="603" y="354" on="1"/>
        <pt x="603" y="510" on="0"/>
        <pt x="548" y="586" on="1"/>
        <pt x="496" y="660" on="0"/>
        <pt x="382" y="660" on="1"/>
        <pt x="237" y="660" on="1"/>
        <pt x="237" y="397" on="1"/>
        <pt x="364" y="397" on="1"/>
        <pt x="364" y="330" on="1"/>
        <pt x="237" y="330" on="1"/>
        <pt x="237" y="60" on="1"/>
      </contour>
    </TTGlyph>
    <TTGlyph name="Etilde" xMin="43" yMin="0" xMax="628" yMax="885">
      <contour>
        <pt x="421" y="238" on="1"/>
        <pt x="403" y="340" on="1"/>
        <pt x="237" y="340" on="1"/>
        <pt x="237" y="60" on="1"/>
        <pt x="539" y="60" on="1"/>
        <pt x="570" y="223" on="1"/>
        <pt x="628" y="223" on="1"/>
        <pt x="628" y="0" on="1"/>
        <pt x="43" y="0" on="1"/>
        <pt x="43" y="43" on="1"/>
        <pt x="137" y="64" on="1"/>
        <pt x="137" y="656" on="1"/>
        <pt x="43" y="677" on="1"/>
        <pt x="43" y="720" on="1"/>
        <pt x="606" y="720" on="1"/>
        <pt x="606" y="508" on="1"/>
        <pt x="554" y="508" on="1"/>
        <pt x="522" y="662" on="1"/>
        <pt x="237" y="662" on="1"/>
        <pt x="237" y="400" on="1"/>
        <pt x="403" y="400" on="1"/>
        <pt x="421" y="502" on="1"/>
        <pt x="472" y="502" on="1"/>
        <pt x="472" y="238" on="1"/>
      </contour>
      <contour>
        <pt x="162" y="770" on="1"/>
        <pt x="178" y="885" on="0"/>
        <pt x="274" y="885" on="1"/>
        <pt x="299" y="885" on="0"/>
        <pt x="337" y="868" on="0"/>
        <pt x="369" y="847" on="0"/>
        <pt x="400" y="830" on="0"/>
        <pt x="420" y="830" on="1"/>
        <pt x="450" y="830" on="0"/>
        <pt x="480" y="856" on="0"/>
        <pt x="485" y="880" on="1"/>
        <pt x="530" y="880" on="1"/>
        <pt x="512" y="759" on="0"/>
        <pt x="418" y="759" on="1"/>
        <pt x="393" y="759" on="0"/>
        <pt x="356" y="776" on="0"/>
        <pt x="323" y="797" on="0"/>
        <pt x="291" y="815" on="0"/>
        <pt x="272" y="815" on="1"/>
        <pt x="242" y="815" on="0"/>
        <pt x="212" y="791" on="0"/>
        <pt x="207" y="770" on="1"/>
      </contour>
    </TTGlyph>
    <TTGlyph name="Euro" xMin="43" yMin="-10" xMax="676" yMax="730">
      <contour>
        <pt x="43" y="463" on="1"/>
        <pt x="150" y="463" on="1"/>
        <pt x="171" y="594" on="0"/>
        <pt x="313" y="730" on="0"/>
        <pt x="431" y="730" on="1"/>
        <pt x="483" y="730" on="0"/>
        <pt x="572" y="705" on="0"/>
        <pt x="638" y="660" on="0"/>
        <pt x="676" y="600" on="0"/>
        <pt x="676" y="565" on="1"/>
        <pt x="676" y="532" on="0"/>
        <pt x="644" y="493" on="0"/>
        <pt x="616" y="493" on="1"/>
        <pt x="590" y="493" on="0"/>
        <pt x="559" y="524" on="0"/>
        <pt x="559" y="548" on="1"/>
        <pt x="559" y="567" on="0"/>
        <pt x="578" y="598" on="0"/>
        <pt x="595" y="606" on="1"/>
        <pt x="575" y="638" on="0"/>
        <pt x="491" y="675" on="0"/>
        <pt x="441" y="675" on="1"/>
        <pt x="284" y="675" on="0"/>
        <pt x="257" y="463" on="1"/>
        <pt x="451" y="463" on="1"/>
        <pt x="451" y="403" on="1"/>
        <pt x="252" y="403" on="1"/>
        <pt x="251" y="392" on="0"/>
        <pt x="251" y="369" on="0"/>
        <pt x="251" y="357" on="1"/>
        <pt x="251" y="344" on="0"/>
        <pt x="251" y="319" on="0"/>
        <pt x="252" y="308" on="1"/>
        <pt x="451" y="308" on="1"/>
        <pt x="451" y="247" on="1"/>
        <pt x="258" y="247" on="1"/>
        <pt x="272" y="149" on="0"/>
        <pt x="361" y="58" on="0"/>
        <pt x="439" y="58" on="1"/>
        <pt x="514" y="58" on="0"/>
        <pt x="607" y="135" on="0"/>
        <pt x="617" y="205" on="1"/>
        <pt x="672" y="205" on="1"/>
        <pt x="652" y="95" on="0"/>
        <pt x="531" y="-10" on="0"/>
        <pt x="425" y="-10" on="1"/>
        <pt x="187" y="-10" on="0"/>
        <pt x="149" y="247" on="1"/>
        <pt x="43" y="247" on="1"/>
        <pt x="43" y="308" on="1"/>
        <pt x="143" y="308" on="1"/>
        <pt x="142" y="319" on="0"/>
        <pt x="142" y="340" on="0"/>
        <pt x="142" y="351" on="1"/>
        <pt x="142" y="365" on="0"/>
        <pt x="142" y="390" on="0"/>
        <pt x="143" y="403" on="1"/>
        <pt x="43" y="403" on="1"/>
      </contour>
    </TTGlyph>
    <TTGlyph name="F" xMin="43" yMin="0" xMax="606" yMax="720">
      <contour>
        <pt x="421" y="227" on="1"/>
        <pt x="404" y="329" on="1"/>
        <pt x="237" y="329" on="1"/>
        <pt x="237" y="67" on="1"/>
        <pt x="354" y="48" on="1"/>
        <pt x="354" y="0" on="1"/>
        <pt x="43" y="0" on="1"/>
        <pt x="43" y="43" on="1"/>
        <pt x="137" y="67" on="1"/>
        <pt x="137" y="656" on="1"/>
        <pt x="43" y="677" on="1"/>
        <pt x="43" y="720" on="1"/>
        <pt x="606" y="720" on="1"/>
        <pt x="606" y="506" on="1"/>
        <pt x="552" y="506" on="1"/>
        <pt x="520" y="662" on="1"/>
        <pt x="237" y="662" on="1"/>
        <pt x="237" y="389" on="1"/>
        <pt x="404" y="389" on="1"/>
        <pt x="421" y="491" on="1"/>
        <pt x="472" y="491" on="1"/>
        <pt x="472" y="227" on="1"/>
      </contour>
    </TTGlyph>
    <TTGlyph name="G" xMin="53" yMin="-10" xMax="729" yMax="730">
      <contour>
        <pt x="375" y="55" on="1"/>
        <pt x="545" y="55" on="0"/>
        <pt x="545" y="223" on="1"/>
        <pt x="545" y="293" on="1"/>
        <pt x="461" y="314" on="1"/>
        <pt x="461" y="359" on="1"/>
        <pt x="729" y="359" on="1"/>
        <pt x="729" y="314" on="1"/>
        <pt x="645" y="293" on="1"/>
        <pt x="645" y="0" on="1"/>
        <pt x="593" y="0" on="1"/>
        <pt x="568" y="79" on="1"/>
        <pt x="524" y="31" on="0"/>
        <pt x="432" y="-10" on="0"/>
        <pt x="369" y="-10" on="1"/>
        <pt x="232" y="-10" on="0"/>
        <pt x="150" y="74" on="1"/>
        <pt x="103" y="122" on="0"/>
        <pt x="53" y="264" on="0"/>
        <pt x="53" y="352" on="1"/>
        <pt x="53" y="441" on="0"/>
        <pt x="106" y="593" on="0"/>
        <pt x="154" y="644" on="1"/>
        <pt x="235" y="730" on="0"/>
        <pt x="373" y="730" on="1"/>
        <pt x="433" y="730" on="0"/>
        <pt x="518" y="693" on="0"/>
        <pt x="556" y="651" on="1"/>
        <pt x="578" y="720" on="1"/>
        <pt x="633" y="720" on="1"/>
        <pt x="633" y="499" on="1"/>
        <pt x="572" y="499" on="1"/>
        <pt x="543" y="676" on="0"/>
        <pt x="369" y="676" on="1"/>
        <pt x="318" y="676" on="0"/>
        <pt x="250" y="643" on="0"/>
        <pt x="225" y="608" on="1"/>
        <pt x="196" y="566" on="0"/>
        <pt x="164" y="438" on="0"/>
        <pt x="164" y="366" on="1"/>
        <pt x="164" y="291" on="0"/>
        <pt x="199" y="166" on="0"/>
        <pt x="231" y="122" on="1"/>
        <pt x="257" y="87" on="0"/>
        <pt x="324" y="55" on="0"/>
      </contour>
    </TTGlyph>
    <TTGlyph name="Gbreve" xMin="53" yMin="-10" xMax="729" yMax="890">
      <contour>
        <pt x="375" y="55" on="1"/>
        <pt x="545" y="55" on="0"/>
        <pt x="545" y="223" on="1"/>
        <pt x="545" y="293" on="1"/>
        <pt x="461" y="314" on="1"/>
        <pt x="461" y="359" on="1"/>
        <pt x="729" y="359" on="1"/>
        <pt x="729" y="314" on="1"/>
        <pt x="645" y="293" on="1"/>
        <pt x="645" y="0" on="1"/>
        <pt x="593" y="0" on="1"/>
        <pt x="568" y="79" on="1"/>
        <pt x="524" y="31" on="0"/>
        <pt x="432" y="-10" on="0"/>
        <pt x="369" y="-10" on="1"/>
        <pt x="232" y="-10" on="0"/>
        <pt x="150" y="74" on="1"/>
        <pt x="103" y="122" on="0"/>
        <pt x="53" y="264" on="0"/>
        <pt x="53" y="352" on="1"/>
        <pt x="53" y="441" on="0"/>
        <pt x="106" y="593" on="0"/>
        <pt x="154" y="644" on="1"/>
        <pt x="235" y="730" on="0"/>
        <pt x="373" y="730" on="1"/>
        <pt x="433" y="730" on="0"/>
        <pt x="518" y="693" on="0"/>
        <pt x="556" y="651" on="1"/>
        <pt x="578" y="720" on="1"/>
        <pt x="633" y="720" on="1"/>
        <pt x="633" y="499" on="1"/>
        <pt x="572" y="499" on="1"/>
        <pt x="543" y="676" on="0"/>
        <pt x="369" y="676" on="1"/>
        <pt x="318" y="676" on="0"/>
        <pt x="250" y="643" on="0"/>
        <pt x="225" y="608" on="1"/>
        <pt x="196" y="566" on="0"/>
        <pt x="164" y="438" on="0"/>
        <pt x="164" y="366" on="1"/>
        <pt x="164" y="291" on="0"/>
        <pt x="199" y="166" on="0"/>
        <pt x="231" y="122" on="1"/>
        <pt x="257" y="87" on="0"/>
        <pt x="324" y="55" on="0"/>
      </contour>
      <contour>
        <pt x="527" y="890" on="1"/>
        <pt x="525" y="823" on="0"/>
        <pt x="439" y="749" on="0"/>
        <pt x="374" y="749" on="1"/>
        <pt x="306" y="749" on="0"/>
        <pt x="233" y="827" on="0"/>
        <pt x="233" y="890" on="1"/>
        <pt x="281" y="890" on="1"/>
        <pt x="283" y="852" on="0"/>
        <pt x="335" y="818" on="0"/>
        <pt x="374" y="818" on="1"/>
        <pt x="424" y="818" on="0"/>
        <pt x="479" y="852" on="0"/>
        <pt x="479" y="890" on="1"/>
      </contour>
    </TTGlyph>
    <TTGlyph name="Gcircumflex" xMin="53" yMin="-10" xMax="729" yMax="890">
      <contour>
        <pt x="375" y="55" on="1"/>
        <pt x="545" y="55" on="0"/>
        <pt x="545" y="223" on="1"/>
        <pt x="545" y="293" on="1"/>
        <pt x="461" y="314" on="1"/>
        <pt x="461" y="359" on="1"/>
        <pt x="729" y="359" on="1"/>
        <pt x="729" y="314" on="1"/>
        <pt x="645" y="293" on="1"/>
        <pt x="645" y="0" on="1"/>
        <pt x="593" y="0" on="1"/>
        <pt x="568" y="79" on="1"/>
        <pt x="524" y="31" on="0"/>
        <pt x="432" y="-10" on="0"/>
        <pt x="369" y="-10" on="1"/>
        <pt x="232" y="-10" on="0"/>
        <pt x="150" y="74" on="1"/>
        <pt x="103" y="122" on="0"/>
        <pt x="53" y="264" on="0"/>
        <pt x="53" y="352" on="1"/>
        <pt x="53" y="441" on="0"/>
        <pt x="106" y="593" on="0"/>
        <pt x="154" y="644" on="1"/>
        <pt x="235" y="730" on="0"/>
        <pt x="373" y="730" on="1"/>
        <pt x="433" y="730" on="0"/>
        <pt x="518" y="693" on="0"/>
        <pt x="556" y="651" on="1"/>
        <pt x="578" y="720" on="1"/>
        <pt x="633" y="720" on="1"/>
        <pt x="633" y="499" on="1"/>
        <pt x="572" y="499" on="1"/>
        <pt x="543" y="676" on="0"/>
        <pt x="369" y="676" on="1"/>
        <pt x="318" y="676" on="0"/>
        <pt x="250" y="643" on="0"/>
        <pt x="225" y="608" on="1"/>
        <pt x="196" y="566" on="0"/>
        <pt x="164" y="438" on="0"/>
        <pt x="164" y="366" on="1"/>
        <pt x="164" y="291" on="0"/>
        <pt x="199" y="166" on="0"/>
        <pt x="231" y="122" on="1"/>
        <pt x="257" y="87" on="0"/>
        <pt x="324" y="55" on="0"/>
      </contour>
      <contour>
        <pt x="540" y="769" on="1"/>
        <pt x="487" y="769" on="1"/>
        <pt x="374" y="830" on="1"/>
        <pt x="261" y="769" on="1"/>
        <pt x="208" y="769" on="1"/>
        <pt x="326" y="890" on="1"/>
        <pt x="421" y="890" on="1"/>
      </contour>
    </TTGlyph>
    <TTGlyph name="Gcommaaccent" xMin="53" yMin="-235" xMax="729" yMax="730">
      <contour>
        <pt x="375" y="55" on="1"/>
        <pt x="545" y="55" on="0"/>
        <pt x="545" y="223" on="1"/>
        <pt x="545" y="293" on="1"/>
        <pt x="461" y="314" on="1"/>
        <pt x="461" y="359" on="1"/>
        <pt x="729" y="359" on="1"/>
        <pt x="729" y="314" on="1"/>
        <pt x="645" y="293" on="1"/>
        <pt x="645" y="0" on="1"/>
        <pt x="593" y="0" on="1"/>
        <pt x="568" y="79" on="1"/>
        <pt x="524" y="31" on="0"/>
        <pt x="432" y="-10" on="0"/>
        <pt x="369" y="-10" on="1"/>
        <pt x="232" y="-10" on="0"/>
        <pt x="150" y="74" on="1"/>
        <pt x="103" y="122" on="0"/>
        <pt x="53" y="264" on="0"/>
        <pt x="53" y="352" on="1"/>
        <pt x="53" y="441" on="0"/>
        <pt x="106" y="593" on="0"/>
        <pt x="154" y="644" on="1"/>
        <pt x="235" y="730" on="0"/>
        <pt x="373" y="730" on="1"/>
        <pt x="433" y="730" on="0"/>
        <pt x="518" y="693" on="0"/>
        <pt x="556" y="651" on="1"/>
        <pt x="578" y="720" on="1"/>
        <pt x="633" y="720" on="1"/>
        <pt x="633" y="499" on="1"/>
        <pt x="572" y="499" on="1"/>
        <pt x="543" y="676" on="0"/>
        <pt x="369" y="676" on="1"/>
        <pt x="318" y="676" on="0"/>
        <pt x="250" y="643" on="0"/>
        <pt x="225" y="608" on="1"/>
        <pt x="196" y="566" on="0"/>
        <pt x="164" y="438" on="0"/>
        <pt x="164" y="366" on="1"/>
        <pt x="164" y="291" on="0"/>
        <pt x="199" y="166" on="0"/>
        <pt x="231" y="122" on="1"/>
        <pt x="257" y="87" on="0"/>
        <pt x="324" y="55" on="0"/>
      </contour>
      <contour>
        <pt x="374" y="-44" on="1"/>
        <pt x="400" y="-44" on="0"/>
        <pt x="428" y="-78" on="0"/>
        <pt x="428" y="-109" on="1"/>
        <pt x="428" y="-148" on="0"/>
        <pt x="389" y="-209" on="0"/>
        <pt x="347" y="-235" on="1"/>
        <pt x="325" y="-208" on="1"/>
        <pt x="354" y="-185" on="0"/>
        <pt x="376" y="-152" on="0"/>
        <pt x="378" y="-135" on="1"/>
        <pt x="375" y="-133" on="1"/>
        <pt x="373" y="-135" on="0"/>
        <pt x="362" y="-139" on="0"/>
        <pt x="357" y="-139" on="1"/>
        <pt x="340" y="-139" on="0"/>
        <pt x="318" y="-113" on="0"/>
        <pt x="318" y="-94" on="1"/>
        <pt x="318" y="-73" on="0"/>
        <pt x="350" y="-44" on="0"/>
      </contour>
    </TTGlyph>
    <TTGlyph name="Gdotaccent" xMin="53" yMin="-10" xMax="729" yMax="895">
      <contour>
        <pt x="375" y="55" on="1"/>
        <pt x="545" y="55" on="0"/>
        <pt x="545" y="223" on="1"/>
        <pt x="545" y="293" on="1"/>
        <pt x="461" y="314" on="1"/>
        <pt x="461" y="359" on="1"/>
        <pt x="729" y="359" on="1"/>
        <pt x="729" y="314" on="1"/>
        <pt x="645" y="293" on="1"/>
        <pt x="645" y="0" on="1"/>
        <pt x="593" y="0" on="1"/>
        <pt x="568" y="79" on="1"/>
        <pt x="524" y="31" on="0"/>
        <pt x="432" y="-10" on="0"/>
        <pt x="369" y="-10" on="1"/>
        <pt x="232" y="-10" on="0"/>
        <pt x="150" y="74" on="1"/>
        <pt x="103" y="122" on="0"/>
        <pt x="53" y="264" on="0"/>
        <pt x="53" y="352" on="1"/>
        <pt x="53" y="441" on="0"/>
        <pt x="106" y="593" on="0"/>
        <pt x="154" y="644" on="1"/>
        <pt x="235" y="730" on="0"/>
        <pt x="373" y="730" on="1"/>
        <pt x="433" y="730" on="0"/>
        <pt x="518" y="693" on="0"/>
        <pt x="556" y="651" on="1"/>
        <pt x="578" y="720" on="1"/>
        <pt x="633" y="720" on="1"/>
        <pt x="633" y="499" on="1"/>
        <pt x="572" y="499" on="1"/>
        <pt x="543" y="676" on="0"/>
        <pt x="369" y="676" on="1"/>
        <pt x="318" y="676" on="0"/>
        <pt x="250" y="643" on="0"/>
        <pt x="225" y="608" on="1"/>
        <pt x="196" y="566" on="0"/>
        <pt x="164" y="438" on="0"/>
        <pt x="164" y="366" on="1"/>
        <pt x="164" y="291" on="0"/>
        <pt x="199" y="166" on="0"/>
        <pt x="231" y="122" on="1"/>
        <pt x="257" y="87" on="0"/>
        <pt x="324" y="55" on="0"/>
      </contour>
      <contour>
        <pt x="312" y="832" on="1"/>
        <pt x="312" y="861" on="0"/>
        <pt x="345" y="895" on="0"/>
        <pt x="374" y="895" on="1"/>
        <pt x="403" y="895" on="0"/>
        <pt x="437" y="861" on="0"/>
        <pt x="437" y="832" on="1"/>
        <pt x="437" y="803" on="0"/>
        <pt x="403" y="770" on="0"/>
        <pt x="374" y="770" on="1"/>
        <pt x="345" y="770" on="0"/>
        <pt x="312" y="803" on="0"/>
      </contour>
    </TTGlyph>
    <TTGlyph name="H" xMin="48" yMin="0" xMax="755" yMax="720">
      <contour>
        <pt x="671" y="64" on="1"/>
        <pt x="755" y="43" on="1"/>
        <pt x="755" y="0" on="1"/>
        <pt x="487" y="0" on="1"/>
        <pt x="487" y="43" on="1"/>
        <pt x="571" y="64" on="1"/>
        <pt x="571" y="341" on="1"/>
        <pt x="232" y="341" on="1"/>
        <pt x="232" y="64" on="1"/>
        <pt x="316" y="43" on="1"/>
        <pt x="316" y="0" on="1"/>
        <pt x="48" y="0" on="1"/>
        <pt x="48" y="43" on="1"/>
        <pt x="132" y="64" on="1"/>
        <pt x="132" y="656" on="1"/>
        <pt x="48" y="677" on="1"/>
        <pt x="48" y="720" on="1"/>
        <pt x="316" y="720" on="1"/>
        <pt x="316" y="677" on="1"/>
        <pt x="232" y="656" on="1"/>
        <pt x="232" y="399" on="1"/>
        <pt x="571" y="399" on="1"/>
        <pt x="571" y="656" on="1"/>
        <pt x="487" y="677" on="1"/>
        <pt x="487" y="720" on="1"/>
        <pt x="755" y="720" on="1"/>
        <pt x="755" y="677" on="1"/>
        <pt x="671" y="656" on="1"/>
      </contour>
    </TTGlyph>
    <TTGlyph name="Hbar" xMin="53" yMin="0" xMax="760" yMax="720">
      <contour>
        <pt x="676" y="561" on="1"/>
        <pt x="760" y="561" on="1"/>
        <pt x="760" y="496" on="1"/>
        <pt x="676" y="496" on="1"/>
        <pt x="676" y="64" on="1"/>
        <pt x="760" y="43" on="1"/>
        <pt x="760" y="0" on="1"/>
        <pt x="492" y="0" on="1"/>
        <pt x="492" y="43" on="1"/>
        <pt x="576" y="64" on="1"/>
        <pt x="576" y="341" on="1"/>
        <pt x="237" y="341" on="1"/>
        <pt x="237" y="64" on="1"/>
        <pt x="321" y="43" on="1"/>
        <pt x="321" y="0" on="1"/>
        <pt x="53" y="0" on="1"/>
        <pt x="53" y="43" on="1"/>
        <pt x="137" y="64" on="1"/>
        <pt x="137" y="496" on="1"/>
        <pt x="54" y="496" on="1"/>
        <pt x="54" y="561" on="1"/>
        <pt x="137" y="561" on="1"/>
        <pt x="137" y="656" on="1"/>
        <pt x="53" y="677" on="1"/>
        <pt x="53" y="720" on="1"/>
        <pt x="321" y="720" on="1"/>
        <pt x="321" y="677" on="1"/>
        <pt x="237" y="656" on="1"/>
        <pt x="237" y="561" on="1"/>
        <pt x="576" y="561" on="1"/>
        <pt x="576" y="656" on="1"/>
        <pt x="492" y="677" on="1"/>
        <pt x="492" y="720" on="1"/>
        <pt x="760" y="720" on="1"/>
        <pt x="760" y="677" on="1"/>
        <pt x="676" y="656" on="1"/>
      </contour>
      <contour>
        <pt x="576" y="399" on="1"/>
        <pt x="576" y="496" on="1"/>
        <pt x="237" y="496" on="1"/>
        <pt x="237" y="399" on="1"/>
      </contour>
    </TTGlyph>
    <TTGlyph name="Hcircumflex" xMin="48" yMin="0" xMax="755" yMax="890">
      <contour>
        <pt x="671" y="64" on="1"/>
        <pt x="755" y="43" on="1"/>
        <pt x="755" y="0" on="1"/>
        <pt x="487" y="0" on="1"/>
        <pt x="487" y="43" on="1"/>
        <pt x="571" y="64" on="1"/>
        <pt x="571" y="341" on="1"/>
        <pt x="232" y="341" on="1"/>
        <pt x="232" y="64" on="1"/>
        <pt x="316" y="43" on="1"/>
        <pt x="316" y="0" on="1"/>
        <pt x="48" y="0" on="1"/>
        <pt x="48" y="43" on="1"/>
        <pt x="132" y="64" on="1"/>
        <pt x="132" y="656" on="1"/>
        <pt x="48" y="677" on="1"/>
        <pt x="48" y="720" on="1"/>
        <pt x="316" y="720" on="1"/>
        <pt x="316" y="677" on="1"/>
        <pt x="232" y="656" on="1"/>
        <pt x="232" y="399" on="1"/>
        <pt x="571" y="399" on="1"/>
        <pt x="571" y="656" on="1"/>
        <pt x="487" y="677" on="1"/>
        <pt x="487" y="720" on="1"/>
        <pt x="755" y="720" on="1"/>
        <pt x="755" y="677" on="1"/>
        <pt x="671" y="656" on="1"/>
      </contour>
      <contour>
        <pt x="571" y="769" on="1"/>
        <pt x="518" y="769" on="1"/>
        <pt x="405" y="830" on="1"/>
        <pt x="292" y="769" on="1"/>
        <pt x="239" y="769" on="1"/>
        <pt x="357" y="890" on="1"/>
        <pt x="452" y="890" on="1"/>
      </contour>
    </TTGlyph>
    <TTGlyph name="Hdotbelow" xMin="48" yMin="-190" xMax="755" yMax="720">
      <contour>
        <pt x="671" y="64" on="1"/>
        <pt x="755" y="43" on="1"/>
        <pt x="755" y="0" on="1"/>
        <pt x="487" y="0" on="1"/>
        <pt x="487" y="43" on="1"/>
        <pt x="571" y="64" on="1"/>
        <pt x="571" y="341" on="1"/>
        <pt x="232" y="341" on="1"/>
        <pt x="232" y="64" on="1"/>
        <pt x="316" y="43" on="1"/>
        <pt x="316" y="0" on="1"/>
        <pt x="48" y="0" on="1"/>
        <pt x="48" y="43" on="1"/>
        <pt x="132" y="64" on="1"/>
        <pt x="132" y="656" on="1"/>
        <pt x="48" y="677" on="1"/>
        <pt x="48" y="720" on="1"/>
        <pt x="316" y="720" on="1"/>
        <pt x="316" y="677" on="1"/>
        <pt x="232" y="656" on="1"/>
        <pt x="232" y="399" on="1"/>
        <pt x="571" y="399" on="1"/>
        <pt x="571" y="656" on="1"/>
        <pt x="487" y="677" on="1"/>
        <pt x="487" y="720" on="1"/>
        <pt x="755" y="720" on="1"/>
        <pt x="755" y="677" on="1"/>
        <pt x="671" y="656" on="1"/>
      </contour>
      <contour>
        <pt x="342" y="-128" on="1"/>
        <pt x="342" y="-99" on="0"/>
        <pt x="375" y="-65" on="0"/>
        <pt x="404" y="-65" on="1"/>
        <pt x="433" y="-65" on="0"/>
        <pt x="467" y="-99" on="0"/>
        <pt x="467" y="-128" on="1"/>
        <pt x="467" y="-157" on="0"/>
        <pt x="433" y="-190" on="0"/>
        <pt x="404" y="-190" on="1"/>
        <pt x="375" y="-190" on="0"/>
        <pt x="342" y="-157" on="0"/>
      </contour>
    </TTGlyph>
    <TTGlyph name="I" xMin="43" yMin="0" xMax="331" yMax="720">
      <contour>
        <pt x="237" y="64" on="1"/>
        <pt x="331" y="43" on="1"/>
        <pt x="331" y="0" on="1"/>
        <pt x="43" y="0" on="1"/>
        <pt x="43" y="43" on="1"/>
        <pt x="137" y="64" on="1"/>
        <pt x="137" y="656" on="1"/>
        <pt x="43" y="677" on="1"/>
        <pt x="43" y="720" on="1"/>
        <pt x="331" y="720" on="1"/>
        <pt x="331" y="677" on="1"/>
        <pt x="237" y="656" on="1"/>
      </contour>
    </TTGlyph>
    <TTGlyph name="IJ" xMin="43" yMin="-11" xMax="918" yMax="720">
      <contour>
        <pt x="237" y="64" on="1"/>
        <pt x="331" y="43" on="1"/>
        <pt x="331" y="0" on="1"/>
        <pt x="43" y="0" on="1"/>
        <pt x="43" y="43" on="1"/>
        <pt x="137" y="64" on="1"/>
        <pt x="137" y="656" on="1"/>
        <pt x="43" y="677" on="1"/>
        <pt x="43" y="720" on="1"/>
        <pt x="331" y="720" on="1"/>
        <pt x="331" y="677" on="1"/>
        <pt x="237" y="656" on="1"/>
      </contour>
      <contour>
        <pt x="739" y="656" on="1"/>
        <pt x="640" y="677" on="1"/>
        <pt x="640" y="720" on="1"/>
        <pt x="918" y="720" on="1"/>
        <pt x="918" y="677" on="1"/>
        <pt x="839" y="656" on="1"/>
        <pt x="839" y="218" on="1"/>
        <pt x="839" y="166" on="0"/>
        <pt x="805" y="82" on="0"/>
        <pt x="743" y="22" on="0"/>
        <pt x="656" y="-11" on="0"/>
        <pt x="603" y="-11" on="1"/>
        <pt x="556" y="-11" on="0"/>
        <pt x="478" y="16" on="0"/>
        <pt x="423" y="65" on="0"/>
        <pt x="392" y="134" on="0"/>
        <pt x="392" y="175" on="1"/>
        <pt x="392" y="259" on="0"/>
        <pt x="458" y="259" on="1"/>
        <pt x="487" y="259" on="0"/>
        <pt x="521" y="227" on="0"/>
        <pt x="521" y="201" on="1"/>
        <pt x="521" y="178" on="0"/>
        <pt x="495" y="131" on="0"/>
        <pt x="478" y="123" on="1"/>
        <pt x="478" y="91" on="0"/>
        <pt x="547" y="47" on="0"/>
        <pt x="602" y="47" on="1"/>
        <pt x="673" y="47" on="0"/>
        <pt x="739" y="126" on="0"/>
        <pt x="739" y="207" on="1"/>
      </contour>
    </TTGlyph>
    <TTGlyph name="Iacute" xMin="43" yMin="0" xMax="333" yMax="895">
      <contour>
        <pt x="237" y="64" on="1"/>
        <pt x="331" y="43" on="1"/>
        <pt x="331" y="0" on="1"/>
        <pt x="43" y="0" on="1"/>
        <pt x="43" y="43" on="1"/>
        <pt x="137" y="64" on="1"/>
        <pt x="137" y="656" on="1"/>
        <pt x="43" y="677" on="1"/>
        <pt x="43" y="720" on="1"/>
        <pt x="331" y="720" on="1"/>
        <pt x="331" y="677" on="1"/>
        <pt x="237" y="656" on="1"/>
      </contour>
      <contour>
        <pt x="221" y="847" on="1"/>
        <pt x="242" y="874" on="0"/>
        <pt x="277" y="895" on="0"/>
        <pt x="296" y="895" on="1"/>
        <pt x="333" y="895" on="0"/>
        <pt x="333" y="865" on="1"/>
        <pt x="333" y="849" on="0"/>
        <pt x="298" y="822" on="0"/>
        <pt x="260" y="799" on="1"/>
        <pt x="213" y="770" on="1"/>
        <pt x="160" y="770" on="1"/>
      </contour>
    </TTGlyph>
    <TTGlyph name="Ibreve" xMin="31" yMin="0" xMax="331" yMax="890">
      <contour>
        <pt x="237" y="64" on="1"/>
        <pt x="331" y="43" on="1"/>
        <pt x="331" y="0" on="1"/>
        <pt x="43" y="0" on="1"/>
        <pt x="43" y="43" on="1"/>
        <pt x="137" y="64" on="1"/>
        <pt x="137" y="656" on="1"/>
        <pt x="43" y="677" on="1"/>
        <pt x="43" y="720" on="1"/>
        <pt x="331" y="720" on="1"/>
        <pt x="331" y="677" on="1"/>
        <pt x="237" y="656" on="1"/>
      </contour>
      <contour>
        <pt x="325" y="890" on="1"/>
        <pt x="323" y="823" on="0"/>
        <pt x="237" y="749" on="0"/>
        <pt x="172" y="749" on="1"/>
        <pt x="104" y="749" on="0"/>
        <pt x="31" y="827" on="0"/>
        <pt x="31" y="890" on="1"/>
        <pt x="79" y="890" on="1"/>
        <pt x="81" y="852" on="0"/>
        <pt x="133" y="818" on="0"/>
        <pt x="172" y="818" on="1"/>
        <pt x="222" y="818" on="0"/>
        <pt x="277" y="852" on="0"/>
        <pt x="277" y="890" on="1"/>
      </contour>
    </TTGlyph>
    <TTGlyph name="Icircumflex" xMin="21" yMin="0" xMax="353" yMax="890">
      <contour>
        <pt x="237" y="64" on="1"/>
        <pt x="331" y="43" on="1"/>
        <pt x="331" y="0" on="1"/>
        <pt x="43" y="0" on="1"/>
        <pt x="43" y="43" on="1"/>
        <pt x="137" y="64" on="1"/>
        <pt x="137" y="656" on="1"/>
        <pt x="43" y="677" on="1"/>
        <pt x="43" y="720" on="1"/>
        <pt x="331" y="720" on="1"/>
        <pt x="331" y="677" on="1"/>
        <pt x="237" y="656" on="1"/>
      </contour>
      <contour>
        <pt x="353" y="769" on="1"/>
        <pt x="300" y="769" on="1"/>
        <pt x="187" y="830" on="1"/>
        <pt x="74" y="769" on="1"/>
        <pt x="21" y="769" on="1"/>
        <pt x="139" y="890" on="1"/>
        <pt x="234" y="890" on="1"/>
      </contour>
    </TTGlyph>
    <TTGlyph name="Idieresis" xMin="14" yMin="0" xMax="361" yMax="890">
      <contour>
        <pt x="237" y="64" on="1"/>
        <pt x="331" y="43" on="1"/>
        <pt x="331" y="0" on="1"/>
        <pt x="43" y="0" on="1"/>
        <pt x="43" y="43" on="1"/>
        <pt x="137" y="64" on="1"/>
        <pt x="137" y="656" on="1"/>
        <pt x="43" y="677" on="1"/>
        <pt x="43" y="720" on="1"/>
        <pt x="331" y="720" on="1"/>
        <pt x="331" y="677" on="1"/>
        <pt x="237" y="656" on="1"/>
      </contour>
      <contour>
        <pt x="14" y="831" on="1"/>
        <pt x="14" y="859" on="0"/>
        <pt x="45" y="890" on="0"/>
        <pt x="72" y="890" on="1"/>
        <pt x="99" y="890" on="0"/>
        <pt x="131" y="858" on="0"/>
        <pt x="131" y="831" on="1"/>
        <pt x="131" y="804" on="0"/>
        <pt x="100" y="773" on="0"/>
        <pt x="72" y="773" on="1"/>
        <pt x="45" y="773" on="0"/>
        <pt x="14" y="804" on="0"/>
      </contour>
      <contour>
        <pt x="244" y="831" on="1"/>
        <pt x="244" y="859" on="0"/>
        <pt x="275" y="890" on="0"/>
        <pt x="302" y="890" on="1"/>
        <pt x="329" y="890" on="0"/>
        <pt x="361" y="858" on="0"/>
        <pt x="361" y="831" on="1"/>
        <pt x="361" y="804" on="0"/>
        <pt x="330" y="773" on="0"/>
        <pt x="302" y="773" on="1"/>
        <pt x="275" y="773" on="0"/>
        <pt x="244" y="804" on="0"/>
      </contour>
    </TTGlyph>
    <TTGlyph name="Idotaccent" xMin="43" yMin="0" xMax="331" yMax="895">
      <contour>
        <pt x="237" y="64" on="1"/>
        <pt x="331" y="43" on="1"/>
        <pt x="331" y="0" on="1"/>
        <pt x="43" y="0" on="1"/>
        <pt x="43" y="43" on="1"/>
        <pt x="137" y="64" on="1"/>
        <pt x="137" y="656" on="1"/>
        <pt x="43" y="677" on="1"/>
        <pt x="43" y="720" on="1"/>
        <pt x="331" y="720" on="1"/>
        <pt x="331" y="677" on="1"/>
        <pt x="237" y="656" on="1"/>
      </contour>
      <contour>
        <pt x="125" y="832" on="1"/>
        <pt x="125" y="861" on="0"/>
        <pt x="158" y="895" on="0"/>
        <pt x="187" y="895" on="1"/>
        <pt x="216" y="895" on="0"/>
        <pt x="250" y="861" on="0"/>
        <pt x="250" y="832" on="1"/>
        <pt x="250" y="803" on="0"/>
        <pt x="216" y="770" on="0"/>
        <pt x="187" y="770" on="1"/>
        <pt x="158" y="770" on="0"/>
        <pt x="125" y="803" on="0"/>
      </contour>
    </TTGlyph>
    <TTGlyph name="Idotbelow" xMin="43" yMin="-190" xMax="331" yMax="720">
      <contour>
        <pt x="237" y="64" on="1"/>
        <pt x="331" y="43" on="1"/>
        <pt x="331" y="0" on="1"/>
        <pt x="43" y="0" on="1"/>
        <pt x="43" y="43" on="1"/>
        <pt x="137" y="64" on="1"/>
        <pt x="137" y="656" on="1"/>
        <pt x="43" y="677" on="1"/>
        <pt x="43" y="720" on="1"/>
        <pt x="331" y="720" on="1"/>
        <pt x="331" y="677" on="1"/>
        <pt x="237" y="656" on="1"/>
      </contour>
      <contour>
        <pt x="126" y="-128" on="1"/>
        <pt x="126" y="-99" on="0"/>
        <pt x="159" y="-65" on="0"/>
        <pt x="188" y="-65" on="1"/>
        <pt x="217" y="-65" on="0"/>
        <pt x="251" y="-99" on="0"/>
        <pt x="251" y="-128" on="1"/>
        <pt x="251" y="-157" on="0"/>
        <pt x="217" y="-190" on="0"/>
        <pt x="188" y="-190" on="1"/>
        <pt x="159" y="-190" on="0"/>
        <pt x="126" y="-157" on="0"/>
      </contour>
    </TTGlyph>
    <TTGlyph name="Igrave" xMin="43" yMin="0" xMax="331" yMax="895">
      <contour>
        <pt x="237" y="64" on="1"/>
        <pt x="331" y="43" on="1"/>
        <pt x="331" y="0" on="1"/>
        <pt x="43" y="0" on="1"/>
        <pt x="43" y="43" on="1"/>
        <pt x="137" y="64" on="1"/>
        <pt x="137" y="656" on="1"/>
        <pt x="43" y="677" on="1"/>
        <pt x="43" y="720" on="1"/>
        <pt x="331" y="720" on="1"/>
        <pt x="331" y="677" on="1"/>
        <pt x="237" y="656" on="1"/>
      </contour>
      <contour>
        <pt x="255" y="770" on="1"/>
        <pt x="202" y="770" on="1"/>
        <pt x="155" y="799" on="1"/>
        <pt x="117" y="822" on="0"/>
        <pt x="82" y="849" on="0"/>
        <pt x="82" y="865" on="1"/>
        <pt x="82" y="895" on="0"/>
        <pt x="119" y="895" on="1"/>
        <pt x="138" y="895" on="0"/>
        <pt x="173" y="874" on="0"/>
        <pt x="194" y="847" on="1"/>
      </contour>
    </TTGlyph>
    <TTGlyph name="Imacron" xMin="43" yMin="0" xMax="331" yMax="861">
      <contour>
        <pt x="237" y="64" on="1"/>
        <pt x="331" y="43" on="1"/>
        <pt x="331" y="0" on="1"/>
        <pt x="43" y="0" on="1"/>
        <pt x="43" y="43" on="1"/>
        <pt x="137" y="64" on="1"/>
        <pt x="137" y="656" on="1"/>
        <pt x="43" y="677" on="1"/>
        <pt x="43" y="720" on="1"/>
        <pt x="331" y="720" on="1"/>
        <pt x="331" y="677" on="1"/>
        <pt x="237" y="656" on="1"/>
      </contour>
      <contour>
        <pt x="47" y="861" on="1"/>
        <pt x="326" y="861" on="1"/>
        <pt x="326" y="796" on="1"/>
        <pt x="47" y="796" on="1"/>
      </contour>
    </TTGlyph>
    <TTGlyph name="Iogonek" xMin="43" yMin="-210" xMax="331" yMax="720">
      <contour>
        <pt x="170" y="-210" on="1"/>
        <pt x="125" y="-210" on="0"/>
        <pt x="70" y="-163" on="0"/>
        <pt x="70" y="-125" on="1"/>
        <pt x="70" y="-57" on="0"/>
        <pt x="160" y="0" on="1"/>
        <pt x="43" y="0" on="1"/>
        <pt x="43" y="43" on="1"/>
        <pt x="137" y="64" on="1"/>
        <pt x="137" y="656" on="1"/>
        <pt x="43" y="677" on="1"/>
        <pt x="43" y="720" on="1"/>
        <pt x="331" y="720" on="1"/>
        <pt x="331" y="677" on="1"/>
        <pt x="237" y="656" on="1"/>
        <pt x="237" y="64" on="1"/>
        <pt x="331" y="43" on="1"/>
        <pt x="331" y="0" on="1"/>
        <pt x="206" y="0" on="1"/>
        <pt x="142" y="-50" on="0"/>
        <pt x="142" y="-105" on="1"/>
        <pt x="142" y="-152" on="0"/>
        <pt x="192" y="-152" on="1"/>
        <pt x="210" y="-152" on="0"/>
        <pt x="248" y="-142" on="0"/>
        <pt x="260" y="-132" on="1"/>
        <pt x="275" y="-154" on="1"/>
        <pt x="239" y="-210" on="0"/>
      </contour>
    </TTGlyph>
    <TTGlyph name="Itilde" xMin="3" yMin="0" xMax="371" yMax="885">
      <contour>
        <pt x="237" y="64" on="1"/>
        <pt x="331" y="43" on="1"/>
        <pt x="331" y="0" on="1"/>
        <pt x="43" y="0" on="1"/>
        <pt x="43" y="43" on="1"/>
        <pt x="137" y="64" on="1"/>
        <pt x="137" y="656" on="1"/>
        <pt x="43" y="677" on="1"/>
        <pt x="43" y="720" on="1"/>
        <pt x="331" y="720" on="1"/>
        <pt x="331" y="677" on="1"/>
        <pt x="237" y="656" on="1"/>
      </contour>
      <contour>
        <pt x="3" y="770" on="1"/>
        <pt x="19" y="885" on="0"/>
        <pt x="115" y="885" on="1"/>
        <pt x="140" y="885" on="0"/>
        <pt x="178" y="868" on="0"/>
        <pt x="210" y="847" on="0"/>
        <pt x="241" y="830" on="0"/>
        <pt x="261" y="830" on="1"/>
        <pt x="291" y="830" on="0"/>
        <pt x="321" y="856" on="0"/>
        <pt x="326" y="880" on="1"/>
        <pt x="371" y="880" on="1"/>
        <pt x="353" y="759" on="0"/>
        <pt x="259" y="759" on="1"/>
        <pt x="234" y="759" on="0"/>
        <pt x="197" y="776" on="0"/>
        <pt x="164" y="797" on="0"/>
        <pt x="132" y="815" on="0"/>
        <pt x="113" y="815" on="1"/>
        <pt x="83" y="815" on="0"/>
        <pt x="53" y="791" on="0"/>
        <pt x="48" y="770" on="1"/>
      </contour>
    </TTGlyph>
    <TTGlyph name="J" xMin="18" yMin="-11" xMax="544" yMax="720">
      <contour>
        <pt x="365" y="656" on="1"/>
        <pt x="266" y="677" on="1"/>
        <pt x="266" y="720" on="1"/>
        <pt x="544" y="720" on="1"/>
        <pt x="544" y="677" on="1"/>
        <pt x="465" y="656" on="1"/>
        <pt x="465" y="218" on="1"/>
        <pt x="465" y="166" on="0"/>
        <pt x="431" y="82" on="0"/>
        <pt x="369" y="22" on="0"/>
        <pt x="282" y="-11" on="0"/>
        <pt x="229" y="-11" on="1"/>
        <pt x="182" y="-11" on="0"/>
        <pt x="104" y="16" on="0"/>
        <pt x="49" y="65" on="0"/>
        <pt x="18" y="134" on="0"/>
        <pt x="18" y="175" on="1"/>
        <pt x="18" y="259" on="0"/>
        <pt x="84" y="259" on="1"/>
        <pt x="113" y="259" on="0"/>
        <pt x="147" y="227" on="0"/>
        <pt x="147" y="201" on="1"/>
        <pt x="147" y="178" on="0"/>
        <pt x="121" y="131" on="0"/>
        <pt x="104" y="123" on="1"/>
        <pt x="104" y="91" on="0"/>
        <pt x="173" y="47" on="0"/>
        <pt x="228" y="47" on="1"/>
        <pt x="299" y="47" on="0"/>
        <pt x="365" y="126" on="0"/>
        <pt x="365" y="207" on="1"/>
      </contour>
    </TTGlyph>
    <TTGlyph name="Jcircumflex" xMin="18" yMin="-11" xMax="583" yMax="890">
      <contour>
        <pt x="365" y="656" on="1"/>
        <pt x="266" y="677" on="1"/>
        <pt x="266" y="720" on="1"/>
        <pt x="544" y="720" on="1"/>
        <pt x="544" y="677" on="1"/>
        <pt x="465" y="656" on="1"/>
        <pt x="465" y="218" on="1"/>
        <pt x="465" y="166" on="0"/>
        <pt x="431" y="82" on="0"/>
        <pt x="369" y="22" on="0"/>
        <pt x="282" y="-11" on="0"/>
        <pt x="229" y="-11" on="1"/>
        <pt x="182" y="-11" on="0"/>
        <pt x="104" y="16" on="0"/>
        <pt x="49" y="65" on="0"/>
        <pt x="18" y="134" on="0"/>
        <pt x="18" y="175" on="1"/>
        <pt x="18" y="259" on="0"/>
        <pt x="84" y="259" on="1"/>
        <pt x="113" y="259" on="0"/>
        <pt x="147" y="227" on="0"/>
        <pt x="147" y="201" on="1"/>
        <pt x="147" y="178" on="0"/>
        <pt x="121" y="131" on="0"/>
        <pt x="104" y="123" on="1"/>
        <pt x="104" y="91" on="0"/>
        <pt x="173" y="47" on="0"/>
        <pt x="228" y="47" on="1"/>
        <pt x="299" y="47" on="0"/>
        <pt x="365" y="126" on="0"/>
        <pt x="365" y="207" on="1"/>
      </contour>
      <contour>
        <pt x="583" y="769" on="1"/>
        <pt x="530" y="769" on="1"/>
        <pt x="417" y="830" on="1"/>
        <pt x="304" y="769" on="1"/>
        <pt x="251" y="769" on="1"/>
        <pt x="369" y="890" on="1"/>
        <pt x="464" y="890" on="1"/>
      </contour>
    </TTGlyph>
    <TTGlyph name="K" xMin="43" yMin="0" xMax="750" yMax="720">
      <contour>
        <pt x="237" y="366" on="1"/>
        <pt x="517" y="656" on="1"/>
        <pt x="426" y="677" on="1"/>
        <pt x="426" y="720" on="1"/>
        <pt x="689" y="720" on="1"/>
        <pt x="689" y="677" on="1"/>
        <pt x="601" y="656" on="1"/>
        <pt x="367" y="424" on="1"/>
        <pt x="666" y="62" on="1"/>
        <pt x="750" y="43" on="1"/>
        <pt x="750" y="0" on="1"/>
        <pt x="471" y="0" on="1"/>
        <pt x="471" y="43" on="1"/>
        <pt x="537" y="63" on="1"/>
        <pt x="300" y="356" on="1"/>
        <pt x="237" y="296" on="1"/>
        <pt x="237" y="64" on="1"/>
        <pt x="321" y="43" on="1"/>
        <pt x="321" y="0" on="1"/>
        <pt x="43" y="0" on="1"/>
        <pt x="43" y="43" on="1"/>
        <pt x="137" y="64" on="1"/>
        <pt x="137" y="656" on="1"/>
        <pt x="43" y="677" on="1"/>
        <pt x="43" y="720" on="1"/>
        <pt x="321" y="720" on="1"/>
        <pt x="321" y="677" on="1"/>
        <pt x="237" y="656" on="1"/>
      </contour>
    </TTGlyph>
    <TTGlyph name="Kcommaaccent" xMin="43" yMin="-235" xMax="750" yMax="720">
      <contour>
        <pt x="237" y="366" on="1"/>
        <pt x="517" y="656" on="1"/>
        <pt x="426" y="677" on="1"/>
        <pt x="426" y="720" on="1"/>
        <pt x="689" y="720" on="1"/>
        <pt x="689" y="677" on="1"/>
        <pt x="601" y="656" on="1"/>
        <pt x="367" y="424" on="1"/>
        <pt x="666" y="62" on="1"/>
        <pt x="750" y="43" on="1"/>
        <pt x="750" y="0" on="1"/>
        <pt x="471" y="0" on="1"/>
        <pt x="471" y="43" on="1"/>
        <pt x="537" y="63" on="1"/>
        <pt x="300" y="356" on="1"/>
        <pt x="237" y="296" on="1"/>
        <pt x="237" y="64" on="1"/>
        <pt x="321" y="43" on="1"/>
        <pt x="321" y="0" on="1"/>
        <pt x="43" y="0" on="1"/>
        <pt x="43" y="43" on="1"/>
        <pt x="137" y="64" on="1"/>
        <pt x="137" y="656" on="1"/>
        <pt x="43" y="677" on="1"/>
        <pt x="43" y="720" on="1"/>
        <pt x="321" y="720" on="1"/>
        <pt x="321" y="677" on="1"/>
        <pt x="237" y="656" on="1"/>
      </contour>
      <contour>
        <pt x="386" y="-44" on="1"/>
        <pt x="412" y="-44" on="0"/>
        <pt x="440" y="-78" on="0"/>
        <pt x="440" y="-109" on="1"/>
        <pt x="440" y="-148" on="0"/>
        <pt x="401" y="-209" on="0"/>
        <pt x="359" y="-235" on="1"/>
        <pt x="337" y="-208" on="1"/>
        <pt x="366" y="-185" on="0"/>
        <pt x="388" y="-152" on="0"/>
        <pt x="390" y="-135" on="1"/>
        <pt x="387" y="-133" on="1"/>
        <pt x="385" y="-135" on="0"/>
        <pt x="374" y="-139" on="0"/>
        <pt x="369" y="-139" on="1"/>
        <pt x="352" y="-139" on="0"/>
        <pt x="330" y="-113" on="0"/>
        <pt x="330" y="-94" on="1"/>
        <pt x="330" y="-73" on="0"/>
        <pt x="362" y="-44" on="0"/>
      </contour>
    </TTGlyph>
    <TTGlyph name="L" xMin="43" yMin="0" xMax="598" yMax="720">
      <contour>
        <pt x="237" y="60" on="1"/>
        <pt x="509" y="60" on="1"/>
        <pt x="543" y="233" on="1"/>
        <pt x="598" y="233" on="1"/>
        <pt x="598" y="0" on="1"/>
        <pt x="43" y="0" on="1"/>
        <pt x="43" y="43" on="1"/>
        <pt x="137" y="64" on="1"/>
        <pt x="137" y="656" on="1"/>
        <pt x="43" y="677" on="1"/>
        <pt x="43" y="720" on="1"/>
        <pt x="341" y="720" on="1"/>
        <pt x="341" y="677" on="1"/>
        <pt x="237" y="656" on="1"/>
      </contour>
    </TTGlyph>
    <TTGlyph name="Lacute" xMin="43" yMin="0" xMax="598" yMax="895">
      <contour>
        <pt x="237" y="60" on="1"/>
        <pt x="509" y="60" on="1"/>
        <pt x="543" y="233" on="1"/>
        <pt x="598" y="233" on="1"/>
        <pt x="598" y="0" on="1"/>
        <pt x="43" y="0" on="1"/>
        <pt x="43" y="43" on="1"/>
        <pt x="137" y="64" on="1"/>
        <pt x="137" y="656" on="1"/>
        <pt x="43" y="677" on="1"/>
        <pt x="43" y="720" on="1"/>
        <pt x="341" y="720" on="1"/>
        <pt x="341" y="677" on="1"/>
        <pt x="237" y="656" on="1"/>
      </contour>
      <contour>
        <pt x="220" y="847" on="1"/>
        <pt x="241" y="874" on="0"/>
        <pt x="276" y="895" on="0"/>
        <pt x="295" y="895" on="1"/>
        <pt x="332" y="895" on="0"/>
        <pt x="332" y="865" on="1"/>
        <pt x="332" y="849" on="0"/>
        <pt x="297" y="822" on="0"/>
        <pt x="259" y="799" on="1"/>
        <pt x="212" y="770" on="1"/>
        <pt x="159" y="770" on="1"/>
      </contour>
    </TTGlyph>
    <TTGlyph name="Lcaron" xMin="20" yMin="0" xMax="598" yMax="890">
      <contour>
        <pt x="237" y="60" on="1"/>
        <pt x="509" y="60" on="1"/>
        <pt x="543" y="233" on="1"/>
        <pt x="598" y="233" on="1"/>
        <pt x="598" y="0" on="1"/>
        <pt x="43" y="0" on="1"/>
        <pt x="43" y="43" on="1"/>
        <pt x="137" y="64" on="1"/>
        <pt x="137" y="656" on="1"/>
        <pt x="43" y="677" on="1"/>
        <pt x="43" y="720" on="1"/>
        <pt x="341" y="720" on="1"/>
        <pt x="341" y="677" on="1"/>
        <pt x="237" y="656" on="1"/>
      </contour>
      <contour>
        <pt x="233" y="769" on="1"/>
        <pt x="138" y="769" on="1"/>
        <pt x="20" y="890" on="1"/>
        <pt x="73" y="890" on="1"/>
        <pt x="186" y="829" on="1"/>
        <pt x="299" y="890" on="1"/>
        <pt x="352" y="890" on="1"/>
      </contour>
    </TTGlyph>
    <TTGlyph name="Lcommaaccent" xMin="43" yMin="-235" xMax="598" yMax="720">
      <contour>
        <pt x="237" y="60" on="1"/>
        <pt x="509" y="60" on="1"/>
        <pt x="543" y="233" on="1"/>
        <pt x="598" y="233" on="1"/>
        <pt x="598" y="0" on="1"/>
        <pt x="43" y="0" on="1"/>
        <pt x="43" y="43" on="1"/>
        <pt x="137" y="64" on="1"/>
        <pt x="137" y="656" on="1"/>
        <pt x="43" y="677" on="1"/>
        <pt x="43" y="720" on="1"/>
        <pt x="341" y="720" on="1"/>
        <pt x="341" y="677" on="1"/>
        <pt x="237" y="656" on="1"/>
      </contour>
      <contour>
        <pt x="335" y="-44" on="1"/>
        <pt x="361" y="-44" on="0"/>
        <pt x="389" y="-78" on="0"/>
        <pt x="389" y="-109" on="1"/>
        <pt x="389" y="-148" on="0"/>
        <pt x="350" y="-209" on="0"/>
        <pt x="308" y="-235" on="1"/>
        <pt x="286" y="-208" on="1"/>
        <pt x="315" y="-185" on="0"/>
        <pt x="337" y="-152" on="0"/>
        <pt x="339" y="-135" on="1"/>
        <pt x="336" y="-133" on="1"/>
        <pt x="334" y="-135" on="0"/>
        <pt x="323" y="-139" on="0"/>
        <pt x="318" y="-139" on="1"/>
        <pt x="301" y="-139" on="0"/>
        <pt x="279" y="-113" on="0"/>
        <pt x="279" y="-94" on="1"/>
        <pt x="279" y="-73" on="0"/>
        <pt x="311" y="-44" on="0"/>
      </contour>
    </TTGlyph>
    <TTGlyph name="Ldot" xMin="43" yMin="0" xMax="598" yMax="720">
      <contour>
        <pt x="237" y="60" on="1"/>
        <pt x="509" y="60" on="1"/>
        <pt x="543" y="233" on="1"/>
        <pt x="598" y="233" on="1"/>
        <pt x="598" y="0" on="1"/>
        <pt x="43" y="0" on="1"/>
        <pt x="43" y="43" on="1"/>
        <pt x="137" y="64" on="1"/>
        <pt x="137" y="656" on="1"/>
        <pt x="43" y="677" on="1"/>
        <pt x="43" y="720" on="1"/>
        <pt x="341" y="720" on="1"/>
        <pt x="341" y="677" on="1"/>
        <pt x="237" y="656" on="1"/>
      </contour>
      <contour>
        <pt x="331" y="360" on="1"/>
        <pt x="331" y="390" on="0"/>
        <pt x="365" y="425" on="0"/>
        <pt x="394" y="425" on="1"/>
        <pt x="423" y="425" on="0"/>
        <pt x="458" y="389" on="0"/>
        <pt x="458" y="360" on="1"/>
        <pt x="458" y="331" on="0"/>
        <pt x="423" y="297" on="0"/>
        <pt x="394" y="297" on="1"/>
        <pt x="364" y="297" on="0"/>
        <pt x="331" y="330" on="0"/>
      </contour>
    </TTGlyph>
    <TTGlyph name="Lslash" xMin="43" yMin="0" xMax="598" yMax="720">
      <contour>
        <pt x="237" y="433" on="1"/>
        <pt x="345" y="497" on="1"/>
        <pt x="345" y="428" on="1"/>
        <pt x="237" y="364" on="1"/>
        <pt x="237" y="60" on="1"/>
        <pt x="509" y="60" on="1"/>
        <pt x="543" y="233" on="1"/>
        <pt x="598" y="233" on="1"/>
        <pt x="598" y="0" on="1"/>
        <pt x="43" y="0" on="1"/>
        <pt x="43" y="43" on="1"/>
        <pt x="137" y="64" on="1"/>
        <pt x="137" y="306" on="1"/>
        <pt x="57" y="259" on="1"/>
        <pt x="57" y="327" on="1"/>
        <pt x="137" y="374" on="1"/>
        <pt x="137" y="656" on="1"/>
        <pt x="43" y="677" on="1"/>
        <pt x="43" y="720" on="1"/>
        <pt x="341" y="720" on="1"/>
        <pt x="341" y="677" on="1"/>
        <pt x="237" y="656" on="1"/>
      </contour>
    </TTGlyph>
    <TTGlyph name="M" xMin="48" yMin="0" xMax="913" yMax="720">
      <contour>
        <pt x="679" y="720" on="1"/>
        <pt x="913" y="720" on="1"/>
        <pt x="913" y="677" on="1"/>
        <pt x="829" y="656" on="1"/>
        <pt x="829" y="64" on="1"/>
        <pt x="913" y="43" on="1"/>
        <pt x="913" y="0" on="1"/>
        <pt x="656" y="0" on="1"/>
        <pt x="656" y="43" on="1"/>
        <pt x="729" y="64" on="1"/>
        <pt x="729" y="655" on="1"/>
        <pt x="523" y="0" on="1"/>
        <pt x="405" y="0" on="1"/>
        <pt x="197" y="655" on="1"/>
        <pt x="197" y="64" on="1"/>
        <pt x="270" y="43" on="1"/>
        <pt x="270" y="0" on="1"/>
        <pt x="48" y="0" on="1"/>
        <pt x="48" y="43" on="1"/>
        <pt x="132" y="64" on="1"/>
        <pt x="132" y="656" on="1"/>
        <pt x="48" y="677" on="1"/>
        <pt x="48" y="720" on="1"/>
        <pt x="286" y="720" on="1"/>
        <pt x="482" y="91" on="1"/>
        <pt x="486" y="91" on="1"/>
      </contour>
    </TTGlyph>
    <TTGlyph name="N" xMin="48" yMin="0" xMax="762" yMax="720">
      <contour>
        <pt x="132" y="656" on="1"/>
        <pt x="48" y="677" on="1"/>
        <pt x="48" y="720" on="1"/>
        <pt x="239" y="720" on="1"/>
        <pt x="613" y="167" on="1"/>
        <pt x="613" y="656" on="1"/>
        <pt x="529" y="677" on="1"/>
        <pt x="529" y="720" on="1"/>
        <pt x="762" y="720" on="1"/>
        <pt x="762" y="677" on="1"/>
        <pt x="678" y="656" on="1"/>
        <pt x="678" y="0" on="1"/>
        <pt x="607" y="0" on="1"/>
        <pt x="197" y="599" on="1"/>
        <pt x="197" y="64" on="1"/>
        <pt x="281" y="43" on="1"/>
        <pt x="281" y="0" on="1"/>
        <pt x="48" y="0" on="1"/>
        <pt x="48" y="43" on="1"/>
        <pt x="132" y="64" on="1"/>
      </contour>
    </TTGlyph>
    <TTGlyph name="Nacute" xMin="48" yMin="0" xMax="762" yMax="895">
      <contour>
        <pt x="132" y="656" on="1"/>
        <pt x="48" y="677" on="1"/>
        <pt x="48" y="720" on="1"/>
        <pt x="239" y="720" on="1"/>
        <pt x="613" y="167" on="1"/>
        <pt x="613" y="656" on="1"/>
        <pt x="529" y="677" on="1"/>
        <pt x="529" y="720" on="1"/>
        <pt x="762" y="720" on="1"/>
        <pt x="762" y="677" on="1"/>
        <pt x="678" y="656" on="1"/>
        <pt x="678" y="0" on="1"/>
        <pt x="607" y="0" on="1"/>
        <pt x="197" y="599" on="1"/>
        <pt x="197" y="64" on="1"/>
        <pt x="281" y="43" on="1"/>
        <pt x="281" y="0" on="1"/>
        <pt x="48" y="0" on="1"/>
        <pt x="48" y="43" on="1"/>
        <pt x="132" y="64" on="1"/>
      </contour>
      <contour>
        <pt x="434" y="847" on="1"/>
        <pt x="455" y="874" on="0"/>
        <pt x="490" y="895" on="0"/>
        <pt x="509" y="895" on="1"/>
        <pt x="546" y="895" on="0"/>
        <pt x="546" y="865" on="1"/>
        <pt x="546" y="849" on="0"/>
        <pt x="511" y="822" on="0"/>
        <pt x="473" y="799" on="1"/>
        <pt x="426" y="770" on="1"/>
        <pt x="373" y="770" on="1"/>
      </contour>
    </TTGlyph>
    <TTGlyph name="Ncaron" xMin="48" yMin="0" xMax="762" yMax="890">
      <contour>
        <pt x="132" y="656" on="1"/>
        <pt x="48" y="677" on="1"/>
        <pt x="48" y="720" on="1"/>
        <pt x="239" y="720" on="1"/>
        <pt x="613" y="167" on="1"/>
        <pt x="613" y="656" on="1"/>
        <pt x="529" y="677" on="1"/>
        <pt x="529" y="720" on="1"/>
        <pt x="762" y="720" on="1"/>
        <pt x="762" y="677" on="1"/>
        <pt x="678" y="656" on="1"/>
        <pt x="678" y="0" on="1"/>
        <pt x="607" y="0" on="1"/>
        <pt x="197" y="599" on="1"/>
        <pt x="197" y="64" on="1"/>
        <pt x="281" y="43" on="1"/>
        <pt x="281" y="0" on="1"/>
        <pt x="48" y="0" on="1"/>
        <pt x="48" y="43" on="1"/>
        <pt x="132" y="64" on="1"/>
      </contour>
      <contour>
        <pt x="447" y="769" on="1"/>
        <pt x="352" y="769" on="1"/>
        <pt x="234" y="890" on="1"/>
        <pt x="287" y="890" on="1"/>
        <pt x="400" y="829" on="1"/>
        <pt x="513" y="890" on="1"/>
        <pt x="566" y="890" on="1"/>
      </contour>
    </TTGlyph>
    <TTGlyph name="Ncommaaccent" xMin="48" yMin="-235" xMax="762" yMax="720">
      <contour>
        <pt x="132" y="656" on="1"/>
        <pt x="48" y="677" on="1"/>
        <pt x="48" y="720" on="1"/>
        <pt x="239" y="720" on="1"/>
        <pt x="613" y="167" on="1"/>
        <pt x="613" y="656" on="1"/>
        <pt x="529" y="677" on="1"/>
        <pt x="529" y="720" on="1"/>
        <pt x="762" y="720" on="1"/>
        <pt x="762" y="677" on="1"/>
        <pt x="678" y="656" on="1"/>
        <pt x="678" y="0" on="1"/>
        <pt x="607" y="0" on="1"/>
        <pt x="197" y="599" on="1"/>
        <pt x="197" y="64" on="1"/>
        <pt x="281" y="43" on="1"/>
        <pt x="281" y="0" on="1"/>
        <pt x="48" y="0" on="1"/>
        <pt x="48" y="43" on="1"/>
        <pt x="132" y="64" on="1"/>
      </contour>
      <contour>
        <pt x="401" y="-44" on="1"/>
        <pt x="427" y="-44" on="0"/>
        <pt x="455" y="-78" on="0"/>
        <pt x="455" y="-109" on="1"/>
        <pt x="455" y="-148" on="0"/>
        <pt x="416" y="-209" on="0"/>
        <pt x="374" y="-235" on="1"/>
        <pt x="352" y="-208" on="1"/>
        <pt x="381" y="-185" on="0"/>
        <pt x="403" y="-152" on="0"/>
        <pt x="405" y="-135" on="1"/>
        <pt x="402" y="-133" on="1"/>
        <pt x="400" y="-135" on="0"/>
        <pt x="389" y="-139" on="0"/>
        <pt x="384" y="-139" on="1"/>
        <pt x="367" y="-139" on="0"/>
        <pt x="345" y="-113" on="0"/>
        <pt x="345" y="-94" on="1"/>
        <pt x="345" y="-73" on="0"/>
        <pt x="377" y="-44" on="0"/>
      </contour>
    </TTGlyph>
    <TTGlyph name="Ndotaccent" xMin="48" yMin="0" xMax="762" yMax="895">
      <contour>
        <pt x="132" y="656" on="1"/>
        <pt x="48" y="677" on="1"/>
        <pt x="48" y="720" on="1"/>
        <pt x="239" y="720" on="1"/>
        <pt x="613" y="167" on="1"/>
        <pt x="613" y="656" on="1"/>
        <pt x="529" y="677" on="1"/>
        <pt x="529" y="720" on="1"/>
        <pt x="762" y="720" on="1"/>
        <pt x="762" y="677" on="1"/>
        <pt x="678" y="656" on="1"/>
        <pt x="678" y="0" on="1"/>
        <pt x="607" y="0" on="1"/>
        <pt x="197" y="599" on="1"/>
        <pt x="197" y="64" on="1"/>
        <pt x="281" y="43" on="1"/>
        <pt x="281" y="0" on="1"/>
        <pt x="48" y="0" on="1"/>
        <pt x="48" y="43" on="1"/>
        <pt x="132" y="64" on="1"/>
      </contour>
      <contour>
        <pt x="338" y="832" on="1"/>
        <pt x="338" y="861" on="0"/>
        <pt x="371" y="895" on="0"/>
        <pt x="400" y="895" on="1"/>
        <pt x="429" y="895" on="0"/>
        <pt x="463" y="861" on="0"/>
        <pt x="463" y="832" on="1"/>
        <pt x="463" y="803" on="0"/>
        <pt x="429" y="770" on="0"/>
        <pt x="400" y="770" on="1"/>
        <pt x="371" y="770" on="0"/>
        <pt x="338" y="803" on="0"/>
      </contour>
    </TTGlyph>
    <TTGlyph name="Ntilde" xMin="48" yMin="0" xMax="762" yMax="885">
      <contour>
        <pt x="132" y="656" on="1"/>
        <pt x="48" y="677" on="1"/>
        <pt x="48" y="720" on="1"/>
        <pt x="239" y="720" on="1"/>
        <pt x="613" y="167" on="1"/>
        <pt x="613" y="656" on="1"/>
        <pt x="529" y="677" on="1"/>
        <pt x="529" y="720" on="1"/>
        <pt x="762" y="720" on="1"/>
        <pt x="762" y="677" on="1"/>
        <pt x="678" y="656" on="1"/>
        <pt x="678" y="0" on="1"/>
        <pt x="607" y="0" on="1"/>
        <pt x="197" y="599" on="1"/>
        <pt x="197" y="64" on="1"/>
        <pt x="281" y="43" on="1"/>
        <pt x="281" y="0" on="1"/>
        <pt x="48" y="0" on="1"/>
        <pt x="48" y="43" on="1"/>
        <pt x="132" y="64" on="1"/>
      </contour>
      <contour>
        <pt x="216" y="770" on="1"/>
        <pt x="232" y="885" on="0"/>
        <pt x="328" y="885" on="1"/>
        <pt x="353" y="885" on="0"/>
        <pt x="391" y="868" on="0"/>
        <pt x="423" y="847" on="0"/>
        <pt x="454" y="830" on="0"/>
        <pt x="474" y="830" on="1"/>
        <pt x="504" y="830" on="0"/>
        <pt x="534" y="856" on="0"/>
        <pt x="539" y="880" on="1"/>
        <pt x="584" y="880" on="1"/>
        <pt x="566" y="759" on="0"/>
        <pt x="472" y="759" on="1"/>
        <pt x="447" y="759" on="0"/>
        <pt x="410" y="776" on="0"/>
        <pt x="377" y="797" on="0"/>
        <pt x="345" y="815" on="0"/>
        <pt x="326" y="815" on="1"/>
        <pt x="296" y="815" on="0"/>
        <pt x="266" y="791" on="0"/>
        <pt x="261" y="770" on="1"/>
      </contour>
    </TTGlyph>
    <TTGlyph name="O" xMin="53" yMin="-10" xMax="711" yMax="730">
      <contour>
        <pt x="711" y="368" on="1"/>
        <pt x="711" y="280" on="0"/>
        <pt x="659" y="128" on="0"/>
        <pt x="611" y="77" on="1"/>
        <pt x="530" y="-10" on="0"/>
        <pt x="380" y="-10" on="1"/>
        <pt x="227" y="-10" on="0"/>
        <pt x="149" y="74" on="1"/>
        <pt x="103" y="122" on="0"/>
        <pt x="53" y="267" on="0"/>
        <pt x="53" y="352" on="1"/>
        <pt x="53" y="440" on="0"/>
        <pt x="105" y="592" on="0"/>
        <pt x="153" y="643" on="1"/>
        <pt x="195" y="688" on="0"/>
        <pt x="306" y="730" on="0"/>
        <pt x="382" y="730" on="1"/>
        <pt x="533" y="730" on="0"/>
        <pt x="614" y="646" on="1"/>
        <pt x="661" y="598" on="0"/>
        <pt x="711" y="453" on="0"/>
      </contour>
      <contour>
        <pt x="168" y="372" on="1"/>
        <pt x="168" y="288" on="0"/>
        <pt x="196" y="160" on="0"/>
        <pt x="222" y="119" on="1"/>
        <pt x="272" y="45" on="0"/>
        <pt x="385" y="45" on="1"/>
        <pt x="491" y="45" on="0"/>
        <pt x="541" y="111" on="1"/>
        <pt x="596" y="186" on="0"/>
        <pt x="596" y="354" on="1"/>
        <pt x="596" y="437" on="0"/>
        <pt x="568" y="563" on="0"/>
        <pt x="541" y="602" on="1"/>
        <pt x="489" y="676" on="0"/>
        <pt x="379" y="676" on="1"/>
        <pt x="274" y="676" on="0"/>
        <pt x="223" y="610" on="1"/>
        <pt x="168" y="537" on="0"/>
      </contour>
    </TTGlyph>
    <TTGlyph name="OE" xMin="53" yMin="0" xMax="1015" yMax="720">
      <contour>
        <pt x="808" y="238" on="1"/>
        <pt x="790" y="340" on="1"/>
        <pt x="624" y="340" on="1"/>
        <pt x="624" y="60" on="1"/>
        <pt x="926" y="60" on="1"/>
        <pt x="957" y="223" on="1"/>
        <pt x="1015" y="223" on="1"/>
        <pt x="1015" y="0" on="1"/>
        <pt x="391" y="0" on="1"/>
        <pt x="311" y="0" on="0"/>
        <pt x="195" y="42" on="0"/>
        <pt x="153" y="87" on="1"/>
        <pt x="105" y="137" on="0"/>
        <pt x="53" y="283" on="0"/>
        <pt x="53" y="368" on="1"/>
        <pt x="53" y="448" on="0"/>
        <pt x="103" y="588" on="0"/>
        <pt x="150" y="636" on="1"/>
        <pt x="233" y="720" on="0"/>
        <pt x="382" y="720" on="1"/>
        <pt x="993" y="720" on="1"/>
        <pt x="993" y="508" on="1"/>
        <pt x="941" y="508" on="1"/>
        <pt x="909" y="662" on="1"/>
        <pt x="624" y="662" on="1"/>
        <pt x="624" y="400" on="1"/>
        <pt x="790" y="400" on="1"/>
        <pt x="808" y="502" on="1"/>
        <pt x="859" y="502" on="1"/>
        <pt x="859" y="238" on="1"/>
      </contour>
      <contour>
        <pt x="524" y="660" on="1"/>
        <pt x="389" y="660" on="1"/>
        <pt x="275" y="660" on="0"/>
        <pt x="223" y="586" on="1"/>
        <pt x="168" y="510" on="0"/>
        <pt x="168" y="354" on="1"/>
        <pt x="168" y="196" on="0"/>
        <pt x="223" y="126" on="1"/>
        <pt x="273" y="60" on="0"/>
        <pt x="379" y="60" on="1"/>
        <pt x="524" y="60" on="1"/>
      </contour>
    </TTGlyph>
    <TTGlyph name="Oacute" xMin="53" yMin="-10" xMax="711" yMax="895">
      <contour>
        <pt x="711" y="368" on="1"/>
        <pt x="711" y="280" on="0"/>
        <pt x="659" y="128" on="0"/>
        <pt x="611" y="77" on="1"/>
        <pt x="530" y="-10" on="0"/>
        <pt x="380" y="-10" on="1"/>
        <pt x="227" y="-10" on="0"/>
        <pt x="149" y="74" on="1"/>
        <pt x="103" y="122" on="0"/>
        <pt x="53" y="267" on="0"/>
        <pt x="53" y="352" on="1"/>
        <pt x="53" y="440" on="0"/>
        <pt x="105" y="592" on="0"/>
        <pt x="153" y="643" on="1"/>
        <pt x="195" y="688" on="0"/>
        <pt x="306" y="730" on="0"/>
        <pt x="382" y="730" on="1"/>
        <pt x="533" y="730" on="0"/>
        <pt x="614" y="646" on="1"/>
        <pt x="661" y="598" on="0"/>
        <pt x="711" y="453" on="0"/>
      </contour>
      <contour>
        <pt x="168" y="372" on="1"/>
        <pt x="168" y="288" on="0"/>
        <pt x="196" y="160" on="0"/>
        <pt x="222" y="119" on="1"/>
        <pt x="272" y="45" on="0"/>
        <pt x="385" y="45" on="1"/>
        <pt x="491" y="45" on="0"/>
        <pt x="541" y="111" on="1"/>
        <pt x="596" y="186" on="0"/>
        <pt x="596" y="354" on="1"/>
        <pt x="596" y="437" on="0"/>
        <pt x="568" y="563" on="0"/>
        <pt x="541" y="602" on="1"/>
        <pt x="489" y="676" on="0"/>
        <pt x="379" y="676" on="1"/>
        <pt x="274" y="676" on="0"/>
        <pt x="223" y="610" on="1"/>
        <pt x="168" y="537" on="0"/>
      </contour>
      <contour>
        <pt x="416" y="847" on="1"/>
        <pt x="437" y="874" on="0"/>
        <pt x="472" y="895" on="0"/>
        <pt x="491" y="895" on="1"/>
        <pt x="528" y="895" on="0"/>
        <pt x="528" y="865" on="1"/>
        <pt x="528" y="849" on="0"/>
        <pt x="493" y="822" on="0"/>
        <pt x="455" y="799" on="1"/>
        <pt x="408" y="770" on="1"/>
        <pt x="355" y="770" on="1"/>
      </contour>
    </TTGlyph>
    <TTGlyph name="Obreve" xMin="53" yMin="-10" xMax="711" yMax="890">
      <contour>
        <pt x="711" y="368" on="1"/>
        <pt x="711" y="280" on="0"/>
        <pt x="659" y="128" on="0"/>
        <pt x="611" y="77" on="1"/>
        <pt x="530" y="-10" on="0"/>
        <pt x="380" y="-10" on="1"/>
        <pt x="227" y="-10" on="0"/>
        <pt x="149" y="74" on="1"/>
        <pt x="103" y="122" on="0"/>
        <pt x="53" y="267" on="0"/>
        <pt x="53" y="352" on="1"/>
        <pt x="53" y="440" on="0"/>
        <pt x="105" y="592" on="0"/>
        <pt x="153" y="643" on="1"/>
        <pt x="195" y="688" on="0"/>
        <pt x="306" y="730" on="0"/>
        <pt x="382" y="730" on="1"/>
        <pt x="533" y="730" on="0"/>
        <pt x="614" y="646" on="1"/>
        <pt x="661" y="598" on="0"/>
        <pt x="711" y="453" on="0"/>
      </contour>
      <contour>
        <pt x="168" y="372" on="1"/>
        <pt x="168" y="288" on="0"/>
        <pt x="196" y="160" on="0"/>
        <pt x="222" y="119" on="1"/>
        <pt x="272" y="45" on="0"/>
        <pt x="385" y="45" on="1"/>
        <pt x="491" y="45" on="0"/>
        <pt x="541" y="111" on="1"/>
        <pt x="596" y="186" on="0"/>
        <pt x="596" y="354" on="1"/>
        <pt x="596" y="437" on="0"/>
        <pt x="568" y="563" on="0"/>
        <pt x="541" y="602" on="1"/>
        <pt x="489" y="676" on="0"/>
        <pt x="379" y="676" on="1"/>
        <pt x="274" y="676" on="0"/>
        <pt x="223" y="610" on="1"/>
        <pt x="168" y="537" on="0"/>
      </contour>
      <contour>
        <pt x="535" y="890" on="1"/>
        <pt x="533" y="823" on="0"/>
        <pt x="447" y="749" on="0"/>
        <pt x="382" y="749" on="1"/>
        <pt x="314" y="749" on="0"/>
        <pt x="241" y="827" on="0"/>
        <pt x="241" y="890" on="1"/>
        <pt x="289" y="890" on="1"/>
        <pt x="291" y="852" on="0"/>
        <pt x="343" y="818" on="0"/>
        <pt x="382" y="818" on="1"/>
        <pt x="432" y="818" on="0"/>
        <pt x="487" y="852" on="0"/>
        <pt x="487" y="890" on="1"/>
      </contour>
    </TTGlyph>
    <TTGlyph name="Ocircumflex" xMin="53" yMin="-10" xMax="711" yMax="890">
      <contour>
        <pt x="711" y="368" on="1"/>
        <pt x="711" y="280" on="0"/>
        <pt x="659" y="128" on="0"/>
        <pt x="611" y="77" on="1"/>
        <pt x="530" y="-10" on="0"/>
        <pt x="380" y="-10" on="1"/>
        <pt x="227" y="-10" on="0"/>
        <pt x="149" y="74" on="1"/>
        <pt x="103" y="122" on="0"/>
        <pt x="53" y="267" on="0"/>
        <pt x="53" y="352" on="1"/>
        <pt x="53" y="440" on="0"/>
        <pt x="105" y="592" on="0"/>
        <pt x="153" y="643" on="1"/>
        <pt x="195" y="688" on="0"/>
        <pt x="306" y="730" on="0"/>
        <pt x="382" y="730" on="1"/>
        <pt x="533" y="730" on="0"/>
        <pt x="614" y="646" on="1"/>
        <pt x="661" y="598" on="0"/>
        <pt x="711" y="453" on="0"/>
      </contour>
      <contour>
        <pt x="168" y="372" on="1"/>
        <pt x="168" y="288" on="0"/>
        <pt x="196" y="160" on="0"/>
        <pt x="222" y="119" on="1"/>
        <pt x="272" y="45" on="0"/>
        <pt x="385" y="45" on="1"/>
        <pt x="491" y="45" on="0"/>
        <pt x="541" y="111" on="1"/>
        <pt x="596" y="186" on="0"/>
        <pt x="596" y="354" on="1"/>
        <pt x="596" y="437" on="0"/>
        <pt x="568" y="563" on="0"/>
        <pt x="541" y="602" on="1"/>
        <pt x="489" y="676" on="0"/>
        <pt x="379" y="676" on="1"/>
        <pt x="274" y="676" on="0"/>
        <pt x="223" y="610" on="1"/>
        <pt x="168" y="537" on="0"/>
      </contour>
      <contour>
        <pt x="548" y="769" on="1"/>
        <pt x="495" y="769" on="1"/>
        <pt x="382" y="830" on="1"/>
        <pt x="269" y="769" on="1"/>
        <pt x="216" y="769" on="1"/>
        <pt x="334" y="890" on="1"/>
        <pt x="429" y="890" on="1"/>
      </contour>
    </TTGlyph>
    <TTGlyph name="Odieresis" xMin="53" yMin="-10" xMax="711" yMax="890">
      <contour>
        <pt x="711" y="368" on="1"/>
        <pt x="711" y="280" on="0"/>
        <pt x="659" y="128" on="0"/>
        <pt x="611" y="77" on="1"/>
        <pt x="530" y="-10" on="0"/>
        <pt x="380" y="-10" on="1"/>
        <pt x="227" y="-10" on="0"/>
        <pt x="149" y="74" on="1"/>
        <pt x="103" y="122" on="0"/>
        <pt x="53" y="267" on="0"/>
        <pt x="53" y="352" on="1"/>
        <pt x="53" y="440" on="0"/>
        <pt x="105" y="592" on="0"/>
        <pt x="153" y="643" on="1"/>
        <pt x="195" y="688" on="0"/>
        <pt x="306" y="730" on="0"/>
        <pt x="382" y="730" on="1"/>
        <pt x="533" y="730" on="0"/>
        <pt x="614" y="646" on="1"/>
        <pt x="661" y="598" on="0"/>
        <pt x="711" y="453" on="0"/>
      </contour>
      <contour>
        <pt x="168" y="372" on="1"/>
        <pt x="168" y="288" on="0"/>
        <pt x="196" y="160" on="0"/>
        <pt x="222" y="119" on="1"/>
        <pt x="272" y="45" on="0"/>
        <pt x="385" y="45" on="1"/>
        <pt x="491" y="45" on="0"/>
        <pt x="541" y="111" on="1"/>
        <pt x="596" y="186" on="0"/>
        <pt x="596" y="354" on="1"/>
        <pt x="596" y="437" on="0"/>
        <pt x="568" y="563" on="0"/>
        <pt x="541" y="602" on="1"/>
        <pt x="489" y="676" on="0"/>
        <pt x="379" y="676" on="1"/>
        <pt x="274" y="676" on="0"/>
        <pt x="223" y="610" on="1"/>
        <pt x="168" y="537" on="0"/>
      </contour>
      <contour>
        <pt x="209" y="831" on="1"/>
        <pt x="209" y="859" on="0"/>
        <pt x="240" y="890" on="0"/>
        <pt x="267" y="890" on="1"/>
        <pt x="294" y="890" on="0"/>
        <pt x="326" y="858" on="0"/>
        <pt x="326" y="831" on="1"/>
        <pt x="326" y="804" on="0"/>
        <pt x="295" y="773" on="0"/>
        <pt x="267" y="773" on="1"/>
        <pt x="240" y="773" on="0"/>
        <pt x="209" y="804" on="0"/>
      </contour>
      <contour>
        <pt x="439" y="831" on="1"/>
        <pt x="439" y="859" on="0"/>
        <pt x="470" y="890" on="0"/>
        <pt x="497" y="890" on="1"/>
        <pt x="524" y="890" on="0"/>
        <pt x="556" y="858" on="0"/>
        <pt x="556" y="831" on="1"/>
        <pt x="556" y="804" on="0"/>
        <pt x="525" y="773" on="0"/>
        <pt x="497" y="773" on="1"/>
        <pt x="470" y="773" on="0"/>
        <pt x="439" y="804" on="0"/>
      </contour>
    </TTGlyph>
    <TTGlyph name="Odotbelow" xMin="53" yMin="-190" xMax="711" yMax="730">
      <contour>
        <pt x="711" y="368" on="1"/>
        <pt x="711" y="280" on="0"/>
        <pt x="659" y="128" on="0"/>
        <pt x="611" y="77" on="1"/>
        <pt x="530" y="-10" on="0"/>
        <pt x="380" y="-10" on="1"/>
        <pt x="227" y="-10" on="0"/>
        <pt x="149" y="74" on="1"/>
        <pt x="103" y="122" on="0"/>
        <pt x="53" y="267" on="0"/>
        <pt x="53" y="352" on="1"/>
        <pt x="53" y="440" on="0"/>
        <pt x="105" y="592" on="0"/>
        <pt x="153" y="643" on="1"/>
        <pt x="195" y="688" on="0"/>
        <pt x="306" y="730" on="0"/>
        <pt x="382" y="730" on="1"/>
        <pt x="533" y="730" on="0"/>
        <pt x="614" y="646" on="1"/>
        <pt x="661" y="598" on="0"/>
        <pt x="711" y="453" on="0"/>
      </contour>
      <contour>
        <pt x="168" y="372" on="1"/>
        <pt x="168" y="288" on="0"/>
        <pt x="196" y="160" on="0"/>
        <pt x="222" y="119" on="1"/>
        <pt x="272" y="45" on="0"/>
        <pt x="385" y="45" on="1"/>
        <pt x="491" y="45" on="0"/>
        <pt x="541" y="111" on="1"/>
        <pt x="596" y="186" on="0"/>
        <pt x="596" y="354" on="1"/>
        <pt x="596" y="437" on="0"/>
        <pt x="568" y="563" on="0"/>
        <pt x="541" y="602" on="1"/>
        <pt x="489" y="676" on="0"/>
        <pt x="379" y="676" on="1"/>
        <pt x="274" y="676" on="0"/>
        <pt x="223" y="610" on="1"/>
        <pt x="168" y="537" on="0"/>
      </contour>
      <contour>
        <pt x="318" y="-128" on="1"/>
        <pt x="318" y="-99" on="0"/>
        <pt x="351" y="-65" on="0"/>
        <pt x="380" y="-65" on="1"/>
        <pt x="409" y="-65" on="0"/>
        <pt x="443" y="-99" on="0"/>
        <pt x="443" y="-128" on="1"/>
        <pt x="443" y="-157" on="0"/>
        <pt x="409" y="-190" on="0"/>
        <pt x="380" y="-190" on="1"/>
        <pt x="351" y="-190" on="0"/>
        <pt x="318" y="-157" on="0"/>
      </contour>
    </TTGlyph>
    <TTGlyph name="Ograve" xMin="53" yMin="-10" xMax="711" yMax="895">
      <contour>
        <pt x="711" y="368" on="1"/>
        <pt x="711" y="280" on="0"/>
        <pt x="659" y="128" on="0"/>
        <pt x="611" y="77" on="1"/>
        <pt x="530" y="-10" on="0"/>
        <pt x="380" y="-10" on="1"/>
        <pt x="227" y="-10" on="0"/>
        <pt x="149" y="74" on="1"/>
        <pt x="103" y="122" on="0"/>
        <pt x="53" y="267" on="0"/>
        <pt x="53" y="352" on="1"/>
        <pt x="53" y="440" on="0"/>
        <pt x="105" y="592" on="0"/>
        <pt x="153" y="643" on="1"/>
        <pt x="195" y="688" on="0"/>
        <pt x="306" y="730" on="0"/>
        <pt x="382" y="730" on="1"/>
        <pt x="533" y="730" on="0"/>
        <pt x="614" y="646" on="1"/>
        <pt x="661" y="598" on="0"/>
        <pt x="711" y="453" on="0"/>
      </contour>
      <contour>
        <pt x="168" y="372" on="1"/>
        <pt x="168" y="288" on="0"/>
        <pt x="196" y="160" on="0"/>
        <pt x="222" y="119" on="1"/>
        <pt x="272" y="45" on="0"/>
        <pt x="385" y="45" on="1"/>
        <pt x="491" y="45" on="0"/>
        <pt x="541" y="111" on="1"/>
        <pt x="596" y="186" on="0"/>
        <pt x="596" y="354" on="1"/>
        <pt x="596" y="437" on="0"/>
        <pt x="568" y="563" on="0"/>
        <pt x="541" y="602" on="1"/>
        <pt x="489" y="676" on="0"/>
        <pt x="379" y="676" on="1"/>
        <pt x="274" y="676" on="0"/>
        <pt x="223" y="610" on="1"/>
        <pt x="168" y="537" on="0"/>
      </contour>
      <contour>
        <pt x="453" y="770" on="1"/>
        <pt x="400" y="770" on="1"/>
        <pt x="353" y="799" on="1"/>
        <pt x="315" y="822" on="0"/>
        <pt x="280" y="849" on="0"/>
        <pt x="280" y="865" on="1"/>
        <pt x="280" y="895" on="0"/>
        <pt x="317" y="895" on="1"/>
        <pt x="336" y="895" on="0"/>
        <pt x="371" y="874" on="0"/>
        <pt x="392" y="847" on="1"/>
      </contour>
    </TTGlyph>
    <TTGlyph name="Ohungarumlaut" xMin="53" yMin="-10" xMax="711" yMax="895">
      <contour>
        <pt x="711" y="368" on="1"/>
        <pt x="711" y="280" on="0"/>
        <pt x="659" y="128" on="0"/>
        <pt x="611" y="77" on="1"/>
        <pt x="530" y="-10" on="0"/>
        <pt x="380" y="-10" on="1"/>
        <pt x="227" y="-10" on="0"/>
        <pt x="149" y="74" on="1"/>
        <pt x="103" y="122" on="0"/>
        <pt x="53" y="267" on="0"/>
        <pt x="53" y="352" on="1"/>
        <pt x="53" y="440" on="0"/>
        <pt x="105" y="592" on="0"/>
        <pt x="153" y="643" on="1"/>
        <pt x="195" y="688" on="0"/>
        <pt x="306" y="730" on="0"/>
        <pt x="382" y="730" on="1"/>
        <pt x="533" y="730" on="0"/>
        <pt x="614" y="646" on="1"/>
        <pt x="661" y="598" on="0"/>
        <pt x="711" y="453" on="0"/>
      </contour>
      <contour>
        <pt x="168" y="372" on="1"/>
        <pt x="168" y="288" on="0"/>
        <pt x="196" y="160" on="0"/>
        <pt x="222" y="119" on="1"/>
        <pt x="272" y="45" on="0"/>
        <pt x="385" y="45" on="1"/>
        <pt x="491" y="45" on="0"/>
        <pt x="541" y="111" on="1"/>
        <pt x="596" y="186" on="0"/>
        <pt x="596" y="354" on="1"/>
        <pt x="596" y="437" on="0"/>
        <pt x="568" y="563" on="0"/>
        <pt x="541" y="602" on="1"/>
        <pt x="489" y="676" on="0"/>
        <pt x="379" y="676" on="1"/>
        <pt x="274" y="676" on="0"/>
        <pt x="223" y="610" on="1"/>
        <pt x="168" y="537" on="0"/>
      </contour>
      <contour>
        <pt x="329" y="847" on="1"/>
        <pt x="350" y="874" on="0"/>
        <pt x="385" y="895" on="0"/>
        <pt x="404" y="895" on="1"/>
        <pt x="441" y="895" on="0"/>
        <pt x="441" y="865" on="1"/>
        <pt x="441" y="849" on="0"/>
        <pt x="406" y="822" on="0"/>
        <pt x="368" y="799" on="1"/>
        <pt x="321" y="770" on="1"/>
        <pt x="268" y="770" on="1"/>
      </contour>
      <contour>
        <pt x="509" y="847" on="1"/>
        <pt x="530" y="874" on="0"/>
        <pt x="565" y="895" on="0"/>
        <pt x="584" y="895" on="1"/>
        <pt x="621" y="895" on="0"/>
        <pt x="621" y="865" on="1"/>
        <pt x="621" y="849" on="0"/>
        <pt x="586" y="822" on="0"/>
        <pt x="548" y="799" on="1"/>
        <pt x="501" y="770" on="1"/>
        <pt x="448" y="770" on="1"/>
      </contour>
    </TTGlyph>
    <TTGlyph name="Omacron" xMin="53" yMin="-10" xMax="711" yMax="861">
      <contour>
        <pt x="711" y="368" on="1"/>
        <pt x="711" y="280" on="0"/>
        <pt x="659" y="128" on="0"/>
        <pt x="611" y="77" on="1"/>
        <pt x="530" y="-10" on="0"/>
        <pt x="380" y="-10" on="1"/>
        <pt x="227" y="-10" on="0"/>
        <pt x="149" y="74" on="1"/>
        <pt x="103" y="122" on="0"/>
        <pt x="53" y="267" on="0"/>
        <pt x="53" y="352" on="1"/>
        <pt x="53" y="440" on="0"/>
        <pt x="105" y="592" on="0"/>
        <pt x="153" y="643" on="1"/>
        <pt x="195" y="688" on="0"/>
        <pt x="306" y="730" on="0"/>
        <pt x="382" y="730" on="1"/>
        <pt x="533" y="730" on="0"/>
        <pt x="614" y="646" on="1"/>
        <pt x="661" y="598" on="0"/>
        <pt x="711" y="453" on="0"/>
      </contour>
      <contour>
        <pt x="168" y="372" on="1"/>
        <pt x="168" y="288" on="0"/>
        <pt x="196" y="160" on="0"/>
        <pt x="222" y="119" on="1"/>
        <pt x="272" y="45" on="0"/>
        <pt x="385" y="45" on="1"/>
        <pt x="491" y="45" on="0"/>
        <pt x="541" y="111" on="1"/>
        <pt x="596" y="186" on="0"/>
        <pt x="596" y="354" on="1"/>
        <pt x="596" y="437" on="0"/>
        <pt x="568" y="563" on="0"/>
        <pt x="541" y="602" on="1"/>
        <pt x="489" y="676" on="0"/>
        <pt x="379" y="676" on="1"/>
        <pt x="274" y="676" on="0"/>
        <pt x="223" y="610" on="1"/>
        <pt x="168" y="537" on="0"/>
      </contour>
      <contour>
        <pt x="242" y="861" on="1"/>
        <pt x="521" y="861" on="1"/>
        <pt x="521" y="796" on="1"/>
        <pt x="242" y="796" on="1"/>
      </contour>
    </TTGlyph>
    <TTGlyph name="Oogonek" xMin="53" yMin="-210" xMax="711" yMax="730">
      <contour>
        <pt x="362" y="-210" on="1"/>
        <pt x="317" y="-210" on="0"/>
        <pt x="262" y="-163" on="0"/>
        <pt x="262" y="-125" on="1"/>
        <pt x="262" y="-62" on="0"/>
        <pt x="340" y="-8" on="1"/>
        <pt x="216" y="1" on="0"/>
        <pt x="149" y="74" on="1"/>
        <pt x="103" y="122" on="0"/>
        <pt x="53" y="267" on="0"/>
        <pt x="53" y="352" on="1"/>
        <pt x="53" y="440" on="0"/>
        <pt x="105" y="592" on="0"/>
        <pt x="153" y="643" on="1"/>
        <pt x="195" y="688" on="0"/>
        <pt x="306" y="730" on="0"/>
        <pt x="382" y="730" on="1"/>
        <pt x="533" y="730" on="0"/>
        <pt x="614" y="646" on="1"/>
        <pt x="661" y="598" on="0"/>
        <pt x="711" y="453" on="0"/>
        <pt x="711" y="368" on="1"/>
        <pt x="711" y="280" on="0"/>
        <pt x="659" y="128" on="0"/>
        <pt x="611" y="77" on="1"/>
        <pt x="531" y="-9" on="0"/>
        <pt x="386" y="-10" on="1"/>
        <pt x="334" y="-56" on="0"/>
        <pt x="334" y="-105" on="1"/>
        <pt x="334" y="-152" on="0"/>
        <pt x="384" y="-152" on="1"/>
        <pt x="402" y="-152" on="0"/>
        <pt x="440" y="-142" on="0"/>
        <pt x="452" y="-132" on="1"/>
        <pt x="467" y="-154" on="1"/>
        <pt x="431" y="-210" on="0"/>
      </contour>
      <contour>
        <pt x="168" y="372" on="1"/>
        <pt x="168" y="288" on="0"/>
        <pt x="196" y="160" on="0"/>
        <pt x="222" y="119" on="1"/>
        <pt x="272" y="45" on="0"/>
        <pt x="385" y="45" on="1"/>
        <pt x="491" y="45" on="0"/>
        <pt x="541" y="111" on="1"/>
        <pt x="596" y="186" on="0"/>
        <pt x="596" y="354" on="1"/>
        <pt x="596" y="437" on="0"/>
        <pt x="568" y="563" on="0"/>
        <pt x="541" y="602" on="1"/>
        <pt x="489" y="676" on="0"/>
        <pt x="379" y="676" on="1"/>
        <pt x="274" y="676" on="0"/>
        <pt x="223" y="610" on="1"/>
        <pt x="168" y="537" on="0"/>
      </contour>
    </TTGlyph>
    <TTGlyph name="Oslash" xMin="51" yMin="-10" xMax="709" yMax="730">
      <contour>
        <pt x="709" y="368" on="1"/>
        <pt x="709" y="280" on="0"/>
        <pt x="657" y="128" on="0"/>
        <pt x="609" y="77" on="1"/>
        <pt x="528" y="-10" on="0"/>
        <pt x="378" y="-10" on="1"/>
        <pt x="255" y="-10" on="0"/>
        <pt x="180" y="44" on="1"/>
        <pt x="142" y="-10" on="1"/>
        <pt x="71" y="-10" on="1"/>
        <pt x="138" y="84" on="1"/>
        <pt x="96" y="132" on="0"/>
        <pt x="51" y="271" on="0"/>
        <pt x="51" y="352" on="1"/>
        <pt x="51" y="440" on="0"/>
        <pt x="103" y="592" on="0"/>
        <pt x="151" y="643" on="1"/>
        <pt x="193" y="688" on="0"/>
        <pt x="304" y="730" on="0"/>
        <pt x="380" y="730" on="1"/>
        <pt x="492" y="730" on="0"/>
        <pt x="565" y="684" on="1"/>
        <pt x="597" y="730" on="1"/>
        <pt x="668" y="730" on="1"/>
        <pt x="610" y="648" on="1"/>
        <pt x="610" y="646" on="0"/>
        <pt x="612" y="646" on="1"/>
        <pt x="659" y="598" on="0"/>
        <pt x="709" y="453" on="0"/>
      </contour>
      <contour>
        <pt x="594" y="354" on="1"/>
        <pt x="594" y="493" on="0"/>
        <pt x="556" y="572" on="1"/>
        <pt x="227" y="109" on="1"/>
        <pt x="253" y="77" on="0"/>
        <pt x="329" y="45" on="0"/>
        <pt x="383" y="45" on="1"/>
        <pt x="489" y="45" on="0"/>
        <pt x="539" y="111" on="1"/>
        <pt x="594" y="186" on="0"/>
      </contour>
      <contour>
        <pt x="166" y="372" on="1"/>
        <pt x="166" y="245" on="0"/>
        <pt x="196" y="166" on="1"/>
        <pt x="521" y="623" on="1"/>
        <pt x="471" y="676" on="0"/>
        <pt x="377" y="676" on="1"/>
        <pt x="272" y="676" on="0"/>
        <pt x="221" y="610" on="1"/>
        <pt x="166" y="537" on="0"/>
      </contour>
    </TTGlyph>
    <TTGlyph name="Oslashacute" xMin="51" yMin="-10" xMax="709" yMax="895">
      <contour>
        <pt x="709" y="368" on="1"/>
        <pt x="709" y="280" on="0"/>
        <pt x="657" y="128" on="0"/>
        <pt x="609" y="77" on="1"/>
        <pt x="528" y="-10" on="0"/>
        <pt x="378" y="-10" on="1"/>
        <pt x="255" y="-10" on="0"/>
        <pt x="180" y="44" on="1"/>
        <pt x="142" y="-10" on="1"/>
        <pt x="71" y="-10" on="1"/>
        <pt x="138" y="84" on="1"/>
        <pt x="96" y="132" on="0"/>
        <pt x="51" y="271" on="0"/>
        <pt x="51" y="352" on="1"/>
        <pt x="51" y="440" on="0"/>
        <pt x="103" y="592" on="0"/>
        <pt x="151" y="643" on="1"/>
        <pt x="193" y="688" on="0"/>
        <pt x="304" y="730" on="0"/>
        <pt x="380" y="730" on="1"/>
        <pt x="492" y="730" on="0"/>
        <pt x="565" y="684" on="1"/>
        <pt x="597" y="730" on="1"/>
        <pt x="668" y="730" on="1"/>
        <pt x="610" y="648" on="1"/>
        <pt x="610" y="646" on="0"/>
        <pt x="612" y="646" on="1"/>
        <pt x="659" y="598" on="0"/>
        <pt x="709" y="453" on="0"/>
      </contour>
      <contour>
        <pt x="594" y="354" on="1"/>
        <pt x="594" y="493" on="0"/>
        <pt x="556" y="572" on="1"/>
        <pt x="227" y="109" on="1"/>
        <pt x="253" y="77" on="0"/>
        <pt x="329" y="45" on="0"/>
        <pt x="383" y="45" on="1"/>
        <pt x="489" y="45" on="0"/>
        <pt x="539" y="111" on="1"/>
        <pt x="594" y="186" on="0"/>
      </contour>
      <contour>
        <pt x="166" y="372" on="1"/>
        <pt x="166" y="245" on="0"/>
        <pt x="196" y="166" on="1"/>
        <pt x="521" y="623" on="1"/>
        <pt x="471" y="676" on="0"/>
        <pt x="377" y="676" on="1"/>
        <pt x="272" y="676" on="0"/>
        <pt x="221" y="610" on="1"/>
        <pt x="166" y="537" on="0"/>
      </contour>
      <contour>
        <pt x="412" y="847" on="1"/>
        <pt x="433" y="874" on="0"/>
        <pt x="468" y="895" on="0"/>
        <pt x="487" y="895" on="1"/>
        <pt x="524" y="895" on="0"/>
        <pt x="524" y="865" on="1"/>
        <pt x="524" y="849" on="0"/>
        <pt x="489" y="822" on="0"/>
        <pt x="451" y="799" on="1"/>
        <pt x="404" y="770" on="1"/>
        <pt x="351" y="770" on="1"/>
      </contour>
    </TTGlyph>
    <TTGlyph name="Otilde" xMin="53" yMin="-10" xMax="711" yMax="885">
      <contour>
        <pt x="711" y="368" on="1"/>
        <pt x="711" y="280" on="0"/>
        <pt x="659" y="128" on="0"/>
        <pt x="611" y="77" on="1"/>
        <pt x="530" y="-10" on="0"/>
        <pt x="380" y="-10" on="1"/>
        <pt x="227" y="-10" on="0"/>
        <pt x="149" y="74" on="1"/>
        <pt x="103" y="122" on="0"/>
        <pt x="53" y="267" on="0"/>
        <pt x="53" y="352" on="1"/>
        <pt x="53" y="440" on="0"/>
        <pt x="105" y="592" on="0"/>
        <pt x="153" y="643" on="1"/>
        <pt x="195" y="688" on="0"/>
        <pt x="306" y="730" on="0"/>
        <pt x="382" y="730" on="1"/>
        <pt x="533" y="730" on="0"/>
        <pt x="614" y="646" on="1"/>
        <pt x="661" y="598" on="0"/>
        <pt x="711" y="453" on="0"/>
      </contour>
      <contour>
        <pt x="168" y="372" on="1"/>
        <pt x="168" y="288" on="0"/>
        <pt x="196" y="160" on="0"/>
        <pt x="222" y="119" on="1"/>
        <pt x="272" y="45" on="0"/>
        <pt x="385" y="45" on="1"/>
        <pt x="491" y="45" on="0"/>
        <pt x="541" y="111" on="1"/>
        <pt x="596" y="186" on="0"/>
        <pt x="596" y="354" on="1"/>
        <pt x="596" y="437" on="0"/>
        <pt x="568" y="563" on="0"/>
        <pt x="541" y="602" on="1"/>
        <pt x="489" y="676" on="0"/>
        <pt x="379" y="676" on="1"/>
        <pt x="274" y="676" on="0"/>
        <pt x="223" y="610" on="1"/>
        <pt x="168" y="537" on="0"/>
      </contour>
      <contour>
        <pt x="198" y="770" on="1"/>
        <pt x="214" y="885" on="0"/>
        <pt x="310" y="885" on="1"/>
        <pt x="335" y="885" on="0"/>
        <pt x="373" y="868" on="0"/>
        <pt x="405" y="847" on="0"/>
        <pt x="436" y="830" on="0"/>
        <pt x="456" y="830" on="1"/>
        <pt x="486" y="830" on="0"/>
        <pt x="516" y="856" on="0"/>
        <pt x="521" y="880" on="1"/>
        <pt x="566" y="880" on="1"/>
        <pt x="548" y="759" on="0"/>
        <pt x="454" y="759" on="1"/>
        <pt x="429" y="759" on="0"/>
        <pt x="392" y="776" on="0"/>
        <pt x="359" y="797" on="0"/>
        <pt x="327" y="815" on="0"/>
        <pt x="308" y="815" on="1"/>
        <pt x="278" y="815" on="0"/>
        <pt x="248" y="791" on="0"/>
        <pt x="243" y="770" on="1"/>
      </contour>
    </TTGlyph>
    <TTGlyph name="P" xMin="48" yMin="0" xMax="605" yMax="720">
      <contour>
        <pt x="356" y="341" on="1"/>
        <pt x="384" y="341" on="0"/>
        <pt x="433" y="358" on="0"/>
        <pt x="447" y="372" on="1"/>
        <pt x="467" y="393" on="0"/>
        <pt x="495" y="461" on="0"/>
        <pt x="495" y="500" on="1"/>
        <pt x="495" y="538" on="0"/>
        <pt x="468" y="601" on="0"/>
        <pt x="447" y="626" on="1"/>
        <pt x="430" y="643" on="0"/>
        <pt x="381" y="662" on="0"/>
        <pt x="352" y="662" on="1"/>
        <pt x="232" y="662" on="1"/>
        <pt x="232" y="341" on="1"/>
      </contour>
      <contour>
        <pt x="232" y="283" on="1"/>
        <pt x="232" y="64" on="1"/>
        <pt x="327" y="43" on="1"/>
        <pt x="327" y="0" on="1"/>
        <pt x="48" y="0" on="1"/>
        <pt x="48" y="43" on="1"/>
        <pt x="132" y="64" on="1"/>
        <pt x="132" y="656" on="1"/>
        <pt x="48" y="677" on="1"/>
        <pt x="48" y="720" on="1"/>
        <pt x="379" y="720" on="1"/>
        <pt x="426" y="720" on="0"/>
        <pt x="503" y="695" on="0"/>
        <pt x="529" y="672" on="1"/>
        <pt x="564" y="640" on="0"/>
        <pt x="605" y="554" on="0"/>
        <pt x="605" y="506" on="1"/>
        <pt x="605" y="456" on="0"/>
        <pt x="562" y="363" on="0"/>
        <pt x="527" y="332" on="1"/>
        <pt x="501" y="309" on="0"/>
        <pt x="423" y="283" on="0"/>
        <pt x="378" y="283" on="1"/>
      </contour>
    </TTGlyph>
    <TTGlyph name="Q" xMin="53" yMin="-185" xMax="711" yMax="730">
      <contour>
        <pt x="711" y="368" on="1"/>
        <pt x="711" y="280" on="0"/>
        <pt x="659" y="128" on="0"/>
        <pt x="611" y="77" on="1"/>
        <pt x="574" y="37" on="0"/>
        <pt x="476" y="-4" on="0"/>
        <pt x="413" y="-9" on="1"/>
        <pt x="413" y="-13" on="1"/>
        <pt x="540" y="-94" on="1"/>
        <pt x="578" y="-118" on="0"/>
        <pt x="621" y="-118" on="1"/>
        <pt x="637" y="-118" on="0"/>
        <pt x="660" y="-110" on="0"/>
        <pt x="675" y="-99" on="1"/>
        <pt x="691" y="-126" on="1"/>
        <pt x="671" y="-158" on="0"/>
        <pt x="609" y="-185" on="0"/>
        <pt x="564" y="-185" on="1"/>
        <pt x="508" y="-185" on="0"/>
        <pt x="424" y="-147" on="0"/>
        <pt x="401" y="-109" on="1"/>
        <pt x="341" y="-8" on="1"/>
        <pt x="219" y="1" on="0"/>
        <pt x="149" y="74" on="1"/>
        <pt x="103" y="122" on="0"/>
        <pt x="53" y="267" on="0"/>
        <pt x="53" y="352" on="1"/>
        <pt x="53" y="440" on="0"/>
        <pt x="105" y="592" on="0"/>
        <pt x="153" y="643" on="1"/>
        <pt x="195" y="688" on="0"/>
        <pt x="305" y="730" on="0"/>
        <pt x="382" y="730" on="1"/>
        <pt x="533" y="730" on="0"/>
        <pt x="614" y="646" on="1"/>
        <pt x="661" y="598" on="0"/>
        <pt x="711" y="453" on="0"/>
      </contour>
      <contour>
        <pt x="168" y="374" on="1"/>
        <pt x="168" y="289" on="0"/>
        <pt x="196" y="158" on="0"/>
        <pt x="222" y="119" on="1"/>
        <pt x="271" y="45" on="0"/>
        <pt x="384" y="45" on="1"/>
        <pt x="491" y="45" on="0"/>
        <pt x="541" y="111" on="1"/>
        <pt x="596" y="186" on="0"/>
        <pt x="596" y="354" on="1"/>
        <pt x="596" y="437" on="0"/>
        <pt x="568" y="563" on="0"/>
        <pt x="541" y="602" on="1"/>
        <pt x="489" y="676" on="0"/>
        <pt x="379" y="676" on="1"/>
        <pt x="274" y="676" on="0"/>
        <pt x="223" y="610" on="1"/>
        <pt x="168" y="539" on="0"/>
      </contour>
    </TTGlyph>
    <TTGlyph name="R" xMin="48" yMin="0" xMax="704" yMax="720">
      <contour>
        <pt x="543" y="382" on="1"/>
        <pt x="525" y="368" on="0"/>
        <pt x="477" y="348" on="0"/>
        <pt x="442" y="341" on="1"/>
        <pt x="460" y="323" on="0"/>
        <pt x="482" y="287" on="1"/>
        <pt x="615" y="62" on="1"/>
        <pt x="704" y="43" on="1"/>
        <pt x="704" y="0" on="1"/>
        <pt x="498" y="0" on="1"/>
        <pt x="498" y="43" on="1"/>
        <pt x="354" y="323" on="1"/>
        <pt x="232" y="323" on="1"/>
        <pt x="232" y="64" on="1"/>
        <pt x="327" y="43" on="1"/>
        <pt x="327" y="0" on="1"/>
        <pt x="48" y="0" on="1"/>
        <pt x="48" y="43" on="1"/>
        <pt x="132" y="64" on="1"/>
        <pt x="132" y="656" on="1"/>
        <pt x="48" y="677" on="1"/>
        <pt x="48" y="720" on="1"/>
        <pt x="392" y="720" on="1"/>
        <pt x="440" y="720" on="0"/>
        <pt x="512" y="702" on="0"/>
        <pt x="541" y="682" on="1"/>
        <pt x="578" y="658" on="0"/>
        <pt x="619" y="574" on="0"/>
        <pt x="619" y="532" on="1"/>
        <pt x="619" y="490" on="0"/>
        <pt x="578" y="409" on="0"/>
      </contour>
      <contour>
        <pt x="375" y="381" on="1"/>
        <pt x="430" y="381" on="0"/>
        <pt x="466" y="412" on="1"/>
        <pt x="486" y="430" on="0"/>
        <pt x="509" y="491" on="0"/>
        <pt x="509" y="526" on="1"/>
        <pt x="509" y="561" on="0"/>
        <pt x="486" y="618" on="0"/>
        <pt x="465" y="636" on="1"/>
        <pt x="448" y="650" on="0"/>
        <pt x="403" y="662" on="0"/>
        <pt x="371" y="662" on="1"/>
        <pt x="232" y="662" on="1"/>
        <pt x="232" y="381" on="1"/>
      </contour>
    </TTGlyph>
    <TTGlyph name="Racute" xMin="48" yMin="0" xMax="704" yMax="895">
      <contour>
        <pt x="543" y="382" on="1"/>
        <pt x="525" y="368" on="0"/>
        <pt x="477" y="348" on="0"/>
        <pt x="442" y="341" on="1"/>
        <pt x="460" y="323" on="0"/>
        <pt x="482" y="287" on="1"/>
        <pt x="615" y="62" on="1"/>
        <pt x="704" y="43" on="1"/>
        <pt x="704" y="0" on="1"/>
        <pt x="498" y="0" on="1"/>
        <pt x="498" y="43" on="1"/>
        <pt x="354" y="323" on="1"/>
        <pt x="232" y="323" on="1"/>
        <pt x="232" y="64" on="1"/>
        <pt x="327" y="43" on="1"/>
        <pt x="327" y="0" on="1"/>
        <pt x="48" y="0" on="1"/>
        <pt x="48" y="43" on="1"/>
        <pt x="132" y="64" on="1"/>
        <pt x="132" y="656" on="1"/>
        <pt x="48" y="677" on="1"/>
        <pt x="48" y="720" on="1"/>
        <pt x="392" y="720" on="1"/>
        <pt x="440" y="720" on="0"/>
        <pt x="512" y="702" on="0"/>
        <pt x="541" y="682" on="1"/>
        <pt x="578" y="658" on="0"/>
        <pt x="619" y="574" on="0"/>
        <pt x="619" y="532" on="1"/>
        <pt x="619" y="490" on="0"/>
        <pt x="578" y="409" on="0"/>
      </contour>
      <contour>
        <pt x="375" y="381" on="1"/>
        <pt x="430" y="381" on="0"/>
        <pt x="466" y="412" on="1"/>
        <pt x="486" y="430" on="0"/>
        <pt x="509" y="491" on="0"/>
        <pt x="509" y="526" on="1"/>
        <pt x="509" y="561" on="0"/>
        <pt x="486" y="618" on="0"/>
        <pt x="465" y="636" on="1"/>
        <pt x="448" y="650" on="0"/>
        <pt x="403" y="662" on="0"/>
        <pt x="371" y="662" on="1"/>
        <pt x="232" y="662" on="1"/>
        <pt x="232" y="381" on="1"/>
      </contour>
      <contour>
        <pt x="343" y="847" on="1"/>
        <pt x="364" y="874" on="0"/>
        <pt x="399" y="895" on="0"/>
        <pt x="418" y="895" on="1"/>
        <pt x="455" y="895" on="0"/>
        <pt x="455" y="865" on="1"/>
        <pt x="455" y="849" on="0"/>
        <pt x="420" y="822" on="0"/>
        <pt x="382" y="799" on="1"/>
        <pt x="335" y="770" on="1"/>
        <pt x="282" y="770" on="1"/>
      </contour>
    </TTGlyph>
    <TTGlyph name="Rcaron" xMin="48" yMin="0" xMax="704" yMax="890">
      <contour>
        <pt x="543" y="382" on="1"/>
        <pt x="525" y="368" on="0"/>
        <pt x="477" y="348" on="0"/>
        <pt x="442" y="341" on="1"/>
        <pt x="460" y="323" on="0"/>
        <pt x="482" y="287" on="1"/>
        <pt x="615" y="62" on="1"/>
        <pt x="704" y="43" on="1"/>
        <pt x="704" y="0" on="1"/>
        <pt x="498" y="0" on="1"/>
        <pt x="498" y="43" on="1"/>
        <pt x="354" y="323" on="1"/>
        <pt x="232" y="323" on="1"/>
        <pt x="232" y="64" on="1"/>
        <pt x="327" y="43" on="1"/>
        <pt x="327" y="0" on="1"/>
        <pt x="48" y="0" on="1"/>
        <pt x="48" y="43" on="1"/>
        <pt x="132" y="64" on="1"/>
        <pt x="132" y="656" on="1"/>
        <pt x="48" y="677" on="1"/>
        <pt x="48" y="720" on="1"/>
        <pt x="392" y="720" on="1"/>
        <pt x="440" y="720" on="0"/>
        <pt x="512" y="702" on="0"/>
        <pt x="541" y="682" on="1"/>
        <pt x="578" y="658" on="0"/>
        <pt x="619" y="574" on="0"/>
        <pt x="619" y="532" on="1"/>
        <pt x="619" y="490" on="0"/>
        <pt x="578" y="409" on="0"/>
      </contour>
      <contour>
        <pt x="375" y="381" on="1"/>
        <pt x="430" y="381" on="0"/>
        <pt x="466" y="412" on="1"/>
        <pt x="486" y="430" on="0"/>
        <pt x="509" y="491" on="0"/>
        <pt x="509" y="526" on="1"/>
        <pt x="509" y="561" on="0"/>
        <pt x="486" y="618" on="0"/>
        <pt x="465" y="636" on="1"/>
        <pt x="448" y="650" on="0"/>
        <pt x="403" y="662" on="0"/>
        <pt x="371" y="662" on="1"/>
        <pt x="232" y="662" on="1"/>
        <pt x="232" y="381" on="1"/>
      </contour>
      <contour>
        <pt x="392" y="769" on="1"/>
        <pt x="297" y="769" on="1"/>
        <pt x="179" y="890" on="1"/>
        <pt x="232" y="890" on="1"/>
        <pt x="345" y="829" on="1"/>
        <pt x="458" y="890" on="1"/>
        <pt x="511" y="890" on="1"/>
      </contour>
    </TTGlyph>
    <TTGlyph name="Rcommaaccent" xMin="48" yMin="-235" xMax="704" yMax="720">
      <contour>
        <pt x="543" y="382" on="1"/>
        <pt x="525" y="368" on="0"/>
        <pt x="477" y="348" on="0"/>
        <pt x="442" y="341" on="1"/>
        <pt x="460" y="323" on="0"/>
        <pt x="482" y="287" on="1"/>
        <pt x="615" y="62" on="1"/>
        <pt x="704" y="43" on="1"/>
        <pt x="704" y="0" on="1"/>
        <pt x="498" y="0" on="1"/>
        <pt x="498" y="43" on="1"/>
        <pt x="354" y="323" on="1"/>
        <pt x="232" y="323" on="1"/>
        <pt x="232" y="64" on="1"/>
        <pt x="327" y="43" on="1"/>
        <pt x="327" y="0" on="1"/>
        <pt x="48" y="0" on="1"/>
        <pt x="48" y="43" on="1"/>
        <pt x="132" y="64" on="1"/>
        <pt x="132" y="656" on="1"/>
        <pt x="48" y="677" on="1"/>
        <pt x="48" y="720" on="1"/>
        <pt x="392" y="720" on="1"/>
        <pt x="440" y="720" on="0"/>
        <pt x="512" y="702" on="0"/>
        <pt x="541" y="682" on="1"/>
        <pt x="578" y="658" on="0"/>
        <pt x="619" y="574" on="0"/>
        <pt x="619" y="532" on="1"/>
        <pt x="619" y="490" on="0"/>
        <pt x="578" y="409" on="0"/>
      </contour>
      <contour>
        <pt x="375" y="381" on="1"/>
        <pt x="430" y="381" on="0"/>
        <pt x="466" y="412" on="1"/>
        <pt x="486" y="430" on="0"/>
        <pt x="509" y="491" on="0"/>
        <pt x="509" y="526" on="1"/>
        <pt x="509" y="561" on="0"/>
        <pt x="486" y="618" on="0"/>
        <pt x="465" y="636" on="1"/>
        <pt x="448" y="650" on="0"/>
        <pt x="403" y="662" on="0"/>
        <pt x="371" y="662" on="1"/>
        <pt x="232" y="662" on="1"/>
        <pt x="232" y="381" on="1"/>
      </contour>
      <contour>
        <pt x="382" y="-44" on="1"/>
        <pt x="408" y="-44" on="0"/>
        <pt x="436" y="-78" on="0"/>
        <pt x="436" y="-109" on="1"/>
        <pt x="436" y="-148" on="0"/>
        <pt x="397" y="-209" on="0"/>
        <pt x="355" y="-235" on="1"/>
        <pt x="333" y="-208" on="1"/>
        <pt x="362" y="-185" on="0"/>
        <pt x="384" y="-152" on="0"/>
        <pt x="386" y="-135" on="1"/>
        <pt x="383" y="-133" on="1"/>
        <pt x="381" y="-135" on="0"/>
        <pt x="370" y="-139" on="0"/>
        <pt x="365" y="-139" on="1"/>
        <pt x="348" y="-139" on="0"/>
        <pt x="326" y="-113" on="0"/>
        <pt x="326" y="-94" on="1"/>
        <pt x="326" y="-73" on="0"/>
        <pt x="358" y="-44" on="0"/>
      </contour>
    </TTGlyph>
    <TTGlyph name="Rdotbelow" xMin="48" yMin="-190" xMax="704" yMax="720">
      <contour>
        <pt x="543" y="382" on="1"/>
        <pt x="525" y="368" on="0"/>
        <pt x="477" y="348" on="0"/>
        <pt x="442" y="341" on="1"/>
        <pt x="460" y="323" on="0"/>
        <pt x="482" y="287" on="1"/>
        <pt x="615" y="62" on="1"/>
        <pt x="704" y="43" on="1"/>
        <pt x="704" y="0" on="1"/>
        <pt x="498" y="0" on="1"/>
        <pt x="498" y="43" on="1"/>
        <pt x="354" y="323" on="1"/>
        <pt x="232" y="323" on="1"/>
        <pt x="232" y="64" on="1"/>
        <pt x="327" y="43" on="1"/>
        <pt x="327" y="0" on="1"/>
        <pt x="48" y="0" on="1"/>
        <pt x="48" y="43" on="1"/>
        <pt x="132" y="64" on="1"/>
        <pt x="132" y="656" on="1"/>
        <pt x="48" y="677" on="1"/>
        <pt x="48" y="720" on="1"/>
        <pt x="392" y="720" on="1"/>
        <pt x="440" y="720" on="0"/>
        <pt x="512" y="702" on="0"/>
        <pt x="541" y="682" on="1"/>
        <pt x="578" y="658" on="0"/>
        <pt x="619" y="574" on="0"/>
        <pt x="619" y="532" on="1"/>
        <pt x="619" y="490" on="0"/>
        <pt x="578" y="409" on="0"/>
      </contour>
      <contour>
        <pt x="375" y="381" on="1"/>
        <pt x="430" y="381" on="0"/>
        <pt x="466" y="412" on="1"/>
        <pt x="486" y="430" on="0"/>
        <pt x="509" y="491" on="0"/>
        <pt x="509" y="526" on="1"/>
        <pt x="509" y="561" on="0"/>
        <pt x="486" y="618" on="0"/>
        <pt x="465" y="636" on="1"/>
        <pt x="448" y="650" on="0"/>
        <pt x="403" y="662" on="0"/>
        <pt x="371" y="662" on="1"/>
        <pt x="232" y="662" on="1"/>
        <pt x="232" y="381" on="1"/>
      </contour>
      <contour>
        <pt x="319" y="-128" on="1"/>
        <pt x="319" y="-99" on="0"/>
        <pt x="352" y="-65" on="0"/>
        <pt x="381" y="-65" on="1"/>
        <pt x="410" y="-65" on="0"/>
        <pt x="444" y="-99" on="0"/>
        <pt x="444" y="-128" on="1"/>
        <pt x="444" y="-157" on="0"/>
        <pt x="410" y="-190" on="0"/>
        <pt x="381" y="-190" on="1"/>
        <pt x="352" y="-190" on="0"/>
        <pt x="319" y="-157" on="0"/>
      </contour>
    </TTGlyph>
    <TTGlyph name="S" xMin="66" yMin="-11" xMax="546" yMax="731">
      <contour>
        <pt x="321" y="-11" on="1"/>
        <pt x="261" y="-11" on="0"/>
        <pt x="165" y="25" on="0"/>
        <pt x="133" y="58" on="1"/>
        <pt x="122" y="0" on="1"/>
        <pt x="66" y="0" on="1"/>
        <pt x="66" y="227" on="1"/>
        <pt x="127" y="227" on="1"/>
        <pt x="133" y="131" on="0"/>
        <pt x="216" y="44" on="0"/>
        <pt x="302" y="44" on="1"/>
        <pt x="445" y="44" on="0"/>
        <pt x="445" y="153" on="1"/>
        <pt x="445" y="185" on="0"/>
        <pt x="420" y="233" on="0"/>
        <pt x="374" y="272" on="0"/>
        <pt x="307" y="305" on="0"/>
        <pt x="265" y="322" on="1"/>
        <pt x="217" y="341" on="0"/>
        <pt x="144" y="378" on="0"/>
        <pt x="95" y="425" on="0"/>
        <pt x="69" y="486" on="0"/>
        <pt x="69" y="530" on="1"/>
        <pt x="69" y="625" on="0"/>
        <pt x="188" y="731" on="0"/>
        <pt x="288" y="731" on="1"/>
        <pt x="387" y="731" on="0"/>
        <pt x="449" y="675" on="1"/>
        <pt x="457" y="720" on="1"/>
        <pt x="513" y="720" on="1"/>
        <pt x="513" y="493" on="1"/>
        <pt x="456" y="493" on="1"/>
        <pt x="456" y="590" on="0"/>
        <pt x="385" y="677" on="0"/>
        <pt x="307" y="677" on="1"/>
        <pt x="170" y="677" on="0"/>
        <pt x="170" y="552" on="1"/>
        <pt x="170" y="527" on="0"/>
        <pt x="182" y="492" on="0"/>
        <pt x="215" y="462" on="0"/>
        <pt x="271" y="434" on="0"/>
        <pt x="315" y="415" on="1"/>
        <pt x="377" y="388" on="0"/>
        <pt x="465" y="339" on="0"/>
        <pt x="520" y="285" on="0"/>
        <pt x="546" y="223" on="0"/>
        <pt x="546" y="184" on="1"/>
        <pt x="546" y="138" on="0"/>
        <pt x="513" y="65" on="0"/>
        <pt x="454" y="15" on="0"/>
        <pt x="371" y="-11" on="0"/>
      </contour>
    </TTGlyph>
    <TTGlyph name="Sacute" xMin="66" yMin="-11" xMax="546" yMax="895">
      <contour>
        <pt x="321" y="-11" on="1"/>
        <pt x="261" y="-11" on="0"/>
        <pt x="165" y="25" on="0"/>
        <pt x="133" y="58" on="1"/>
        <pt x="122" y="0" on="1"/>
        <pt x="66" y="0" on="1"/>
        <pt x="66" y="227" on="1"/>
        <pt x="127" y="227" on="1"/>
        <pt x="133" y="131" on="0"/>
        <pt x="216" y="44" on="0"/>
        <pt x="302" y="44" on="1"/>
        <pt x="445" y="44" on="0"/>
        <pt x="445" y="153" on="1"/>
        <pt x="445" y="185" on="0"/>
        <pt x="420" y="233" on="0"/>
        <pt x="374" y="272" on="0"/>
        <pt x="307" y="305" on="0"/>
        <pt x="265" y="322" on="1"/>
        <pt x="217" y="341" on="0"/>
        <pt x="144" y="378" on="0"/>
        <pt x="95" y="425" on="0"/>
        <pt x="69" y="486" on="0"/>
        <pt x="69" y="530" on="1"/>
        <pt x="69" y="625" on="0"/>
        <pt x="188" y="731" on="0"/>
        <pt x="288" y="731" on="1"/>
        <pt x="387" y="731" on="0"/>
        <pt x="449" y="675" on="1"/>
        <pt x="457" y="720" on="1"/>
        <pt x="513" y="720" on="1"/>
        <pt x="513" y="493" on="1"/>
        <pt x="456" y="493" on="1"/>
        <pt x="456" y="590" on="0"/>
        <pt x="385" y="677" on="0"/>
        <pt x="307" y="677" on="1"/>
        <pt x="170" y="677" on="0"/>
        <pt x="170" y="552" on="1"/>
        <pt x="170" y="527" on="0"/>
        <pt x="182" y="492" on="0"/>
        <pt x="215" y="462" on="0"/>
        <pt x="271" y="434" on="0"/>
        <pt x="315" y="415" on="1"/>
        <pt x="377" y="388" on="0"/>
        <pt x="465" y="339" on="0"/>
        <pt x="520" y="285" on="0"/>
        <pt x="546" y="223" on="0"/>
        <pt x="546" y="184" on="1"/>
        <pt x="546" y="138" on="0"/>
        <pt x="513" y="65" on="0"/>
        <pt x="454" y="15" on="0"/>
        <pt x="371" y="-11" on="0"/>
      </contour>
      <contour>
        <pt x="322" y="847" on="1"/>
        <pt x="343" y="874" on="0"/>
        <pt x="378" y="895" on="0"/>
        <pt x="397" y="895" on="1"/>
        <pt x="434" y="895" on="0"/>
        <pt x="434" y="865" on="1"/>
        <pt x="434" y="849" on="0"/>
        <pt x="399" y="822" on="0"/>
        <pt x="361" y="799" on="1"/>
        <pt x="314" y="770" on="1"/>
        <pt x="261" y="770" on="1"/>
      </contour>
    </TTGlyph>
    <TTGlyph name="Scaron" xMin="66" yMin="-11" xMax="546" yMax="890">
      <contour>
        <pt x="321" y="-11" on="1"/>
        <pt x="261" y="-11" on="0"/>
        <pt x="165" y="25" on="0"/>
        <pt x="133" y="58" on="1"/>
        <pt x="122" y="0" on="1"/>
        <pt x="66" y="0" on="1"/>
        <pt x="66" y="227" on="1"/>
        <pt x="127" y="227" on="1"/>
        <pt x="133" y="131" on="0"/>
        <pt x="216" y="44" on="0"/>
        <pt x="302" y="44" on="1"/>
        <pt x="445" y="44" on="0"/>
        <pt x="445" y="153" on="1"/>
        <pt x="445" y="185" on="0"/>
        <pt x="420" y="233" on="0"/>
        <pt x="374" y="272" on="0"/>
        <pt x="307" y="305" on="0"/>
        <pt x="265" y="322" on="1"/>
        <pt x="217" y="341" on="0"/>
        <pt x="144" y="378" on="0"/>
        <pt x="95" y="425" on="0"/>
        <pt x="69" y="486" on="0"/>
        <pt x="69" y="530" on="1"/>
        <pt x="69" y="625" on="0"/>
        <pt x="188" y="731" on="0"/>
        <pt x="288" y="731" on="1"/>
        <pt x="387" y="731" on="0"/>
        <pt x="449" y="675" on="1"/>
        <pt x="457" y="720" on="1"/>
        <pt x="513" y="720" on="1"/>
        <pt x="513" y="493" on="1"/>
        <pt x="456" y="493" on="1"/>
        <pt x="456" y="590" on="0"/>
        <pt x="385" y="677" on="0"/>
        <pt x="307" y="677" on="1"/>
        <pt x="170" y="677" on="0"/>
        <pt x="170" y="552" on="1"/>
        <pt x="170" y="527" on="0"/>
        <pt x="182" y="492" on="0"/>
        <pt x="215" y="462" on="0"/>
        <pt x="271" y="434" on="0"/>
        <pt x="315" y="415" on="1"/>
        <pt x="377" y="388" on="0"/>
        <pt x="465" y="339" on="0"/>
        <pt x="520" y="285" on="0"/>
        <pt x="546" y="223" on="0"/>
        <pt x="546" y="184" on="1"/>
        <pt x="546" y="138" on="0"/>
        <pt x="513" y="65" on="0"/>
        <pt x="454" y="15" on="0"/>
        <pt x="371" y="-11" on="0"/>
      </contour>
      <contour>
        <pt x="353" y="769" on="1"/>
        <pt x="258" y="769" on="1"/>
        <pt x="140" y="890" on="1"/>
        <pt x="193" y="890" on="1"/>
        <pt x="306" y="829" on="1"/>
        <pt x="419" y="890" on="1"/>
        <pt x="472" y="890" on="1"/>
      </contour>
    </TTGlyph>
    <TTGlyph name="Schwa" xMin="46" yMin="-10" xMax="645" yMax="730">
      <contour>
        <pt x="530" y="368" on="1"/>
        <pt x="530" y="423" on="0"/>
        <pt x="511" y="525" on="0"/>
        <pt x="494" y="564" on="1"/>
        <pt x="468" y="622" on="0"/>
        <pt x="381" y="676" on="0"/>
        <pt x="313" y="676" on="1"/>
        <pt x="245" y="676" on="0"/>
        <pt x="144" y="623" on="0"/>
        <pt x="106" y="567" on="1"/>
        <pt x="73" y="596" on="1"/>
        <pt x="122" y="667" on="0"/>
        <pt x="237" y="730" on="0"/>
        <pt x="321" y="730" on="1"/>
        <pt x="418" y="730" on="0"/>
        <pt x="558" y="653" on="0"/>
        <pt x="598" y="577" on="1"/>
        <pt x="621" y="532" on="0"/>
        <pt x="645" y="424" on="0"/>
        <pt x="645" y="362" on="1"/>
        <pt x="645" y="277" on="0"/>
        <pt x="600" y="139" on="0"/>
        <pt x="517" y="42" on="0"/>
        <pt x="399" y="-10" on="0"/>
        <pt x="326" y="-10" on="1"/>
        <pt x="260" y="-10" on="0"/>
        <pt x="156" y="33" on="0"/>
        <pt x="84" y="114" on="0"/>
        <pt x="46" y="232" on="0"/>
        <pt x="46" y="306" on="1"/>
        <pt x="46" y="320" on="0"/>
        <pt x="48" y="345" on="0"/>
        <pt x="50" y="368" on="1"/>
      </contour>
      <contour>
        <pt x="335" y="44" on="1"/>
        <pt x="420" y="44" on="0"/>
        <pt x="520" y="176" on="0"/>
        <pt x="529" y="303" on="1"/>
        <pt x="160" y="303" on="1"/>
        <pt x="160" y="260" on="1"/>
        <pt x="160" y="160" on="0"/>
        <pt x="254" y="44" on="0"/>
      </contour>
    </TTGlyph>
    <TTGlyph name="Scircumflex" xMin="66" yMin="-11" xMax="546" yMax="890">
      <contour>
        <pt x="321" y="-11" on="1"/>
        <pt x="261" y="-11" on="0"/>
        <pt x="165" y="25" on="0"/>
        <pt x="133" y="58" on="1"/>
        <pt x="122" y="0" on="1"/>
        <pt x="66" y="0" on="1"/>
        <pt x="66" y="227" on="1"/>
        <pt x="127" y="227" on="1"/>
        <pt x="133" y="131" on="0"/>
        <pt x="216" y="44" on="0"/>
        <pt x="302" y="44" on="1"/>
        <pt x="445" y="44" on="0"/>
        <pt x="445" y="153" on="1"/>
        <pt x="445" y="185" on="0"/>
        <pt x="420" y="233" on="0"/>
        <pt x="374" y="272" on="0"/>
        <pt x="307" y="305" on="0"/>
        <pt x="265" y="322" on="1"/>
        <pt x="217" y="341" on="0"/>
        <pt x="144" y="378" on="0"/>
        <pt x="95" y="425" on="0"/>
        <pt x="69" y="486" on="0"/>
        <pt x="69" y="530" on="1"/>
        <pt x="69" y="625" on="0"/>
        <pt x="188" y="731" on="0"/>
        <pt x="288" y="731" on="1"/>
        <pt x="387" y="731" on="0"/>
        <pt x="449" y="675" on="1"/>
        <pt x="457" y="720" on="1"/>
        <pt x="513" y="720" on="1"/>
        <pt x="513" y="493" on="1"/>
        <pt x="456" y="493" on="1"/>
        <pt x="456" y="590" on="0"/>
        <pt x="385" y="677" on="0"/>
        <pt x="307" y="677" on="1"/>
        <pt x="170" y="677" on="0"/>
        <pt x="170" y="552" on="1"/>
        <pt x="170" y="527" on="0"/>
        <pt x="182" y="492" on="0"/>
        <pt x="215" y="462" on="0"/>
        <pt x="271" y="434" on="0"/>
        <pt x="315" y="415" on="1"/>
        <pt x="377" y="388" on="0"/>
        <pt x="465" y="339" on="0"/>
        <pt x="520" y="285" on="0"/>
        <pt x="546" y="223" on="0"/>
        <pt x="546" y="184" on="1"/>
        <pt x="546" y="138" on="0"/>
        <pt x="513" y="65" on="0"/>
        <pt x="454" y="15" on="0"/>
        <pt x="371" y="-11" on="0"/>
      </contour>
      <contour>
        <pt x="454" y="769" on="1"/>
        <pt x="401" y="769" on="1"/>
        <pt x="288" y="830" on="1"/>
        <pt x="175" y="769" on="1"/>
        <pt x="122" y="769" on="1"/>
        <pt x="240" y="890" on="1"/>
        <pt x="335" y="890" on="1"/>
      </contour>
    </TTGlyph>
    <TTGlyph name="Sdotbelow" xMin="66" yMin="-190" xMax="546" yMax="731">
      <contour>
        <pt x="321" y="-11" on="1"/>
        <pt x="261" y="-11" on="0"/>
        <pt x="165" y="25" on="0"/>
        <pt x="133" y="58" on="1"/>
        <pt x="122" y="0" on="1"/>
        <pt x="66" y="0" on="1"/>
        <pt x="66" y="227" on="1"/>
        <pt x="127" y="227" on="1"/>
        <pt x="133" y="131" on="0"/>
        <pt x="216" y="44" on="0"/>
        <pt x="302" y="44" on="1"/>
        <pt x="445" y="44" on="0"/>
        <pt x="445" y="153" on="1"/>
        <pt x="445" y="185" on="0"/>
        <pt x="420" y="233" on="0"/>
        <pt x="374" y="272" on="0"/>
        <pt x="307" y="305" on="0"/>
        <pt x="265" y="322" on="1"/>
        <pt x="217" y="341" on="0"/>
        <pt x="144" y="378" on="0"/>
        <pt x="95" y="425" on="0"/>
        <pt x="69" y="486" on="0"/>
        <pt x="69" y="530" on="1"/>
        <pt x="69" y="625" on="0"/>
        <pt x="188" y="731" on="0"/>
        <pt x="288" y="731" on="1"/>
        <pt x="387" y="731" on="0"/>
        <pt x="449" y="675" on="1"/>
        <pt x="457" y="720" on="1"/>
        <pt x="513" y="720" on="1"/>
        <pt x="513" y="493" on="1"/>
        <pt x="456" y="493" on="1"/>
        <pt x="456" y="590" on="0"/>
        <pt x="385" y="677" on="0"/>
        <pt x="307" y="677" on="1"/>
        <pt x="170" y="677" on="0"/>
        <pt x="170" y="552" on="1"/>
        <pt x="170" y="527" on="0"/>
        <pt x="182" y="492" on="0"/>
        <pt x="215" y="462" on="0"/>
        <pt x="271" y="434" on="0"/>
        <pt x="315" y="415" on="1"/>
        <pt x="377" y="388" on="0"/>
        <pt x="465" y="339" on="0"/>
        <pt x="520" y="285" on="0"/>
        <pt x="546" y="223" on="0"/>
        <pt x="546" y="184" on="1"/>
        <pt x="546" y="138" on="0"/>
        <pt x="513" y="65" on="0"/>
        <pt x="454" y="15" on="0"/>
        <pt x="371" y="-11" on="0"/>
      </contour>
      <contour>
        <pt x="259" y="-128" on="1"/>
        <pt x="259" y="-99" on="0"/>
        <pt x="292" y="-65" on="0"/>
        <pt x="321" y="-65" on="1"/>
        <pt x="350" y="-65" on="0"/>
        <pt x="384" y="-99" on="0"/>
        <pt x="384" y="-128" on="1"/>
        <pt x="384" y="-157" on="0"/>
        <pt x="350" y="-190" on="0"/>
        <pt x="321" y="-190" on="1"/>
        <pt x="292" y="-190" on="0"/>
        <pt x="259" y="-157" on="0"/>
      </contour>
    </TTGlyph>
    <TTGlyph name="T" xMin="31" yMin="0" xMax="627" yMax="720">
      <contour>
        <pt x="627" y="720" on="1"/>
        <pt x="627" y="510" on="1"/>
        <pt x="575" y="510" on="1"/>
        <pt x="543" y="660" on="1"/>
        <pt x="379" y="660" on="1"/>
        <pt x="379" y="67" on="1"/>
        <pt x="485" y="43" on="1"/>
        <pt x="485" y="0" on="1"/>
        <pt x="173" y="0" on="1"/>
        <pt x="173" y="43" on="1"/>
        <pt x="279" y="67" on="1"/>
        <pt x="279" y="660" on="1"/>
        <pt x="114" y="660" on="1"/>
        <pt x="83" y="510" on="1"/>
        <pt x="31" y="510" on="1"/>
        <pt x="31" y="720" on="1"/>
      </contour>
    </TTGlyph>
    <TTGlyph name="Tbar" xMin="34" yMin="0" xMax="630" yMax="720">
      <contour>
        <pt x="630" y="720" on="1"/>
        <pt x="630" y="510" on="1"/>
        <pt x="578" y="510" on="1"/>
        <pt x="546" y="660" on="1"/>
        <pt x="382" y="660" on="1"/>
        <pt x="382" y="421" on="1"/>
        <pt x="560" y="421" on="1"/>
        <pt x="560" y="356" on="1"/>
        <pt x="382" y="356" on="1"/>
        <pt x="382" y="67" on="1"/>
        <pt x="488" y="43" on="1"/>
        <pt x="488" y="0" on="1"/>
        <pt x="176" y="0" on="1"/>
        <pt x="176" y="43" on="1"/>
        <pt x="282" y="67" on="1"/>
        <pt x="282" y="356" on="1"/>
        <pt x="104" y="356" on="1"/>
        <pt x="104" y="421" on="1"/>
        <pt x="282" y="421" on="1"/>
        <pt x="282" y="660" on="1"/>
        <pt x="117" y="660" on="1"/>
        <pt x="86" y="510" on="1"/>
        <pt x="34" y="510" on="1"/>
        <pt x="34" y="720" on="1"/>
      </contour>
    </TTGlyph>
    <TTGlyph name="Tcaron" xMin="31" yMin="0" xMax="627" yMax="890">
      <contour>
        <pt x="627" y="720" on="1"/>
        <pt x="627" y="510" on="1"/>
        <pt x="575" y="510" on="1"/>
        <pt x="543" y="660" on="1"/>
        <pt x="379" y="660" on="1"/>
        <pt x="379" y="67" on="1"/>
        <pt x="485" y="43" on="1"/>
        <pt x="485" y="0" on="1"/>
        <pt x="173" y="0" on="1"/>
        <pt x="173" y="43" on="1"/>
        <pt x="279" y="67" on="1"/>
        <pt x="279" y="660" on="1"/>
        <pt x="114" y="660" on="1"/>
        <pt x="83" y="510" on="1"/>
        <pt x="31" y="510" on="1"/>
        <pt x="31" y="720" on="1"/>
      </contour>
      <contour>
        <pt x="378" y="769" on="1"/>
        <pt x="283" y="769" on="1"/>
        <pt x="165" y="890" on="1"/>
        <pt x="218" y="890" on="1"/>
        <pt x="331" y="829" on="1"/>
        <pt x="444" y="890" on="1"/>
        <pt x="497" y="890" on="1"/>
      </contour>
    </TTGlyph>
    <TTGlyph name="Tdotbelow" xMin="31" yMin="-190" xMax="627" yMax="720">
      <contour>
        <pt x="627" y="720" on="1"/>
        <pt x="627" y="510" on="1"/>
        <pt x="575" y="510" on="1"/>
        <pt x="543" y="660" on="1"/>
        <pt x="379" y="660" on="1"/>
        <pt x="379" y="67" on="1"/>
        <pt x="485" y="43" on="1"/>
        <pt x="485" y="0" on="1"/>
        <pt x="173" y="0" on="1"/>
        <pt x="173" y="43" on="1"/>
        <pt x="279" y="67" on="1"/>
        <pt x="279" y="660" on="1"/>
        <pt x="114" y="660" on="1"/>
        <pt x="83" y="510" on="1"/>
        <pt x="31" y="510" on="1"/>
        <pt x="31" y="720" on="1"/>
      </contour>
      <contour>
        <pt x="265" y="-128" on="1"/>
        <pt x="265" y="-99" on="0"/>
        <pt x="298" y="-65" on="0"/>
        <pt x="327" y="-65" on="1"/>
        <pt x="356" y="-65" on="0"/>
        <pt x="390" y="-99" on="0"/>
        <pt x="390" y="-128" on="1"/>
        <pt x="390" y="-157" on="0"/>
        <pt x="356" y="-190" on="0"/>
        <pt x="327" y="-190" on="1"/>
        <pt x="298" y="-190" on="0"/>
        <pt x="265" y="-157" on="0"/>
      </contour>
    </TTGlyph>
    <TTGlyph name="Thorn" xMin="40" yMin="0" xMax="608" yMax="720">
      <contour>
        <pt x="235" y="148" on="1"/>
        <pt x="235" y="64" on="1"/>
        <pt x="330" y="43" on="1"/>
        <pt x="330" y="0" on="1"/>
        <pt x="51" y="0" on="1"/>
        <pt x="51" y="43" on="1"/>
        <pt x="135" y="64" on="1"/>
        <pt x="135" y="656" on="1"/>
        <pt x="40" y="677" on="1"/>
        <pt x="40" y="720" on="1"/>
        <pt x="319" y="720" on="1"/>
        <pt x="319" y="677" on="1"/>
        <pt x="235" y="656" on="1"/>
        <pt x="235" y="575" on="1"/>
        <pt x="387" y="575" on="1"/>
        <pt x="442" y="575" on="0"/>
        <pt x="524" y="541" on="0"/>
        <pt x="580" y="483" on="0"/>
        <pt x="608" y="407" on="0"/>
        <pt x="608" y="366" on="1"/>
        <pt x="608" y="322" on="0"/>
        <pt x="579" y="243" on="0"/>
        <pt x="522" y="183" on="0"/>
        <pt x="440" y="148" on="0"/>
        <pt x="386" y="148" on="1"/>
      </contour>
      <contour>
        <pt x="364" y="206" on="1"/>
        <pt x="399" y="206" on="0"/>
        <pt x="449" y="229" on="0"/>
        <pt x="482" y="270" on="0"/>
        <pt x="498" y="326" on="0"/>
        <pt x="498" y="360" on="1"/>
        <pt x="498" y="391" on="0"/>
        <pt x="480" y="448" on="0"/>
        <pt x="446" y="492" on="0"/>
        <pt x="394" y="517" on="0"/>
        <pt x="360" y="517" on="1"/>
        <pt x="235" y="517" on="1"/>
        <pt x="235" y="206" on="1"/>
      </contour>
    </TTGlyph>
    <TTGlyph name="U" xMin="32" yMin="-11" xMax="739" yMax="720">
      <contour>
        <pt x="592" y="656" on="1"/>
        <pt x="508" y="677" on="1"/>
        <pt x="508" y="720" on="1"/>
        <pt x="739" y="720" on="1"/>
        <pt x="739" y="677" on="1"/>
        <pt x="655" y="656" on="1"/>
        <pt x="655" y="243" on="1"/>
        <pt x="655" y="118" on="0"/>
        <pt x="522" y="-11" on="0"/>
        <pt x="392" y="-11" on="1"/>
        <pt x="258" y="-11" on="0"/>
        <pt x="116" y="121" on="0"/>
        <pt x="116" y="244" on="1"/>
        <pt x="116" y="656" on="1"/>
        <pt x="32" y="677" on="1"/>
        <pt x="32" y="720" on="1"/>
        <pt x="300" y="720" on="1"/>
        <pt x="300" y="677" on="1"/>
        <pt x="216" y="656" on="1"/>
        <pt x="216" y="261" on="1"/>
        <pt x="216" y="44" on="0"/>
        <pt x="414" y="44" on="1"/>
        <pt x="508" y="44" on="0"/>
        <pt x="592" y="145" on="0"/>
        <pt x="592" y="259" on="1"/>
      </contour>
    </TTGlyph>
    <TTGlyph name="Uacute" xMin="32" yMin="-11" xMax="739" yMax="895">
      <contour>
        <pt x="592" y="656" on="1"/>
        <pt x="508" y="677" on="1"/>
        <pt x="508" y="720" on="1"/>
        <pt x="739" y="720" on="1"/>
        <pt x="739" y="677" on="1"/>
        <pt x="655" y="656" on="1"/>
        <pt x="655" y="243" on="1"/>
        <pt x="655" y="118" on="0"/>
        <pt x="522" y="-11" on="0"/>
        <pt x="392" y="-11" on="1"/>
        <pt x="258" y="-11" on="0"/>
        <pt x="116" y="121" on="0"/>
        <pt x="116" y="244" on="1"/>
        <pt x="116" y="656" on="1"/>
        <pt x="32" y="677" on="1"/>
        <pt x="32" y="720" on="1"/>
        <pt x="300" y="720" on="1"/>
        <pt x="300" y="677" on="1"/>
        <pt x="216" y="656" on="1"/>
        <pt x="216" y="261" on="1"/>
        <pt x="216" y="44" on="0"/>
        <pt x="414" y="44" on="1"/>
        <pt x="508" y="44" on="0"/>
        <pt x="592" y="145" on="0"/>
        <pt x="592" y="259" on="1"/>
      </contour>
      <contour>
        <pt x="439" y="847" on="1"/>
        <pt x="460" y="874" on="0"/>
        <pt x="495" y="895" on="0"/>
        <pt x="514" y="895" on="1"/>
        <pt x="551" y="895" on="0"/>
        <pt x="551" y="865" on="1"/>
        <pt x="551" y="849" on="0"/>
        <pt x="516" y="822" on="0"/>
        <pt x="478" y="799" on="1"/>
        <pt x="431" y="770" on="1"/>
        <pt x="378" y="770" on="1"/>
      </contour>
    </TTGlyph>
    <TTGlyph name="Ubreve" xMin="32" yMin="-11" xMax="739" yMax="890">
      <contour>
        <pt x="592" y="656" on="1"/>
        <pt x="508" y="677" on="1"/>
        <pt x="508" y="720" on="1"/>
        <pt x="739" y="720" on="1"/>
        <pt x="739" y="677" on="1"/>
        <pt x="655" y="656" on="1"/>
        <pt x="655" y="243" on="1"/>
        <pt x="655" y="118" on="0"/>
        <pt x="522" y="-11" on="0"/>
        <pt x="392" y="-11" on="1"/>
        <pt x="258" y="-11" on="0"/>
        <pt x="116" y="121" on="0"/>
        <pt x="116" y="244" on="1"/>
        <pt x="116" y="656" on="1"/>
        <pt x="32" y="677" on="1"/>
        <pt x="32" y="720" on="1"/>
        <pt x="300" y="720" on="1"/>
        <pt x="300" y="677" on="1"/>
        <pt x="216" y="656" on="1"/>
        <pt x="216" y="261" on="1"/>
        <pt x="216" y="44" on="0"/>
        <pt x="414" y="44" on="1"/>
        <pt x="508" y="44" on="0"/>
        <pt x="592" y="145" on="0"/>
        <pt x="592" y="259" on="1"/>
      </contour>
      <contour>
        <pt x="558" y="890" on="1"/>
        <pt x="556" y="823" on="0"/>
        <pt x="470" y="749" on="0"/>
        <pt x="405" y="749" on="1"/>
        <pt x="337" y="749" on="0"/>
        <pt x="264" y="827" on="0"/>
        <pt x="264" y="890" on="1"/>
        <pt x="312" y="890" on="1"/>
        <pt x="314" y="852" on="0"/>
        <pt x="366" y="818" on="0"/>
        <pt x="405" y="818" on="1"/>
        <pt x="455" y="818" on="0"/>
        <pt x="510" y="852" on="0"/>
        <pt x="510" y="890" on="1"/>
      </contour>
    </TTGlyph>
    <TTGlyph name="Ucircumflex" xMin="32" yMin="-11" xMax="739" yMax="890">
      <contour>
        <pt x="592" y="656" on="1"/>
        <pt x="508" y="677" on="1"/>
        <pt x="508" y="720" on="1"/>
        <pt x="739" y="720" on="1"/>
        <pt x="739" y="677" on="1"/>
        <pt x="655" y="656" on="1"/>
        <pt x="655" y="243" on="1"/>
        <pt x="655" y="118" on="0"/>
        <pt x="522" y="-11" on="0"/>
        <pt x="392" y="-11" on="1"/>
        <pt x="258" y="-11" on="0"/>
        <pt x="116" y="121" on="0"/>
        <pt x="116" y="244" on="1"/>
        <pt x="116" y="656" on="1"/>
        <pt x="32" y="677" on="1"/>
        <pt x="32" y="720" on="1"/>
        <pt x="300" y="720" on="1"/>
        <pt x="300" y="677" on="1"/>
        <pt x="216" y="656" on="1"/>
        <pt x="216" y="261" on="1"/>
        <pt x="216" y="44" on="0"/>
        <pt x="414" y="44" on="1"/>
        <pt x="508" y="44" on="0"/>
        <pt x="592" y="145" on="0"/>
        <pt x="592" y="259" on="1"/>
      </contour>
      <contour>
        <pt x="571" y="769" on="1"/>
        <pt x="518" y="769" on="1"/>
        <pt x="405" y="830" on="1"/>
        <pt x="292" y="769" on="1"/>
        <pt x="239" y="769" on="1"/>
        <pt x="357" y="890" on="1"/>
        <pt x="452" y="890" on="1"/>
      </contour>
    </TTGlyph>
    <TTGlyph name="Udieresis" xMin="32" yMin="-11" xMax="739" yMax="890">
      <contour>
        <pt x="592" y="656" on="1"/>
        <pt x="508" y="677" on="1"/>
        <pt x="508" y="720" on="1"/>
        <pt x="739" y="720" on="1"/>
        <pt x="739" y="677" on="1"/>
        <pt x="655" y="656" on="1"/>
        <pt x="655" y="243" on="1"/>
        <pt x="655" y="118" on="0"/>
        <pt x="522" y="-11" on="0"/>
        <pt x="392" y="-11" on="1"/>
        <pt x="258" y="-11" on="0"/>
        <pt x="116" y="121" on="0"/>
        <pt x="116" y="244" on="1"/>
        <pt x="116" y="656" on="1"/>
        <pt x="32" y="677" on="1"/>
        <pt x="32" y="720" on="1"/>
        <pt x="300" y="720" on="1"/>
        <pt x="300" y="677" on="1"/>
        <pt x="216" y="656" on="1"/>
        <pt x="216" y="261" on="1"/>
        <pt x="216" y="44" on="0"/>
        <pt x="414" y="44" on="1"/>
        <pt x="508" y="44" on="0"/>
        <pt x="592" y="145" on="0"/>
        <pt x="592" y="259" on="1"/>
      </contour>
      <contour>
        <pt x="232" y="831" on="1"/>
        <pt x="232" y="859" on="0"/>
        <pt x="263" y="890" on="0"/>
        <pt x="290" y="890" on="1"/>
        <pt x="317" y="890" on="0"/>
        <pt x="349" y="858" on="0"/>
        <pt x="349" y="831" on="1"/>
        <pt x="349" y="804" on="0"/>
        <pt x="318" y="773" on="0"/>
        <pt x="290" y="773" on="1"/>
        <pt x="263" y="773" on="0"/>
        <pt x="232" y="804" on="0"/>
      </contour>
      <contour>
        <pt x="462" y="831" on="1"/>
        <pt x="462" y="859" on="0"/>
        <pt x="493" y="890" on="0"/>
        <pt x="520" y="890" on="1"/>
        <pt x="547" y="890" on="0"/>
        <pt x="579" y="858" on="0"/>
        <pt x="579" y="831" on="1"/>
        <pt x="579" y="804" on="0"/>
        <pt x="548" y="773" on="0"/>
        <pt x="520" y="773" on="1"/>
        <pt x="493" y="773" on="0"/>
        <pt x="462" y="804" on="0"/>
      </contour>
    </TTGlyph>
    <TTGlyph name="Udotbelow" xMin="32" yMin="-190" xMax="739" yMax="720">
      <contour>
        <pt x="592" y="656" on="1"/>
        <pt x="508" y="677" on="1"/>
        <pt x="508" y="720" on="1"/>
        <pt x="739" y="720" on="1"/>
        <pt x="739" y="677" on="1"/>
        <pt x="655" y="656" on="1"/>
        <pt x="655" y="243" on="1"/>
        <pt x="655" y="118" on="0"/>
        <pt x="522" y="-11" on="0"/>
        <pt x="392" y="-11" on="1"/>
        <pt x="258" y="-11" on="0"/>
        <pt x="116" y="121" on="0"/>
        <pt x="116" y="244" on="1"/>
        <pt x="116" y="656" on="1"/>
        <pt x="32" y="677" on="1"/>
        <pt x="32" y="720" on="1"/>
        <pt x="300" y="720" on="1"/>
        <pt x="300" y="677" on="1"/>
        <pt x="216" y="656" on="1"/>
        <pt x="216" y="261" on="1"/>
        <pt x="216" y="44" on="0"/>
        <pt x="414" y="44" on="1"/>
        <pt x="508" y="44" on="0"/>
        <pt x="592" y="145" on="0"/>
        <pt x="592" y="259" on="1"/>
      </contour>
      <contour>
        <pt x="343" y="-128" on="1"/>
        <pt x="343" y="-99" on="0"/>
        <pt x="376" y="-65" on="0"/>
        <pt x="405" y="-65" on="1"/>
        <pt x="434" y="-65" on="0"/>
        <pt x="468" y="-99" on="0"/>
        <pt x="468" y="-128" on="1"/>
        <pt x="468" y="-157" on="0"/>
        <pt x="434" y="-190" on="0"/>
        <pt x="405" y="-190" on="1"/>
        <pt x="376" y="-190" on="0"/>
        <pt x="343" y="-157" on="0"/>
      </contour>
    </TTGlyph>
    <TTGlyph name="Ugrave" xMin="32" yMin="-11" xMax="739" yMax="895">
      <contour>
        <pt x="592" y="656" on="1"/>
        <pt x="508" y="677" on="1"/>
        <pt x="508" y="720" on="1"/>
        <pt x="739" y="720" on="1"/>
        <pt x="739" y="677" on="1"/>
        <pt x="655" y="656" on="1"/>
        <pt x="655" y="243" on="1"/>
        <pt x="655" y="118" on="0"/>
        <pt x="522" y="-11" on="0"/>
        <pt x="392" y="-11" on="1"/>
        <pt x="258" y="-11" on="0"/>
        <pt x="116" y="121" on="0"/>
        <pt x="116" y="244" on="1"/>
        <pt x="116" y="656" on="1"/>
        <pt x="32" y="677" on="1"/>
        <pt x="32" y="720" on="1"/>
        <pt x="300" y="720" on="1"/>
        <pt x="300" y="677" on="1"/>
        <pt x="216" y="656" on="1"/>
        <pt x="216" y="261" on="1"/>
        <pt x="216" y="44" on="0"/>
        <pt x="414" y="44" on="1"/>
        <pt x="508" y="44" on="0"/>
        <pt x="592" y="145" on="0"/>
        <pt x="592" y="259" on="1"/>
      </contour>
      <contour>
        <pt x="475" y="770" on="1"/>
        <pt x="422" y="770" on="1"/>
        <pt x="375" y="799" on="1"/>
        <pt x="337" y="822" on="0"/>
        <pt x="302" y="849" on="0"/>
        <pt x="302" y="865" on="1"/>
        <pt x="302" y="895" on="0"/>
        <pt x="339" y="895" on="1"/>
        <pt x="358" y="895" on="0"/>
        <pt x="393" y="874" on="0"/>
        <pt x="414" y="847" on="1"/>
      </contour>
    </TTGlyph>
    <TTGlyph name="Uhungarumlaut" xMin="32" yMin="-11" xMax="739" yMax="895">
      <contour>
        <pt x="592" y="656" on="1"/>
        <pt x="508" y="677" on="1"/>
        <pt x="508" y="720" on="1"/>
        <pt x="739" y="720" on="1"/>
        <pt x="739" y="677" on="1"/>
        <pt x="655" y="656" on="1"/>
        <pt x="655" y="243" on="1"/>
        <pt x="655" y="118" on="0"/>
        <pt x="522" y="-11" on="0"/>
        <pt x="392" y="-11" on="1"/>
        <pt x="258" y="-11" on="0"/>
        <pt x="116" y="121" on="0"/>
        <pt x="116" y="244" on="1"/>
        <pt x="116" y="656" on="1"/>
        <pt x="32" y="677" on="1"/>
        <pt x="32" y="720" on="1"/>
        <pt x="300" y="720" on="1"/>
        <pt x="300" y="677" on="1"/>
        <pt x="216" y="656" on="1"/>
        <pt x="216" y="261" on="1"/>
        <pt x="216" y="44" on="0"/>
        <pt x="414" y="44" on="1"/>
        <pt x="508" y="44" on="0"/>
        <pt x="592" y="145" on="0"/>
        <pt x="592" y="259" on="1"/>
      </contour>
      <contour>
        <pt x="352" y="847" on="1"/>
        <pt x="373" y="874" on="0"/>
        <pt x="408" y="895" on="0"/>
        <pt x="427" y="895" on="1"/>
        <pt x="464" y="895" on="0"/>
        <pt x="464" y="865" on="1"/>
        <pt x="464" y="849" on="0"/>
        <pt x="429" y="822" on="0"/>
        <pt x="391" y="799" on="1"/>
        <pt x="344" y="770" on="1"/>
        <pt x="291" y="770" on="1"/>
      </contour>
      <contour>
        <pt x="532" y="847" on="1"/>
        <pt x="553" y="874" on="0"/>
        <pt x="588" y="895" on="0"/>
        <pt x="607" y="895" on="1"/>
        <pt x="644" y="895" on="0"/>
        <pt x="644" y="865" on="1"/>
        <pt x="644" y="849" on="0"/>
        <pt x="609" y="822" on="0"/>
        <pt x="571" y="799" on="1"/>
        <pt x="524" y="770" on="1"/>
        <pt x="471" y="770" on="1"/>
      </contour>
    </TTGlyph>
    <TTGlyph name="Umacron" xMin="32" yMin="-11" xMax="739" yMax="861">
      <contour>
        <pt x="592" y="656" on="1"/>
        <pt x="508" y="677" on="1"/>
        <pt x="508" y="720" on="1"/>
        <pt x="739" y="720" on="1"/>
        <pt x="739" y="677" on="1"/>
        <pt x="655" y="656" on="1"/>
        <pt x="655" y="243" on="1"/>
        <pt x="655" y="118" on="0"/>
        <pt x="522" y="-11" on="0"/>
        <pt x="392" y="-11" on="1"/>
        <pt x="258" y="-11" on="0"/>
        <pt x="116" y="121" on="0"/>
        <pt x="116" y="244" on="1"/>
        <pt x="116" y="656" on="1"/>
        <pt x="32" y="677" on="1"/>
        <pt x="32" y="720" on="1"/>
        <pt x="300" y="720" on="1"/>
        <pt x="300" y="677" on="1"/>
        <pt x="216" y="656" on="1"/>
        <pt x="216" y="261" on="1"/>
        <pt x="216" y="44" on="0"/>
        <pt x="414" y="44" on="1"/>
        <pt x="508" y="44" on="0"/>
        <pt x="592" y="145" on="0"/>
        <pt x="592" y="259" on="1"/>
      </contour>
      <contour>
        <pt x="265" y="861" on="1"/>
        <pt x="544" y="861" on="1"/>
        <pt x="544" y="796" on="1"/>
        <pt x="265" y="796" on="1"/>
      </contour>
    </TTGlyph>
    <TTGlyph name="Uogonek" xMin="32" yMin="-210" xMax="739" yMax="720">
      <contour>
        <pt x="387" y="-210" on="1"/>
        <pt x="342" y="-210" on="0"/>
        <pt x="287" y="-163" on="0"/>
        <pt x="287" y="-125" on="1"/>
        <pt x="287" y="-63" on="0"/>
        <pt x="362" y="-10" on="1"/>
        <pt x="243" y="-2" on="0"/>
        <pt x="116" y="128" on="0"/>
        <pt x="116" y="244" on="1"/>
        <pt x="116" y="656" on="1"/>
        <pt x="32" y="677" on="1"/>
        <pt x="32" y="720" on="1"/>
        <pt x="300" y="720" on="1"/>
        <pt x="300" y="677" on="1"/>
        <pt x="216" y="656" on="1"/>
        <pt x="216" y="261" on="1"/>
        <pt x="216" y="44" on="0"/>
        <pt x="414" y="44" on="1"/>
        <pt x="508" y="44" on="0"/>
        <pt x="592" y="145" on="0"/>
        <pt x="592" y="259" on="1"/>
        <pt x="592" y="656" on="1"/>
        <pt x="508" y="677" on="1"/>
        <pt x="508" y="720" on="1"/>
        <pt x="739" y="720" on="1"/>
        <pt x="739" y="677" on="1"/>
        <pt x="655" y="656" on="1"/>
        <pt x="655" y="243" on="1"/>
        <pt x="655" y="122" on="0"/>
        <pt x="531" y="-6" on="0"/>
        <pt x="410" y="-11" on="1"/>
        <pt x="359" y="-56" on="0"/>
        <pt x="359" y="-105" on="1"/>
        <pt x="359" y="-152" on="0"/>
        <pt x="409" y="-152" on="1"/>
        <pt x="427" y="-152" on="0"/>
        <pt x="465" y="-142" on="0"/>
        <pt x="477" y="-132" on="1"/>
        <pt x="492" y="-154" on="1"/>
        <pt x="456" y="-210" on="0"/>
      </contour>
    </TTGlyph>
    <TTGlyph name="Uring" xMin="32" yMin="-11" xMax="739" yMax="900">
      <contour>
        <pt x="592" y="656" on="1"/>
        <pt x="508" y="677" on="1"/>
        <pt x="508" y="720" on="1"/>
        <pt x="739" y="720" on="1"/>
        <pt x="739" y="677" on="1"/>
        <pt x="655" y="656" on="1"/>
        <pt x="655" y="243" on="1"/>
        <pt x="655" y="118" on="0"/>
        <pt x="522" y="-11" on="0"/>
        <pt x="392" y="-11" on="1"/>
        <pt x="258" y="-11" on="0"/>
        <pt x="116" y="121" on="0"/>
        <pt x="116" y="244" on="1"/>
        <pt x="116" y="656" on="1"/>
        <pt x="32" y="677" on="1"/>
        <pt x="32" y="720" on="1"/>
        <pt x="300" y="720" on="1"/>
        <pt x="300" y="677" on="1"/>
        <pt x="216" y="656" on="1"/>
        <pt x="216" y="261" on="1"/>
        <pt x="216" y="44" on="0"/>
        <pt x="414" y="44" on="1"/>
        <pt x="508" y="44" on="0"/>
        <pt x="592" y="145" on="0"/>
        <pt x="592" y="259" on="1"/>
      </contour>
      <contour>
        <pt x="330" y="824" on="1"/>
        <pt x="330" y="856" on="0"/>
        <pt x="374" y="900" on="0"/>
        <pt x="405" y="900" on="1"/>
        <pt x="437" y="900" on="0"/>
        <pt x="481" y="856" on="0"/>
        <pt x="481" y="824" on="1"/>
        <pt x="481" y="793" on="0"/>
        <pt x="437" y="750" on="0"/>
        <pt x="405" y="750" on="1"/>
        <pt x="374" y="750" on="0"/>
        <pt x="330" y="793" on="0"/>
      </contour>
      <contour>
        <pt x="384" y="824" on="1"/>
        <pt x="384" y="815" on="0"/>
        <pt x="396" y="803" on="0"/>
        <pt x="405" y="803" on="1"/>
        <pt x="415" y="803" on="0"/>
        <pt x="428" y="815" on="0"/>
        <pt x="428" y="824" on="1"/>
        <pt x="428" y="834" on="0"/>
        <pt x="415" y="847" on="0"/>
        <pt x="405" y="847" on="1"/>
        <pt x="396" y="847" on="0"/>
        <pt x="384" y="834" on="0"/>
      </contour>
    </TTGlyph>
    <TTGlyph name="Utilde" xMin="32" yMin="-11" xMax="739" yMax="885">
      <contour>
        <pt x="592" y="656" on="1"/>
        <pt x="508" y="677" on="1"/>
        <pt x="508" y="720" on="1"/>
        <pt x="739" y="720" on="1"/>
        <pt x="739" y="677" on="1"/>
        <pt x="655" y="656" on="1"/>
        <pt x="655" y="243" on="1"/>
        <pt x="655" y="118" on="0"/>
        <pt x="522" y="-11" on="0"/>
        <pt x="392" y="-11" on="1"/>
        <pt x="258" y="-11" on="0"/>
        <pt x="116" y="121" on="0"/>
        <pt x="116" y="244" on="1"/>
        <pt x="116" y="656" on="1"/>
        <pt x="32" y="677" on="1"/>
        <pt x="32" y="720" on="1"/>
        <pt x="300" y="720" on="1"/>
        <pt x="300" y="677" on="1"/>
        <pt x="216" y="656" on="1"/>
        <pt x="216" y="261" on="1"/>
        <pt x="216" y="44" on="0"/>
        <pt x="414" y="44" on="1"/>
        <pt x="508" y="44" on="0"/>
        <pt x="592" y="145" on="0"/>
        <pt x="592" y="259" on="1"/>
      </contour>
      <contour>
        <pt x="221" y="770" on="1"/>
        <pt x="237" y="885" on="0"/>
        <pt x="333" y="885" on="1"/>
        <pt x="358" y="885" on="0"/>
        <pt x="396" y="868" on="0"/>
        <pt x="428" y="847" on="0"/>
        <pt x="459" y="830" on="0"/>
        <pt x="479" y="830" on="1"/>
        <pt x="509" y="830" on="0"/>
        <pt x="539" y="856" on="0"/>
        <pt x="544" y="880" on="1"/>
        <pt x="589" y="880" on="1"/>
        <pt x="571" y="759" on="0"/>
        <pt x="477" y="759" on="1"/>
        <pt x="452" y="759" on="0"/>
        <pt x="415" y="776" on="0"/>
        <pt x="382" y="797" on="0"/>
        <pt x="350" y="815" on="0"/>
        <pt x="331" y="815" on="1"/>
        <pt x="301" y="815" on="0"/>
        <pt x="271" y="791" on="0"/>
        <pt x="266" y="770" on="1"/>
      </contour>
    </TTGlyph>
    <TTGlyph name="V" xMin="-9" yMin="0" xMax="718" yMax="720">
      <contour>
        <pt x="377" y="83" on="1"/>
        <pt x="381" y="83" on="1"/>
        <pt x="567" y="656" on="1"/>
        <pt x="484" y="677" on="1"/>
        <pt x="484" y="720" on="1"/>
        <pt x="718" y="720" on="1"/>
        <pt x="718" y="677" on="1"/>
        <pt x="636" y="656" on="1"/>
        <pt x="412" y="0" on="1"/>
        <pt x="314" y="0" on="1"/>
        <pt x="71" y="656" on="1"/>
        <pt x="-9" y="677" on="1"/>
        <pt x="-9" y="720" on="1"/>
        <pt x="261" y="720" on="1"/>
        <pt x="261" y="677" on="1"/>
        <pt x="179" y="656" on="1"/>
      </contour>
    </TTGlyph>
    <TTGlyph name="W" xMin="-5" yMin="0" xMax="1042" yMax="720">
      <contour>
        <pt x="892" y="657" on="1"/>
        <pt x="813" y="677" on="1"/>
        <pt x="813" y="720" on="1"/>
        <pt x="1042" y="720" on="1"/>
        <pt x="1042" y="677" on="1"/>
        <pt x="959" y="656" on="1"/>
        <pt x="769" y="0" on="1"/>
        <pt x="665" y="0" on="1"/>
        <pt x="518" y="481" on="1"/>
        <pt x="385" y="0" on="1"/>
        <pt x="281" y="0" on="1"/>
        <pt x="73" y="656" on="1"/>
        <pt x="-5" y="677" on="1"/>
        <pt x="-5" y="720" on="1"/>
        <pt x="279" y="720" on="1"/>
        <pt x="279" y="677" on="1"/>
        <pt x="183" y="656" on="1"/>
        <pt x="348" y="94" on="1"/>
        <pt x="352" y="94" on="1"/>
        <pt x="488" y="596" on="1"/>
        <pt x="475" y="656" on="1"/>
        <pt x="397" y="677" on="1"/>
        <pt x="397" y="720" on="1"/>
        <pt x="661" y="720" on="1"/>
        <pt x="661" y="677" on="1"/>
        <pt x="569" y="656" on="1"/>
        <pt x="733" y="94" on="1"/>
        <pt x="737" y="94" on="1"/>
      </contour>
    </TTGlyph>
    <TTGlyph name="Wacute" xMin="-5" yMin="0" xMax="1042" yMax="895">
      <contour>
        <pt x="892" y="657" on="1"/>
        <pt x="813" y="677" on="1"/>
        <pt x="813" y="720" on="1"/>
        <pt x="1042" y="720" on="1"/>
        <pt x="1042" y="677" on="1"/>
        <pt x="959" y="656" on="1"/>
        <pt x="769" y="0" on="1"/>
        <pt x="665" y="0" on="1"/>
        <pt x="518" y="481" on="1"/>
        <pt x="385" y="0" on="1"/>
        <pt x="281" y="0" on="1"/>
        <pt x="73" y="656" on="1"/>
        <pt x="-5" y="677" on="1"/>
        <pt x="-5" y="720" on="1"/>
        <pt x="279" y="720" on="1"/>
        <pt x="279" y="677" on="1"/>
        <pt x="183" y="656" on="1"/>
        <pt x="348" y="94" on="1"/>
        <pt x="352" y="94" on="1"/>
        <pt x="488" y="596" on="1"/>
        <pt x="475" y="656" on="1"/>
        <pt x="397" y="677" on="1"/>
        <pt x="397" y="720" on="1"/>
        <pt x="661" y="720" on="1"/>
        <pt x="661" y="677" on="1"/>
        <pt x="569" y="656" on="1"/>
        <pt x="733" y="94" on="1"/>
        <pt x="737" y="94" on="1"/>
      </contour>
      <contour>
        <pt x="557" y="847" on="1"/>
        <pt x="578" y="874" on="0"/>
        <pt x="613" y="895" on="0"/>
        <pt x="632" y="895" on="1"/>
        <pt x="669" y="895" on="0"/>
        <pt x="669" y="865" on="1"/>
        <pt x="669" y="849" on="0"/>
        <pt x="634" y="822" on="0"/>
        <pt x="596" y="799" on="1"/>
        <pt x="549" y="770" on="1"/>
        <pt x="496" y="770" on="1"/>
      </contour>
    </TTGlyph>
</ttFont>
